<?xml version="1.0" encoding="utf-8"?>
<!-- Generator: Adobe Illustrator 24.3.2, SVG Export Plug-In . SVG Version: 6.00 Build 0)  -->
<svg version="1.1" id="Layer_1" xmlns="http://www.w3.org/2000/svg" xmlns:xlink="http://www.w3.org/1999/xlink" x="0px" y="0px"
	 viewBox="0 0 795 900" style="enable-background:new 0 0 795 900;" xml:space="preserve">
<style type="text/css">
	.st0{fill:#F0592C;}
	.st1{font-family:'Roboto-Black';}
	.st2{font-size:24px;}
	.st3{fill:#FFFFFF;}
	.st4{font-family:'Roboto-BlackItalic';}
	.st5{font-size:54px;}
	.st6{fill:#808184;}
	.st7{font-size:30px;}
	.st8{fill:none;}
	.st9{fill:#6D6E70;}
	.st10{font-family:'Roboto-Regular';}
	.st11{font-size:20px;}
	.st12{fill:none;stroke:#231F20;stroke-miterlimit:10;}
	.st13{fill:#CF6755;}
	.st14{fill:#231F20;}
</style>
<text transform="matrix(1 0 0 1 3.183 117.2222)" class="st0 st1 st2">NEW BORN BABY</text>
<g>
	<circle class="st0" cx="39.92" cy="42.48" r="36.73"/>
	<g>
		<text transform="matrix(1 0 0 1 23.1646 62.5337)" class="st3 st4 st5">1</text>
	</g>
</g>
<image style="overflow:visible;" width="393" height="600" xlink:href="4E8609F8DD1CEEE1.png"  transform="matrix(1 0 0 1 382.183 70.3824)">
</image>
<g>
	<text transform="matrix(1 0 0 1 661.5385 42.061)" class="st6 st4 st7">New born</text>
</g>
<rect x="592.18" y="620.9" class="st8" width="179" height="199.48"/>
<text transform="matrix(1 0 0 1 592.1829 635.9028)"><tspan x="0" y="0" class="st9 st10 st11">A giant panda baby </tspan><tspan x="0" y="24" class="st9 st10 st11">is the smallest </tspan><tspan x="0" y="48" class="st9 st10 st11">mammal newborn </tspan><tspan x="0" y="72" class="st9 st10 st11">relative to its </tspan><tspan x="0" y="96" class="st9 st10 st11">mother&apos;s size. The </tspan><tspan x="0" y="120" class="st9 st10 st11">cub is 1/900th the </tspan><tspan x="0" y="144" class="st9 st10 st11">size of its mother.</tspan></text>
<path class="st12" d="M259.86,382.38c137.33,0,248.65,111.33,248.65,248.65S397.19,879.69,259.86,879.69S11.2,768.37,11.2,631.04
	S122.53,382.38,259.86,382.38L259.86,382.38L259.86,382.38z"/>
<path class="st13" d="M259.86,631.04v-8.29c4.58,0,8.29,3.71,8.29,8.29c0,4.58-3.71,8.29-8.29,8.29c-4.58,0-8.29-3.71-8.29-8.29
	c0-4.58,3.71-8.29,8.29-8.29l0,0V631.04z"/>
<g>
	<g>
		<line class="st12" x1="559.18" y1="631.23" x2="280.13" y2="631.23"/>
		<g>
			<path class="st14" d="M286.9,626.43c0.15,0.23,0.08,0.54-0.15,0.69l-6.45,4.11l6.45,4.11c0.23,0.15,0.3,0.46,0.15,0.69
				s-0.46,0.3-0.69,0.15l-7.11-4.53c-0.14-0.09-0.23-0.25-0.23-0.42s0.09-0.33,0.23-0.42l7.11-4.53c0.08-0.05,0.18-0.08,0.27-0.08
				C286.64,626.19,286.8,626.28,286.9,626.43z"/>
		</g>
	</g>
</g>
<g>
	<rect x="3.18" y="143.89" class="st8" width="351" height="332.95"/>
	<text transform="matrix(1 0 0 1 3.1831 158.8931)"><tspan x="0" y="0" class="st14 st10 st11">The pregnant female giant panda </tspan><tspan x="0" y="24" class="st14 st10 st11">enters the first-stage training area.</tspan><tspan x="0" y="48" class="st14 st10 st11">The panda carers select female pandas </tspan><tspan x="0" y="72" class="st14 st10 st11">with good genes and strong </tspan><tspan x="0" y="96" class="st14 st10 st11">reproductive abilities, placing them in </tspan><tspan x="0" y="120" class="st14 st10 st11">the training area at the Wolong </tspan><tspan x="0" y="144" class="st14 st10 st11">Hetaoping base after they become </tspan><tspan x="0" y="168" class="st14 st10 st11">pregnant.</tspan></text>
</g>
<g>
	<text transform="matrix(1 0 0 1 104.3206 44.9302)" class="st14 st10 st2">First-STAGE TRAINING AREA</text>
</g>
</svg>
