<?xml version="1.0" encoding="utf-8"?>
<!-- Generator: Adobe Illustrator 24.3.2, SVG Export Plug-In . SVG Version: 6.00 Build 0)  -->
<svg version="1.1" id="Layer_1" xmlns="http://www.w3.org/2000/svg" xmlns:xlink="http://www.w3.org/1999/xlink" x="0px" y="0px"
	 viewBox="0 0 795 1177.78" style="enable-background:new 0 0 795 1177.78;" xml:space="preserve">
<style type="text/css">
	@import url('https://fonts.googleapis.com/css?family=Roboto:300,400,700');
	.st0{fill:#231F20;}
	.st1{font-family:'Roboto';font-weight: 300;}
	.st2{font-size:26px;}
	.st3{fill:#F0592C;}
	.st4{font-family:'Roboto';font-weight: 700;}
	.st5{font-size:34px;}
	.st6{fill:#808184;}
	.st7{font-family:'Roboto';font-weight: 700;}
	.st8{font-size:32px;}
	.st9{fill:none;}
	.st10{fill:#FFFFFF;}
	.st11{font-size:54px;}
</style>
<image style="overflow:visible;" width="539" height="466" xlink:href="5A43D9D84FC5A626.jpg"  transform="matrix(1.1207 0 0 1.1207 201.4906 694.7672)">
</image>
<image style="overflow:visible;enable-background:new    ;" width="791" height="517" xlink:href="5A43D9D84FC5A627.png"  transform="matrix(1 0 0 1 4 274.8212)">
</image>
<g>
	<text transform="matrix(1 0 0 1 1.7164 228.8383)" class="st0 st1 st2">The carers avoid disturbing the panda cub and strive to create an </text>
	<text transform="matrix(1 0 0 1 1.7164 260.0382)" class="st0 st1 st2">environment for it that is free of any human interaction.</text>
</g>
<g>
	<text transform="matrix(1 0 0 1 1.7164 179.3083)" class="st3 st4 st5">DO NOT DISTURB</text>
</g>
<g>
	<g>
		<text transform="matrix(1 0 0 1 548.7354 104.9669)" class="st6 st7 st8">1 to 5 months</text>
	</g>
</g>
<g>
	<rect x="524.23" y="735.89" class="st9" width="240.32" height="206.4"/>
	<text transform="matrix(1 0 0 1 524.2267 755.3927)"><tspan x="0" y="0" class="st0 st1 st2">Cubs soon develop </tspan><tspan x="0" y="31.2" class="st0 st1 st2">soft gray fur, which </tspan><tspan x="0" y="62.4" class="st0 st1 st2">becomes coarser </tspan><tspan x="0" y="93.6" class="st0 st1 st2">and develops its </tspan><tspan x="0" y="124.8" class="st0 st1 st2">black-and-white </tspan><tspan x="0" y="156" class="st0 st1 st2">pattern in a month.</tspan></text>
</g>
<g>
	<rect x="27.88" y="770.19" class="st9" width="205.05" height="210.05"/>
	<text transform="matrix(1 0 0 1 27.883 789.685)"><tspan x="0" y="0" class="st0 st1 st2">At feeding time, </tspan><tspan x="0" y="31.2" class="st0 st1 st2">the carers wear </tspan><tspan x="0" y="62.4" class="st0 st1 st2">panda suits to </tspan><tspan x="0" y="93.6" class="st0 st1 st2">reduce the </tspan><tspan x="0" y="124.8" class="st0 st1 st2">impact on the </tspan><tspan x="0" y="156" class="st0 st1 st2">mother panda.</tspan></text>
</g>
<g>
	<circle class="st3" cx="38.73" cy="85.33" r="36.73"/>
	<g>
		<text transform="matrix(1 0 0 1 22.1481 105.1879)" class="st10 st7 st11">2</text>
	</g>
</g>
</svg>
