<?xml version="1.0" encoding="utf-8"?>
<!-- Generator: Adobe Illustrator 24.3.2, SVG Export Plug-In . SVG Version: 6.00 Build 0)  -->
<svg version="1.1" id="Layer_1" xmlns="http://www.w3.org/2000/svg" xmlns:xlink="http://www.w3.org/1999/xlink" x="0px" y="0px"
	 viewBox="0 0 795 1122.77" style="enable-background:new 0 0 795 1122.77;" xml:space="preserve">
<style type="text/css">
	.st0{fill:#F0592C;}
	.st1{font-family:'Roboto-Black';}
	.st2{font-size:24px;}
	.st3{fill:#808184;}
	.st4{font-family:'Roboto-BlackItalic';}
	.st5{font-size:32px;}
	.st6{fill:#FFFFFF;}
	.st7{font-size:54px;}
	.st8{fill:none;}
	.st9{fill:#6D6E70;}
	.st10{font-family:'Roboto-Regular';}
	.st11{font-size:20px;}
	.st12{fill:#231F20;}
</style>
<image style="overflow:visible;" width="480" height="458" xlink:href="5A43D9D84FC5A621.png"  transform="matrix(1 0 0 1 4.7225 651.736)">
</image>
<text transform="matrix(1 0 0 1 2.7227 134.0055)" class="st0 st1 st2">Do not disturb</text>
<g>
	<text transform="matrix(1 0 0 1 587.2939 54.1244)" class="st3 st4 st5">1 to 5 months</text>
</g>
<g>
	<circle class="st0" cx="39.45" cy="56.27" r="36.73"/>
	<g>
		<text transform="matrix(1 0 0 1 24.1621 74.9342)" class="st6 st4 st7">2</text>
	</g>
</g>
<g>
	<rect x="539.29" y="662.22" class="st8" width="226.17" height="184.51"/>
	<text transform="matrix(1 0 0 1 539.291 677.223)"><tspan x="0" y="0" class="st9 st10 st11">Cubs soon develop soft </tspan><tspan x="0" y="24" class="st9 st10 st11">gray fur, which becomes </tspan><tspan x="0" y="48" class="st9 st10 st11">coarser and develops its </tspan><tspan x="0" y="72" class="st9 st10 st11">black and white pattern </tspan><tspan x="0" y="96" class="st9 st10 st11">in a month.</tspan></text>
</g>
<g>
	<polygon class="st8" points="447.29,922.74 271.5,922.74 271.5,770.22 484.72,770.22 	"/>
	<text transform="matrix(1 0 0 1 271.4956 785.2235)"><tspan x="0" y="0" class="st9 st10 st11">At feeding time, the </tspan><tspan x="0" y="24" class="st9 st10 st11">carers wear panda </tspan><tspan x="0" y="48" class="st9 st10 st11">suits to reduce the </tspan><tspan x="0" y="72" class="st9 st10 st11">impact on the mother </tspan><tspan x="0" y="96" class="st9 st10 st11">panda.</tspan></text>
</g>
<g>
	<rect x="2.72" y="152.81" class="st8" width="702.44" height="255.19"/>
	<text transform="matrix(1 0 0 1 2.7227 167.8102)"><tspan x="0" y="0" class="st12 st10 st11">The carers avoid disturbing the panda cub and strive to create an environment </tspan><tspan x="0" y="24" class="st12 st10 st11">for it that is free of any human interaction.</tspan></text>
</g>
<image style="overflow:visible;" width="793" height="600" xlink:href="5A43D9D84FC5A623.png"  transform="matrix(1 0 0 1 -0.2775 106.736)">
</image>
</svg>
