<?xml version="1.0" encoding="utf-8"?>
<!-- Generator: Adobe Illustrator 24.3.2, SVG Export Plug-In . SVG Version: 6.00 Build 0)  -->
<svg version="1.1" id="Layer_1" xmlns="http://www.w3.org/2000/svg" xmlns:xlink="http://www.w3.org/1999/xlink" x="0px" y="0px"
	 viewBox="0 0 795 1177.78" style="enable-background:new 0 0 795 1177.78;" xml:space="preserve">
<style type="text/css">
	.st0{fill:#FFFFFF;stroke:#231F20;stroke-width:0.5;stroke-miterlimit:10;}
	.st1{fill:none;stroke:#231F20;stroke-width:0.5;stroke-miterlimit:10;}
	.st2{fill:#231F20;}
	.st3{font-family:'BentonSans-Book';}
	.st4{font-size:26px;}
	.st5{fill:#F0592C;}
	.st6{font-family:'BentonSans-Bold';}
	.st7{font-size:34px;}
	.st8{fill:#808184;}
	.st9{font-family:'Roboto-BlackItalic';}
	.st10{font-size:32px;}
	.st11{fill:none;}
	.st12{fill:#FFFFFF;}
	.st13{font-size:54px;}
</style>
<g>
	<path class="st0" d="M246.89,942.29c2.64-2.23,2.6-6.24,2.33-9.69c-2.7-34.99-5.47-70.39-16.5-103.7
		c-3.71-11.22-9.47-23.27-20.56-27.36c-3.18-1.17-6.66-1.62-9.57-3.35c-4.65-2.78-6.87-8.21-8.8-13.27
		c-2.72-7.16-5.44-14.31-8.16-21.47c-3.93-10.34-10.19-22.46-21.25-22.88c-3.12-0.12-6.5,0.74-9.2-0.83
		c-2.96-1.73-3.97-5.83-7.02-7.4c-3.55-1.83-8.08,0.98-9.55,4.69c-1.47,3.72-0.78,7.89-0.07,11.83
		c-14.94,11.68-18.75,35.3-8.25,51.09c6.17,9.27,16.1,15.45,22.7,24.43c18.11,24.66,5.07,53.25,12.3,80.04"/>
	<path class="st1" d="M162.36,903.99c-0.4-8.91-3.86-17.34-4.29-26.37c-0.46-9.77,0.79-19.63,3.72-28.96"/>
	<g id="carer-disguise2.psd_1_">
		
			<image style="overflow:visible;enable-background:new    ;" width="1049" height="1002" id="carer-disguise2" xlink:href="5A43D9D84FC5A624.jpg"  transform="matrix(0.4248 0 0 0.4248 23.8503 716.7039)">
		</image>
	</g>
	<path class="st1" d="M160.73,849.78c0.79-8.6-2.18-17.49-7.98-23.89c-2.04-2.25-4.44-4.24-5.96-6.87
		c-2.11-3.65-2.61-8.54-6.14-10.83c-1.8-1.17-4.06-1.39-5.98-2.35c-4.3-2.16-5.92-7.38-6.94-12.08c-1.87-8.57-3.18-17.48-1.51-26.09
		c1.67-8.61,6.77-16.96,14.77-20.56"/>
	<path class="st1" d="M156.72,740.95c-0.41,0-0.82,0-1.23,0c6.75-0.12,14.69-0.77,19.91,3.5c3.54,2.89,5.56,7.21,7.38,11.41
		c6.05,13.97,11.2,28.34,15.4,42.98c0.89,3.12-4.52,11.29-7.13,13.21c-2.85,2.11-5.71,4.22-8.56,6.33c-1.1,5.29-5.21,4.41-7.55,9.28
		c-1.12,2.33-1.1,5.02-1.76,7.52c-1.1,4.16-4.03,7.55-6.87,10.78c-0.93,1.06-1.94,2.17-3.3,2.55s-3.12-0.36-3.27-1.76
		c0.61-1.23,1.23-2.46,1.84-3.69"/>
</g>
<image style="overflow:visible;enable-background:new    ;" width="791" height="517" xlink:href="5A43D9D84FC5A627.png"  transform="matrix(1 0 0 1 4 274.8212)">
</image>
<g>
	<text transform="matrix(1 0 0 1 1.7164 228.8383)" class="st2 st3 st4">The carers avoid disturbing the panda cub and strive to create an </text>
	<text transform="matrix(1 0 0 1 1.7164 260.0382)" class="st2 st3 st4">environment for it that is free of any human interaction.</text>
</g>
<g>
	<text transform="matrix(1 0 0 1 1.7164 179.3083)" class="st5 st6 st7">DO NOT DISTURB</text>
</g>
<g>
	<g>
		<text transform="matrix(1 0 0 1 548.7354 104.9669)" class="st8 st9 st10">1 to 5 months</text>
	</g>
</g>
<g>
	<rect x="524.23" y="735.89" class="st11" width="240.32" height="206.4"/>
	<text transform="matrix(1 0 0 1 524.2267 755.132)"><tspan x="0" y="0" class="st2 st3 st4">Cubs soon develop </tspan><tspan x="0" y="31.2" class="st2 st3 st4">soft gray fur, which </tspan><tspan x="0" y="62.4" class="st2 st3 st4">becomes coarser </tspan><tspan x="0" y="93.6" class="st2 st3 st4">and develops its </tspan><tspan x="0" y="124.8" class="st2 st3 st4">black-and-white </tspan><tspan x="0" y="156" class="st2 st3 st4">pattern in a month.</tspan></text>
</g>
<g>
	<rect x="524.23" y="992.74" class="st11" width="240.32" height="155.95"/>
	<text transform="matrix(1 0 0 1 524.2267 1011.978)"><tspan x="0" y="0" class="st2 st3 st4">After three months </tspan><tspan x="0" y="31.2" class="st2 st3 st4">baby pandas begin </tspan><tspan x="0" y="62.4" class="st2 st3 st4">to crawl.</tspan></text>
</g>
<g>
	<rect x="270.44" y="770.19" class="st11" width="205.05" height="210.05"/>
	<text transform="matrix(1 0 0 1 270.4414 789.4252)"><tspan x="0" y="0" class="st2 st3 st4">At feeding time, </tspan><tspan x="0" y="31.2" class="st2 st3 st4">the carers wear </tspan><tspan x="0" y="62.4" class="st2 st3 st4">panda suits to </tspan><tspan x="0" y="93.6" class="st2 st3 st4">reduce the </tspan><tspan x="0" y="124.8" class="st2 st3 st4">impact on the </tspan><tspan x="0" y="156" class="st2 st3 st4">mother panda.</tspan></text>
</g>
<g>
	<circle class="st5" cx="38.73" cy="85.33" r="36.73"/>
	<g>
		<text transform="matrix(1 0 0 1 22.1481 105.1879)" class="st12 st9 st13">2</text>
	</g>
</g>
</svg>
