<?xml version="1.0" encoding="utf-8"?>
<!-- Generator: Adobe Illustrator 24.3.2, SVG Export Plug-In . SVG Version: 6.00 Build 0)  -->
<svg version="1.1" id="Layer_1" xmlns="http://www.w3.org/2000/svg" xmlns:xlink="http://www.w3.org/1999/xlink" x="0px" y="0px"
	 viewBox="0 0 795 852.06" style="enable-background:new 0 0 795 852.06;" xml:space="preserve">
<style type="text/css">
	@import url('https://fonts.googleapis.com/css?family=Roboto:300,400,700');
	.st0{fill:#808184;}
	.st1{font-family:'Roboto';font-weight: 700;}
	.st2{font-size:32px;}
	.st3{fill:none;}
	.st4{fill:#231F20;}
	.st5{font-family:'Roboto';font-weight: 300;}
	.st6{font-size:26px;}
	.st7{fill:#F0592C;}
	.st8{font-family:'Roboto';font-weight: 700;}
	.st9{font-size:36px;}
	.st10{fill:#6D6E70;}
	.st11{font-size:24px;}
	.st12{fill:#B0C3E4;stroke:#231F20;stroke-width:2;stroke-linecap:round;stroke-linejoin:round;stroke-miterlimit:10;}
	.st13{fill:#B0C3E4;stroke:#231F20;stroke-width:0.3;stroke-miterlimit:10;}
	.st14{fill:none;stroke:#231F20;stroke-width:0.3;stroke-miterlimit:10;}
	.st15{opacity:0.5;fill:#60615A;}
	.st16{fill:#7A7972;}
	.st17{fill:#A3A09C;}
	.st18{fill:none;stroke:#231F20;stroke-width:0.8;stroke-miterlimit:10;}
	.st19{opacity:0.3;fill:#F0592C;}
	.st20{fill:none;stroke:#F0592C;stroke-miterlimit:10;}
	.st21{fill:#FFFFFF;}
	.st22{font-size:54px;}
	.st23{fill:none;stroke:#1D1D1B;stroke-width:0.8;stroke-miterlimit:10;}
</style>
<g>
	<text transform="matrix(1 0 0 1 592.4215 66.0667)" class="st0 st1 st2">Two years old</text>
</g>
<g>
	<rect x="4.17" y="172.39" class="st3" width="401.44" height="152.4"/>
	<text transform="matrix(1 0 0 1 4.1734 191.8945)"><tspan x="0" y="0" class="st4 st5 st6">When the giant panda cub is about </tspan><tspan x="0" y="31.2" class="st4 st5 st6">2 years old, it will leave its mother </tspan><tspan x="0" y="62.4" class="st4 st5 st6">and return to the wild with a track</tspan><tspan x="378.56" y="62.4" class="st4 st5 st6">-</tspan><tspan x="0" y="93.6" class="st4 st5 st6">ing collar fitted.</tspan></text>
</g>
<g>
	<text transform="matrix(1 0 0 1 4.1733 148.6281)" class="st7 st8 st9">INTO THE WILD</text>
</g>
<g>
	<text transform="matrix(1 0 0 1 641.5041 483.848)"><tspan x="0" y="0" class="st10 st5 st11">Tracking</tspan><tspan x="16.88" y="28.8" class="st10 st5 st11">collar</tspan></text>
</g>
<g>
	<path class="st12" d="M769.88,236.33l-2.53-11.83c0,0-7.6,0.84-6.76-2.53c0.84-3.38-5.07-16.05-5.07-16.05l-5.07-12.67l-5.91-9.29
		l-4.22-23.65c0,0,2.53-5.07,2.53-7.6c0-2.53,0-2.53,0-2.53l-6.76-13.51l-9.29-2.53l-25.34-2.53l-67.58,3.38l-9.29,5.75v45.77
		c0,0-15.2,13.16-15.2,21.36c0,0-34.63,46.21-14.36,112.1c0,0,15.2,27.03,16.89,29.56c-0.64-0.95-1.69-2.53-1.69-2.53v10.18
		l-3.6,12.63H617l7.6,41.39c0,0,5.07,21.11,27.87,27.03l-4.22-27.87l8.45,2.53c0,0,8.45,13.64,26.19,13.16
		c0,0,10.98,0.36,23.65-7.24l7.6,2.53l5.91,5.91l5.91-3.38l3.38-12.67l7.6-48.99l3.38-10.14
		C740.32,352.05,783.4,315.73,769.88,236.33z M612.2,349.92c0.09,0.13,0.14,0.21,0.17,0.25
		C612.33,350.12,612.27,350.03,612.2,349.92z M727.65,269.27l-0.85,11.83l-3.38,8.45l-15.2,21.12l-10.14,8.45
		c-8.45,14.36-59.97,17.74-59.97,17.74l-8.45-2.53l-13.52-14.36c-8.45-48.15,21.96-92.07,21.96-92.07l10.98-10.14
		c26.19-36.32,48.99-29.56,48.99-29.56l12.67,9.29l11.83,13.51C732.72,233.79,727.65,269.27,727.65,269.27z"/>
	<g>
		<path class="st13" d="M769.88,236.33l-2.53-11.83c0,0-7.6,0.84-6.76-2.53c0.84-3.38-5.07-16.05-5.07-16.05l-5.07-12.67l-5.91-9.29
			l-4.22-23.65c0,0,2.53-5.07,2.53-7.6c0-2.53,0-2.53,0-2.53l-6.76-13.51l-9.29-2.53l-25.34-2.53l-67.58,3.38l-9.29,5.75v45.77
			c0,0-15.2,13.16-15.2,21.36c0,0-34.63,46.21-14.36,112.1c0,0,15.2,27.03,16.89,29.56c-0.64-0.95-1.69-2.53-1.69-2.53v10.18
			l-3.6,12.63H617l7.6,41.39c0,0,5.07,21.11,27.87,27.03l-4.22-27.87l8.45,2.53c0,0,8.45,13.64,26.19,13.16
			c0,0,10.98,0.36,23.65-7.24l7.6,2.53l5.91,5.91l5.91-3.38l3.38-12.67l7.6-48.99l3.38-10.14
			C740.32,352.05,783.4,315.73,769.88,236.33z M612.2,349.92c0.09,0.13,0.14,0.21,0.17,0.25
			C612.33,350.12,612.27,350.03,612.2,349.92z M727.65,269.27l-0.85,11.83l-3.38,8.45l-15.2,21.12l-10.14,8.45
			c-8.45,14.36-59.97,17.74-59.97,17.74l-8.45-2.53l-13.52-14.36c-8.45-48.15,21.96-92.07,21.96-92.07l10.98-10.14
			c26.19-36.32,48.99-29.56,48.99-29.56l12.67,9.29l11.83,13.51C732.72,233.79,727.65,269.27,727.65,269.27z"/>
		<path class="st14" d="M736.1,136.65l-80.32,6.04l-4.38,3.75l-1.88,53.76l-6.25,8.13c0,0-31.88,37.51-30.01,96.27
			c0,0-3.13,35.01,24.38,61.26l4.38,11.25l6.23,33.2"/>
		<path class="st14" d="M629.67,334.31c0,0,14.85,30.31,36.73,32.82c0,0,38.76,5,66.89-17.5c0,0,16.88-20,19.38-48.76l-23.13-10
			l-8.13,2.5"/>
		<path class="st14" d="M708.91,362.75c0,0,34.38-2.5,48.14-58.14c0,0,18.75-38.13-1.88-85.02c0,0-19.38-44.39-61.89-38.13
			c0,0-33.76,3.13-53.76,42.51"/>
		<line class="st14" x1="753.92" y1="224.59" x2="727.04" y2="215.84"/>
		<path class="st14" d="M706.53,418.78c0,0,13.01-7.27,23.63-29.77l6.25-35.01"/>
		<path class="st14" d="M656.7,412.87c0,0-7.8-41.36-7.8-45.12l-1.88-5c0,0,21.88,15.63,69.39,0"/>
		<path class="st14" d="M617,369.79l14.4,0.46c0,0-15.25-11.28-19.19-20.33"/>
		<line class="st14" x1="649.52" y1="200.21" x2="624.6" y2="186.49"/>
		<line class="st14" x1="651.4" y1="146.45" x2="624.6" y2="140.72"/>
		<line class="st14" x1="655.77" y1="142.7" x2="633.89" y2="134.96"/>
		<line class="st14" x1="643.27" y1="208.34" x2="617.64" y2="194.58"/>
		<polygon class="st14" points="722.04,165.63 678.9,168.52 678.9,152.89 722.04,150.01 		"/>
	</g>
</g>
<polygon class="st15" points="484.64,705.04 122.43,705.04 122.43,412.09 490.26,417.53 "/>
<polygon class="st16" points="122.43,412.09 122.43,705.04 197.32,646.07 197.32,412.09 "/>
<polygon class="st17" points="484.64,705.04 197.32,705.04 197.32,646.07 484.93,652.13 "/>
<g>
	<line class="st18" x1="100.9" y1="670.19" x2="100.9" y2="750.9"/>
	<line class="st18" x1="100.9" y1="478.54" x2="100.9" y2="628.29"/>
	<polyline class="st18" points="100.9,439.23 100.9,408.34 100.9,395.24 156.12,340.96 541.73,344.7 541.73,400.86 	"/>
	<polyline class="st18" points="113.88,439.23 87.8,439.23 87.8,478.54 113.88,478.54 	"/>
	<polyline class="st18" points="113.88,630.88 87.8,630.88 87.8,670.19 113.88,670.19 	"/>
	<polygon class="st18" points="87.8,702.23 23.12,727.5 13.86,727.5 13.86,410.22 70.02,394.3 84.06,394.3 	"/>
	<polyline class="st18" points="84.06,394.3 23.12,412.09 23.12,727.5 	"/>
	<polygon class="st18" points="529.57,398.98 608.51,426.5 600.08,749.4 589.97,749.4 529.57,716.27 	"/>
	<polyline class="st18" points="507.21,676.96 505.71,758.37 483.52,758.37 484.64,721.89 321.32,721.89 	"/>
	<line class="st18" x1="511.62" y1="486.95" x2="508.14" y2="636.72"/>
	<polyline class="st18" points="100.9,395.24 513.66,398.98 512.38,453.79 	"/>
	<line class="st18" x1="513.66" y1="398.98" x2="541.73" y2="344.7"/>
	<polyline class="st18" points="527.69,453.79 499.62,453.79 499.62,486.95 527.69,486.95 	"/>
	<polyline class="st18" points="525.65,636.72 497.58,636.72 497.58,676.96 525.65,676.96 	"/>
	<path class="st18" d="M328.34,705.04c0,0,156.3,1.87,156.3,0s5.62-287.51,5.62-287.51l-367.83-5.44v154.9"/>
	<line class="st18" x1="521.14" y1="453.79" x2="521.14" y2="417.53"/>
	<line class="st18" x1="521.14" y1="636.72" x2="521.14" y2="486.95"/>
	<polyline class="st18" points="505.71,758.37 521.14,717.67 521.14,675.56 	"/>
	<line class="st18" x1="313.36" y1="650.54" x2="480.43" y2="650.54"/>
	<polyline class="st18" points="529.57,407.88 599.29,430.81 589.97,749.4 	"/>
	<line class="st18" x1="608.51" y1="426.5" x2="599.29" y2="430.81"/>
</g>
<image style="overflow:visible;" width="325" height="341" xlink:href="7DBF8E49EBB8CBC8.png"  transform="matrix(1 0 0 1 54 519.01)">
</image>
<path class="st19" d="M273.45,429.39c0,0-86.39,22.87-38.24,96.58l-30.19,4.98l90.28,46.65l11.98-63.78l-30.66,5.06
	C276.62,518.89,202.86,459.71,273.45,429.39z"/>
<path class="st20" d="M273.45,429.39c0,0-86.39,22.87-38.24,96.58l-30.19,4.98l90.28,46.65l11.98-63.78l-30.66,5.06
	C276.62,518.89,202.86,459.71,273.45,429.39z"/>
<g>
	<circle class="st7" cx="40.9" cy="56.71" r="36.73"/>
	<text transform="matrix(1 0 0 1 25.6104 72.496)" class="st21 st1 st22">4</text>
</g>
<path class="st23" d="M681.72,542.56v118.27c0,24.97-20.24,45.21-45.21,45.21H276.83"/>
</svg>
