<?xml version="1.0" encoding="utf-8"?>
<!-- Generator: Adobe Illustrator 24.3.2, SVG Export Plug-In . SVG Version: 6.00 Build 0)  -->
<svg version="1.1" id="Layer_1" xmlns="http://www.w3.org/2000/svg" xmlns:xlink="http://www.w3.org/1999/xlink" x="0px" y="0px"
	 viewBox="0 0 795 780.01" style="enable-background:new 0 0 795 780.01;" xml:space="preserve">
<style type="text/css">
	.st0{fill:#808184;}
	.st1{font-family:'Roboto-BlackItalic';}
	.st2{font-size:32px;}
	.st3{fill:none;}
	.st4{fill:#231F20;}
	.st5{font-family:'Roboto-Regular';}
	.st6{font-size:20px;}
	.st7{fill:#F0592C;}
	.st8{font-family:'Roboto-Black';}
	.st9{font-size:24px;}
	.st10{fill:#FFFFFF;}
	.st11{font-size:54px;}
	.st12{fill:#6D6E70;}
	.st13{font-size:22px;}
	.st14{fill:#B0C3E4;stroke:#231F20;stroke-linecap:round;stroke-linejoin:round;stroke-miterlimit:10;}
	.st15{fill:#B0C3E4;stroke:#231F20;stroke-width:0.3;stroke-miterlimit:10;}
	.st16{fill:none;stroke:#231F20;stroke-width:0.3;stroke-miterlimit:10;}
	.st17{opacity:0.3;fill:#F0592C;}
	.st18{fill:none;stroke:#F0592C;stroke-miterlimit:10;}
</style>
<g>
	<text transform="matrix(1 0 0 1 586.7809 48.5437)" class="st0 st1 st2">Two years old</text>
</g>
<g>
	<rect x="2.8" y="164.68" class="st3" width="537.18" height="158.62"/>
	<text transform="matrix(1 0 0 1 2.8017 179.6844)"><tspan x="0" y="0" class="st4 st5 st6">When the giant panda cub is about two years old, it will leave </tspan><tspan x="0" y="24" class="st4 st5 st6">its mother and return to the wild with a tracking collar fitted.</tspan></text>
</g>
<g>
	<text transform="matrix(1 0 0 1 2.8014 145.8797)" class="st7 st8 st9">inTO THE WILD</text>
</g>
<g>
	<circle class="st7" cx="39.53" cy="48.12" r="36.73"/>
	<g>
		<text transform="matrix(1 0 0 1 24.2404 66.782)" class="st10 st1 st11">4</text>
	</g>
</g>
<g>
	<text transform="matrix(1 0 0 1 656.7487 406.4949)"><tspan x="0" y="0" class="st12 st5 st13">Tracking</tspan><tspan x="15.44" y="26.4" class="st12 st5 st13">collar</tspan></text>
</g>
<g>
	<path class="st14" d="M778.7,194.95l-2.22-10.35c0,0-6.65,0.74-5.91-2.22c0.74-2.96-4.43-14.04-4.43-14.04l-4.43-11.09l-5.17-8.13
		l-3.7-20.7c0,0,2.22-4.43,2.22-6.65s0-2.22,0-2.22l-5.91-11.83l-8.13-2.22l-22.17-2.22l-59.13,2.96l-8.13,5.03v40.05
		c0,0-13.3,11.52-13.3,18.69c0,0-30.3,40.44-12.57,98.09c0,0,13.3,23.65,14.78,25.87c-0.56-0.84-1.48-2.22-1.48-2.22v8.9
		l-3.15,11.05h9.07l6.65,36.22c0,0,4.43,18.47,24.39,23.65l-3.7-24.39l7.39,2.22c0,0,7.39,11.94,22.91,11.51
		c0,0,9.61,0.31,20.7-6.34l6.65,2.22l5.17,5.17l5.17-2.96l2.96-11.09l6.65-42.87l2.96-8.87
		C752.83,296.21,790.53,264.43,778.7,194.95z M640.72,294.35c0.08,0.12,0.12,0.18,0.15,0.22
		C640.84,294.52,640.79,294.45,640.72,294.35z M741.75,223.78l-0.74,10.35l-2.96,7.39l-13.3,18.48l-8.87,7.39
		c-7.39,12.57-52.48,15.52-52.48,15.52l-7.39-2.22l-11.83-12.57c-7.39-42.13,19.22-80.56,19.22-80.56l9.61-8.87
		c22.91-31.78,42.87-25.87,42.87-25.87l11.09,8.13l10.35,11.83C746.18,192.73,741.75,223.78,741.75,223.78z"/>
	<g>
		<path class="st15" d="M778.7,194.95l-2.22-10.35c0,0-6.65,0.74-5.91-2.22c0.74-2.96-4.43-14.04-4.43-14.04l-4.43-11.09l-5.17-8.13
			l-3.7-20.7c0,0,2.22-4.43,2.22-6.65s0-2.22,0-2.22l-5.91-11.83l-8.13-2.22l-22.17-2.22l-59.13,2.96l-8.13,5.03v40.05
			c0,0-13.3,11.52-13.3,18.69c0,0-30.3,40.44-12.57,98.09c0,0,13.3,23.65,14.78,25.87c-0.56-0.84-1.48-2.22-1.48-2.22v8.9
			l-3.15,11.05h9.07l6.65,36.22c0,0,4.43,18.47,24.39,23.65l-3.7-24.39l7.39,2.22c0,0,7.39,11.94,22.91,11.51
			c0,0,9.61,0.31,20.7-6.34l6.65,2.22l5.17,5.17l5.17-2.96l2.96-11.09l6.65-42.87l2.96-8.87
			C752.83,296.21,790.53,264.43,778.7,194.95z M640.72,294.35c0.08,0.12,0.12,0.18,0.15,0.22
			C640.84,294.52,640.79,294.45,640.72,294.35z M741.75,223.78l-0.74,10.35l-2.96,7.39l-13.3,18.48l-8.87,7.39
			c-7.39,12.57-52.48,15.52-52.48,15.52l-7.39-2.22l-11.83-12.57c-7.39-42.13,19.22-80.56,19.22-80.56l9.61-8.87
			c22.91-31.78,42.87-25.87,42.87-25.87l11.09,8.13l10.35,11.83C746.18,192.73,741.75,223.78,741.75,223.78z"/>
		<path class="st16" d="M749.14,107.73l-70.29,5.29l-3.83,3.28l-1.64,47.04l-5.47,7.11c0,0-27.9,32.82-26.26,84.24
			c0,0-2.74,30.63,21.33,53.61l3.83,9.85l5.45,29.05"/>
		<path class="st16" d="M656.01,280.69c0,0,13,26.53,32.14,28.71c0,0,33.92,4.38,58.53-15.32c0,0,14.77-17.5,16.96-42.67
			l-20.24-8.75l-7.11,2.19"/>
		<path class="st16" d="M725.35,305.58c0,0,30.09-2.19,42.12-50.87c0,0,16.41-33.37-1.64-74.4c0,0-16.96-38.84-54.16-33.37
			c0,0-29.54,2.74-47.04,37.2"/>
		<line class="st16" x1="764.74" y1="184.68" x2="741.21" y2="177.02"/>
		<path class="st16" d="M723.27,354.6c0,0,11.38-6.36,20.68-26.05l5.47-30.63"/>
		<path class="st16" d="M679.66,349.43c0,0-6.83-36.2-6.83-39.48l-1.64-4.38c0,0,19.15,13.68,60.72,0"/>
		<path class="st16" d="M644.92,311.73l12.6,0.41c0,0-13.35-9.87-16.79-17.79"/>
		<line class="st16" x1="673.38" y1="163.35" x2="651.57" y2="151.34"/>
		<line class="st16" x1="675.02" y1="116.3" x2="651.57" y2="111.29"/>
		<line class="st16" x1="678.85" y1="113.02" x2="659.7" y2="106.26"/>
		<line class="st16" x1="667.91" y1="170.46" x2="645.48" y2="158.42"/>
		<polygon class="st16" points="736.84,133.09 699.09,135.62 699.09,121.94 736.84,119.42 		"/>
	</g>
</g>
<image style="overflow:visible;" width="642" height="531" xlink:href="7DBF8E49EBB8CBCF.png"  transform="matrix(1 0 0 1 2.8014 231.2996)">
</image>
<path class="st17" d="M282.07,356.08c0,0-88.67,23.47-39.24,99.12l-30.99,5.11l92.66,47.88l12.29-65.46l-31.47,5.19
	C285.33,447.93,209.62,387.19,282.07,356.08z"/>
<path class="st18" d="M282.07,356.08c0,0-88.67,23.47-39.24,99.12l-30.99,5.11l92.66,47.88l12.29-65.46l-31.47,5.19
	C285.33,447.93,209.62,387.19,282.07,356.08z"/>
</svg>
