<?xml version="1.0" encoding="utf-8"?>
<!-- Generator: Adobe Illustrator 24.3.2, SVG Export Plug-In . SVG Version: 6.00 Build 0)  -->
<svg version="1.1" id="Layer_1" xmlns="http://www.w3.org/2000/svg" xmlns:xlink="http://www.w3.org/1999/xlink" x="0px" y="0px"
	 viewBox="0 0 795 1225.29" style="enable-background:new 0 0 795 1225.29;" xml:space="preserve">
<style type="text/css">
	.st0{fill:#231F20;}
	.st1{font-family:'Roboto-Light';}
	.st2{font-size:26px;}
	.st3{fill:none;stroke:#231F20;stroke-miterlimit:10;}
	.st4{fill:#808184;}
	.st5{font-family:'Roboto-BlackItalic';}
	.st6{font-size:32px;}
	.st7{fill:#F0592C;}
	.st8{fill:#FFFFFF;}
	.st9{font-size:54px;}
	.st10{fill:none;}
	.st11{font-family:'Roboto-Black';}
	.st12{font-size:34px;}
	.st13{font-size:30px;}
	.st14{fill:none;stroke:#000000;stroke-miterlimit:10;}
</style>
<g>
	<text transform="matrix(1 0 0 1 412.6457 1190.65)" class="st0 st1 st2">One died due to illness.</text>
</g>
<polyline class="st3" points="689,1186.65 759,1186.65 759,1121.93 "/>
<g>
	<text transform="matrix(1 0 0 1 576.073 87.08)" class="st4 st5 st6">Four years old</text>
</g>
<g>
	<circle class="st7" cx="41.18" cy="72" r="36.73"/>
	<text transform="matrix(1 0 0 1 25.8891 87.7808)" class="st8 st5 st9">5</text>
</g>
<g>
	<rect x="4.45" y="178.5" class="st10" width="790.52" height="120.93"/>
	<text transform="matrix(1 0 0 1 4.4523 198.0038)"><tspan x="0" y="0" class="st0 st1 st2">About one to two years later, the collar battery will drain and the collar </tspan><tspan x="0" y="31.2" class="st0 st1 st2">will fall off automatically, signifying a successful reintroduction into </tspan><tspan x="0" y="62.4" class="st0 st1 st2">the wild.</tspan></text>
</g>
<g>
	<text transform="matrix(1 0 0 1 4.4524 150.2978)" class="st7 st11 st12">WILD ENVIRONMENT</text>
</g>
<g>
	<rect x="4.45" y="954.74" class="st10" width="328.46" height="303"/>
	<text transform="matrix(1 0 0 1 4.4531 974.2371)"><tspan x="0" y="0" class="st0 st1 st2">Since the start of the panda </tspan><tspan x="0" y="31.2" class="st0 st1 st2">reintroduction program by </tspan><tspan x="0" y="62.4" class="st0 st1 st2">the China Conservation and </tspan><tspan x="0" y="93.6" class="st0 st1 st2">Research Center for the </tspan><tspan x="0" y="124.8" class="st0 st1 st2">Giant Panda in 2010, a total </tspan><tspan x="0" y="156" class="st0 st1 st2">of 10 giant pandas have </tspan><tspan x="0" y="187.2" class="st0 st1 st2">been reintroduced, with nine </tspan><tspan x="0" y="218.4" class="st0 st1 st2">of them surviving.</tspan></text>
</g>
<g>
	<text transform="matrix(1 0 0 1 4.4523 932.5632)" class="st0 st11 st13">SUCCESS</text>
</g>
<image style="overflow:visible;" width="71" height="67" xlink:href="7DC7F956A5C72021.png"  transform="matrix(1 0 0 1 386 953.29)">
</image>
<image style="overflow:visible;" width="71" height="67" xlink:href="7DC7F956A5C72020.png"  transform="matrix(1 0 0 1 468.5229 953.29)">
</image>
<image style="overflow:visible;" width="71" height="67" xlink:href="7DC7F956A5C72059.png"  transform="matrix(1 0 0 1 551.0458 953.29)">
</image>
<image style="overflow:visible;" width="71" height="67" xlink:href="7DC7F956A5C7205A.png"  transform="matrix(1 0 0 1 633.5686 953.29)">
</image>
<image style="overflow:visible;" width="71" height="67" xlink:href="7DC7F956A5C7205B.png"  transform="matrix(1 0 0 1 716.0915 953.29)">
</image>
<image style="overflow:visible;" width="71" height="67" xlink:href="7DC7F956A5C7205C.png"  transform="matrix(1 0 0 1 386 1041.16)">
</image>
<image style="overflow:visible;" width="71" height="67" xlink:href="7DC7F956A5C7205D.png"  transform="matrix(1 0 0 1 468.5229 1041.16)">
</image>
<image style="overflow:visible;" width="71" height="67" xlink:href="7DC7F956A5C7205E.png"  transform="matrix(1 0 0 1 551.0458 1041.16)">
</image>
<image style="overflow:visible;" width="71" height="67" xlink:href="7DC7F956A5C7205F.png"  transform="matrix(1 0 0 1 633.5686 1041.16)">
</image>
<path class="st14" d="M734.58,1106.65c-0.24,0-0.48,0-0.71-0.01c-0.02,0-2.36-0.09-3.08-1.39c-0.4-0.71-0.25-1.72,0.45-2.98
	c0.46-0.42,3.71-3.31,6.24-3.91l0.85-0.2l-0.6-0.63c-0.23-0.24-2.34-2.4-3.81-2.55l-0.17-0.02l-0.15,0.09
	c-0.03,0.02-2.6,1.59-4.86,1.59c-0.34,0-0.65-0.04-0.94-0.11c-1.72-0.25-3.74-0.8-4.09-1.27l-0.09-0.12l-0.14-0.05
	c0,0-0.28-0.11-0.5-0.36l-0.04-0.05l-0.15-0.1l0.02-0.11l-0.05-0.17c-0.11-0.43,0.02-0.96,0.39-1.6c0.11-0.12,0.07-0.31,0.04-0.47
	c-0.44-2.14-0.44-4.16,0.01-5.69l0.06-0.19l-0.09-0.18c-0.03-0.06-3.07-6.27-2.05-11.17c0.01,0,2.13-6.19,4.99-8.22l0.66-0.46
	l-0.71-0.38c-0.02-0.01-2.2-1.21-2.84-2.82v-2.93c-0.02-0.56,0.07-2.11,0.66-2.71c0.15-0.15,0.31-0.22,0.51-0.22
	c0.3,0,0.7,0.16,1.16,0.47l1.4,1.04l2.3,1.44l0.26-0.43c0.04-0.06,3.7-5.91,11.03-10.72c0.94-0.62,1.92-1.2,2.9-1.73
	c0.05-0.03,0.16-0.1,0.36-0.19c5.64-2.97,11.79-4.47,18.31-4.47c1.68,0,3.41,0.1,5.13,0.3c0.15,0.01,10.95,0.52,17.39,8.32
	c4.22,5.11,5.69,12.2,4.35,21.06l-0.12,1.21c-0.24,2.27-1.06,9.9-1.71,12.7c-0.77,3.31-5.38,7.6-7.41,8.03
	c-0.87,0.18-2.43,0.37-3.96,0.37l0,0c-2.41,0-4.16-0.45-4.94-1.25c-0.35-0.36-0.51-0.8-0.49-1.34c0.14-3.59,4.5-5.81,4.55-5.83
	l0.22-0.11l0.05-0.24c0.08-0.39,0.76-3.82-0.27-5.12l-0.23-0.28l-0.34,0.13c-0.03,0.01-2.81,1.05-5.09,1.05
	c-0.71,0-1.29-0.1-1.72-0.3l-0.8-0.36l0.09,0.87c0.01,0.11,1.08,11-6.42,12.81l-0.15,0.04l-0.1,0.11
	C759.99,1094.91,749.19,1106.65,734.58,1106.65z"/>
<image style="overflow:visible;" width="786" height="686" xlink:href="2DE70985F5C7A38C.png"  transform="matrix(1 0 0 1 14 269.29)">
</image>
</svg>
