<?xml version="1.0" encoding="utf-8"?>
<!-- Generator: Adobe Illustrator 24.3.2, SVG Export Plug-In . SVG Version: 6.00 Build 0)  -->
<svg version="1.1" id="Layer_1" xmlns="http://www.w3.org/2000/svg" xmlns:xlink="http://www.w3.org/1999/xlink" x="0px" y="0px"
	 viewBox="0 0 795 905.23" style="enable-background:new 0 0 795 905.23;" xml:space="preserve">
<style type="text/css">
	.st0{fill:none;}
	.st1{fill:#231F20;}
	.st2{font-family:'Roboto-Regular';}
	.st3{font-size:20px;}
	.st4{font-family:'Roboto-Black';}
	.st5{font-size:24px;}
	.st6{fill:#6D6E70;}
	.st7{font-size:22px;}
</style>
<image style="overflow:visible;" width="700" height="701" xlink:href="EB5D1B701B348C2A.png"  transform="matrix(1 0 0 1 60.3485 135.6627)">
</image>
<g>
	<rect x="4.35" y="52.51" class="st0" width="353" height="257.15"/>
	<text transform="matrix(1 0 0 1 4.3485 67.5126)"><tspan x="0" y="0" class="st1 st2 st3">Even giant pandas have have a shorter </tspan><tspan x="0" y="24" class="st1 st2 st3">gut (typical of carnivores), they like </tspan><tspan x="0" y="48" class="st1 st2 st3">eating bamboo and there are more than </tspan><tspan x="0" y="72" class="st1 st2 st3">20 species. Pandas prefer bamboo </tspan><tspan x="0" y="96" class="st1 st2 st3">roots, shoots, and leaves, especially </tspan><tspan x="0" y="120" class="st1 st2 st3">shoots.</tspan></text>
</g>
<g>
	<rect x="438.35" y="773.51" class="st0" width="353" height="107.15"/>
	<text transform="matrix(1 0 0 1 438.3484 788.5123)"><tspan x="0" y="0" class="st1 st2 st3">With very little nutritional value in </tspan><tspan x="0" y="24" class="st1 st2 st3">bamboo, pandas must eat 23–40 kg </tspan><tspan x="0" y="48" class="st1 st2 st3">(50–90 lb) every day to meet their </tspan><tspan x="0" y="72" class="st1 st2 st3">energy needs.</tspan></text>
</g>
<g>
	<text transform="matrix(1 0 0 1 4.3485 32.7889)" class="st1 st4 st5">FAVOURITE FOOD</text>
</g>
<g>
	<text transform="matrix(1 0 0 1 464.4793 213.8021)" class="st6 st2 st7">Leaves</text>
</g>
<g>
	<text transform="matrix(1 0 0 1 173.2865 402.9369)" class="st6 st2 st7">Culm</text>
</g>
<image style="overflow:visible;" width="72" height="363" xlink:href="EB5D1B701B348C2E.jpg"  transform="matrix(1.1086 0 0 1.1086 209.1975 478.2231)">
</image>
<g>
	<text transform="matrix(1 0 0 1 281.0091 567.8646)" class="st6 st2 st7">Shoots</text>
</g>
</svg>
