<?xml version="1.0" encoding="utf-8"?>
<!-- Generator: Adobe Illustrator 24.3.2, SVG Export Plug-In . SVG Version: 6.00 Build 0)  -->
<svg version="1.1" id="Layer_1" xmlns="http://www.w3.org/2000/svg" xmlns:xlink="http://www.w3.org/1999/xlink" x="0px" y="0px"
	 viewBox="0 0 1920 2452" style="enable-background:new 0 0 1920 2452;" xml:space="preserve">
<style type="text/css">
	.st0{fill:none;stroke:#231F20;stroke-width:0.7528;stroke-miterlimit:10;}
	.st1{fill:none;stroke:#808184;stroke-width:0.75;stroke-miterlimit:10;stroke-dasharray:1.5,1.5;}
	.st2{fill:none;}
	.st3{fill:#FFFFFF;}
	.st4{font-family:'Roboto-Regular';}
	.st5{font-size:26px;}
	.st6{font-family:'Roboto-Black';}
	.st7{font-size:36px;}
	.st8{fill:#231F20;}
	.st9{fill:none;stroke:#231F20;stroke-width:0.9;stroke-miterlimit:10;}
	.st10{fill:none;stroke:#FFFFFF;stroke-width:1.5;stroke-miterlimit:10;}
	.st11{fill:none;stroke:#F05A28;stroke-width:3;stroke-miterlimit:10;}
	.st12{fill:#F05A28;}
	.st13{fill:none;stroke:#1D1D1B;stroke-miterlimit:10;}
	.st14{font-family:'BentonSans-Book';}
</style>
<image style="overflow:visible;" width="1783" height="1239" xlink:href="DF9DFC09C8418CE.jpg"  transform="matrix(0.36 0 0 0.36 1229.76 205.96)">
</image>
<path class="st0" d="M1533.28,458.59v-6.57c0-14.02,11.37-25.39,25.39-25.39h150.76c14.02,0,25.39,11.37,25.39,25.39v14.93"/>
<line class="st0" x1="1634.05" y1="426.64" x2="1634.05" y2="395.67"/>
<image style="overflow:visible;enable-background:new    ;" width="1881" height="2401" xlink:href="DF9DFC09C8418CF.png"  transform="matrix(0.9995 0 0 0.9995 17.5709 0.0526)">
</image>
<line class="st1" x1="3593.6" y1="588.04" x2="6023.4" y2="588.04"/>
<line class="st1" x1="3593.6" y1="1715.3" x2="6023.4" y2="1715.3"/>
<rect x="377.53" y="1098.67" class="st2" width="222.68" height="382.79"/>
<text transform="matrix(1 0 0 1 377.5298 1118.1671)"><tspan x="0" y="0" class="st3 st4 st5">If you observe </tspan><tspan x="0" y="31.2" class="st3 st4 st5">pandas holding </tspan><tspan x="0" y="62.4" class="st3 st4 st5">bamboo, they use </tspan><tspan x="0" y="93.6" class="st3 st4 st5">their five fingers to </tspan><tspan x="0" y="124.8" class="st3 st4 st5">grip and their </tspan><tspan x="0" y="156" class="st3 st4 st5">thumb as a hook.</tspan></text>
<g>
	<text transform="matrix(1 0 0 1 878.6698 1062.5994)" class="st3 st6 st7">COLOURS</text>
</g>
<g>
	<rect x="877.75" y="1098.67" class="st2" width="288.94" height="203.99"/>
	<text transform="matrix(1 0 0 1 877.7495 1118.1671)"><tspan x="0" y="0" class="st3 st4 st5">Panda’s bodies are </tspan><tspan x="0" y="31.2" class="st3 st4 st5">generally black and </tspan><tspan x="0" y="62.4" class="st3 st4 st5">white, and their ears, </tspan><tspan x="0" y="93.6" class="st3 st4 st5">eyes, shoulders, limbs </tspan><tspan x="0" y="124.8" class="st3 st4 st5">and tails are black.</tspan></text>
</g>
<g>
	<rect x="365.88" y="2012.17" class="st2" width="320.6" height="190.7"/>
	<text transform="matrix(1 0 0 1 365.8834 2031.6716)"><tspan x="0" y="0" class="st3 st4 st5">A panda needs to consume </tspan><tspan x="0" y="31.2" class="st3 st4 st5">a comparatively large </tspan><tspan x="0" y="62.4" class="st3 st4 st5">amount of food — from </tspan><tspan x="0" y="93.6" class="st3 st4 st5">31.7 kg to 45 kg of bamboo </tspan><tspan x="0" y="124.8" class="st3 st4 st5">each day — to get all its </tspan><tspan x="0" y="156" class="st3 st4 st5">nutrients.</tspan></text>
</g>
<g>
	<rect x="1205.33" y="1098.67" class="st2" width="335.03" height="223.29"/>
	<text transform="matrix(1 0 0 1 1205.3292 1118.1671)"><tspan x="0" y="0" class="st3 st4 st5">Although there is not a </tspan><tspan x="0" y="31.2" class="st3 st4 st5">confirmed theory, one of </tspan><tspan x="0" y="62.4" class="st3 st4 st5">them says that the shapes of </tspan><tspan x="0" y="93.6" class="st3 st4 st5">the black parts are often </tspan><tspan x="0" y="124.8" class="st3 st4 st5">used to distinguish </tspan><tspan x="0" y="156" class="st3 st4 st5">individuals.</tspan></text>
</g>
<g>
	<rect x="919.51" y="1543.65" class="st2" width="204.28" height="163.37"/>
	<text transform="matrix(1 0 0 1 919.5089 1563.1494)"><tspan x="0" y="0" class="st8 st4 st5">Female giant </tspan><tspan x="0" y="31.2" class="st8 st4 st5">pandas give birth </tspan><tspan x="0" y="62.4" class="st8 st4 st5">90 to 180 days </tspan><tspan x="0" y="93.6" class="st8 st4 st5">after mating.</tspan></text>
</g>
<g>
	<rect x="1145.45" y="1543.65" class="st2" width="204.28" height="163.37"/>
	<text transform="matrix(1 0 0 1 1145.4453 1563.1494)"><tspan x="0" y="0" class="st8 st4 st5">Generally, giant </tspan><tspan x="0" y="31.2" class="st8 st4 st5">pandas only give </tspan><tspan x="0" y="62.4" class="st8 st4 st5">birth to one or </tspan><tspan x="0" y="93.6" class="st8 st4 st5">two cubs at a </tspan><tspan x="0" y="124.8" class="st8 st4 st5">time.</tspan></text>
</g>
<g>
	<rect x="1401.13" y="1543.65" class="st2" width="335.7" height="243.81"/>
	<text transform="matrix(1 0 0 1 1401.1289 1563.1494)"><tspan x="0" y="0" class="st3 st4 st5">Faced with danger, pandas </tspan><tspan x="0" y="31.2" class="st3 st4 st5">can only carry one cub at a </tspan><tspan x="0" y="62.4" class="st3 st4 st5">time, therefore, in the wild, </tspan><tspan x="0" y="93.6" class="st3 st4 st5">panda mothers can only </tspan><tspan x="0" y="124.8" class="st3 st4 st5">nurse one cub at a time.</tspan></text>
</g>
<path class="st9" d="M3450.07,1769.03c0,0-67.52,27.06-67.52,105.19"/>
<path class="st10" d="M420.17,1992.51c0,0,1.45-71.68-54.29-105.03"/>
<g>
	<g>
		<line class="st11" x1="986.65" y1="1909.47" x2="986.65" y2="2405.98"/>
		<g>
			<path class="st12" d="M972.25,2385.48c0.7-0.45,1.63-0.24,2.07,0.46l12.33,19.36l12.33-19.36c0.45-0.7,1.37-0.91,2.07-0.46
				s0.9,1.38,0.46,2.07l-13.59,21.34c-0.28,0.43-0.75,0.69-1.27,0.69s-0.99-0.26-1.27-0.69l-13.59-21.34
				c-0.16-0.25-0.23-0.53-0.23-0.81C971.55,2386.25,971.8,2385.77,972.25,2385.48z"/>
		</g>
	</g>
</g>
<g>
	<rect x="242.63" y="349.5" class="st2" width="263.9" height="132.96"/>
	<text transform="matrix(1 0 0 1 242.6323 369.004)"><tspan x="0" y="0" class="st8 st4 st5">Their ears are not </tspan><tspan x="0" y="31.2" class="st8 st4 st5">flexible enough to </tspan><tspan x="0" y="62.4" class="st8 st4 st5">cock forward or </tspan><tspan x="0" y="93.6" class="st8 st4 st5">flatten.</tspan></text>
</g>
<path class="st13" d="M389.83,332.42c0,0,30.01-130.03,190.05-120.03"/>
<g>
	<rect x="1441.62" y="658.08" class="st2" width="431.9" height="389.21"/>
	<text transform="matrix(1 0 0 1 1441.6216 677.5773)"><tspan x="0" y="0" class="st8 st4 st5">The bite of a giant panda is </tspan><tspan x="0" y="31.2" class="st8 st4 st5">exceptionally strong, second only to </tspan><tspan x="0" y="62.4" class="st8 st4 st5">polar bears among bears. The action </tspan><tspan x="0" y="93.6" class="st8 st4 st5">of eating bamboo may look basic, </tspan><tspan x="0" y="124.8" class="st8 st4 st5">but bamboo is an extremely hard and </tspan><tspan x="0" y="156" class="st8 st4 st5">dense material. Their skilled action </tspan><tspan x="0" y="187.2" class="st8 st4 st5">of eating bamboo demonstrates their </tspan><tspan x="0" y="218.4" class="st8 st4 st5">sharp teeth and strong bite.</tspan></text>
</g>
<g>
	<text transform="matrix(1 0 0 1 1441.6216 225.0595)" class="st8 st6 st7">STRONG BITE</text>
</g>
<rect x="1553.98" y="304.66" class="st2" width="351.63" height="270.24"/>
<text transform="matrix(1 0 0 1 1553.9854 323.8972)"><tspan x="0" y="0" class="st8 st14 st5">They have large molar teeth </tspan><tspan x="0" y="31.2" class="st8 st14 st5">and strong jaw muscles for </tspan><tspan x="0" y="62.4" class="st8 st14 st5">crushing tough bamboo.</tspan></text>
</svg>
