<?xml version="1.0" encoding="utf-8"?>
<!-- Generator: Adobe Illustrator 24.3.2, SVG Export Plug-In . SVG Version: 6.00 Build 0)  -->
<svg version="1.1" id="Layer_1" xmlns="http://www.w3.org/2000/svg" xmlns:xlink="http://www.w3.org/1999/xlink" x="0px" y="0px"
	 viewBox="0 0 1920 2452" style="enable-background:new 0 0 1920 2452;" xml:space="preserve">
<style type="text/css">
	.st0{fill:none;}
	.st1{fill:#231F20;}
	.st2{font-family:'Roboto-Regular';}
	.st3{font-size:24px;}
	.st4{fill:#FFFFFF;}
	.st5{fill:#F0592C;}
	.st6{font-family:'Roboto-Black';}
	.st7{font-size:44px;}
	.st8{font-family:'Roboto-Bold';}
	.st9{font-size:32px;}
	.st10{fill:none;stroke:#231F20;stroke-width:0.3;stroke-miterlimit:10;}
	.st11{clip-path:url(#SVGID_2_);}
	.st12{opacity:0;fill:#FFFFFF;}
	.st13{opacity:0.0323;fill:#FFFFFF;}
	.st14{opacity:0.0645;fill:#FFFFFF;}
	.st15{opacity:0.0968;fill:#FFFFFF;}
	.st16{opacity:0.129;fill:#FFFFFF;}
	.st17{opacity:0.1613;fill:#FFFFFF;}
	.st18{opacity:0.1935;fill:#FFFFFF;}
	.st19{opacity:0.2258;fill:#FFFFFF;}
	.st20{opacity:0.2581;fill:#FFFFFF;}
	.st21{opacity:0.2903;fill:#FFFFFF;}
	.st22{opacity:0.3226;fill:#FFFFFF;}
	.st23{opacity:0.3548;fill:#FFFFFF;}
	.st24{opacity:0.3871;fill:#FFFFFF;}
	.st25{opacity:0.4194;fill:#FFFFFF;}
	.st26{opacity:0.4516;fill:#FFFFFF;}
	.st27{opacity:0.4839;fill:#FFFFFF;}
	.st28{opacity:0.5161;fill:#FFFFFF;}
	.st29{opacity:0.5484;fill:#FFFFFF;}
	.st30{opacity:0.5806;fill:#FFFFFF;}
	.st31{opacity:0.6129;fill:#FFFFFF;}
	.st32{opacity:0.6452;fill:#FFFFFF;}
	.st33{opacity:0.6774;fill:#FFFFFF;}
	.st34{opacity:0.7097;fill:#FFFFFF;}
	.st35{opacity:0.7419;fill:#FFFFFF;}
	.st36{opacity:0.7742;fill:#FFFFFF;}
	.st37{opacity:0.8065;fill:#FFFFFF;}
	.st38{opacity:0.8387;fill:#FFFFFF;}
	.st39{opacity:0.871;fill:#FFFFFF;}
	.st40{opacity:0.9032;fill:#FFFFFF;}
	.st41{opacity:0.9355;fill:#FFFFFF;}
	.st42{opacity:0.9677;fill:#FFFFFF;}
	.st43{fill:none;stroke:#231F20;stroke-miterlimit:10;}
	.st44{opacity:0.6;}
	.st45{fill:#F05A28;}
	.st46{fill:none;stroke:#FFFFFF;stroke-miterlimit:10;}
	.st47{fill:none;stroke:#F05A28;stroke-width:4;stroke-miterlimit:10;}
</style>
<image style="overflow:visible;" width="1880" height="2400" xlink:href="DF9DFC09C8418CF.png"  transform="matrix(1 0 0 1 17.638 -19.0279)">
</image>
<rect x="1186.12" y="28.8" class="st0" width="263.07" height="97.57"/>
<text transform="matrix(1 0 0 1 1186.1233 46.7944)"><tspan x="0" y="0" class="st1 st2 st3">Their ears are not </tspan><tspan x="0" y="28.8" class="st1 st2 st3">flexible enough to cock </tspan><tspan x="0" y="57.6" class="st1 st2 st3">forward or flatten</tspan></text>
<g>
	<rect x="873.71" y="1108.71" class="st0" width="267.92" height="164.09"/>
	<text transform="matrix(1 0 0 1 873.7142 1126.7122)"><tspan x="0" y="0" class="st4 st2 st3">Pandas are generally </tspan><tspan x="0" y="28.8" class="st4 st2 st3">black and white, and </tspan><tspan x="0" y="57.6" class="st4 st2 st3">their ears, eyes, </tspan><tspan x="0" y="86.4" class="st4 st2 st3">shoulders, limbs and </tspan><tspan x="0" y="115.2" class="st4 st2 st3">tails are black.</tspan></text>
</g>
<g>
	<rect x="1167.95" y="1108.71" class="st0" width="335.03" height="223.29"/>
	<text transform="matrix(1 0 0 1 1167.9534 1126.7124)"><tspan x="0" y="0" class="st4 st2 st3">Although there is not a </tspan><tspan x="0" y="28.8" class="st4 st2 st3">confirmed theory, one of them </tspan><tspan x="0" y="57.6" class="st4 st2 st3">says that the shapes of the </tspan><tspan x="0" y="86.4" class="st4 st2 st3">black parts are often used to </tspan><tspan x="0" y="115.2" class="st4 st2 st3">distinguish individuals.</tspan></text>
</g>
<g>
	<text transform="matrix(1 0 0 1 538.2683 105.8025)" class="st5 st6 st7">THE GIANT PANDA </text>
</g>
<rect x="101.06" y="253.04" class="st0" width="381.58" height="255.19"/>
<text transform="matrix(1 0 0 1 101.0581 271.0396)"><tspan x="0" y="0" class="st1 st2 st3">Giant pandas have six fingers. Their </tspan><tspan x="0" y="28.8" class="st1 st2 st3">thumbs cannot move, and the other </tspan><tspan x="0" y="57.6" class="st1 st2 st3">five fingers are arranged in a </tspan><tspan x="0" y="86.4" class="st1 st2 st3">straight line.</tspan></text>
<rect x="101.06" y="855.67" class="st0" width="226.58" height="255.19"/>
<text transform="matrix(1 0 0 1 101.0579 873.6667)"><tspan x="0" y="0" class="st1 st2 st3">Unlike other bears, </tspan><tspan x="0" y="28.8" class="st1 st2 st3">the panda&apos;s sixth </tspan><tspan x="0" y="57.6" class="st1 st2 st3">digit plays the role of </tspan><tspan x="0" y="86.4" class="st1 st2 st3">an opposable thumb, </tspan><tspan x="0" y="115.2" class="st1 st2 st3">which allows it to </tspan><tspan x="0" y="144" class="st1 st2 st3">work with the other </tspan><tspan x="0" y="172.8" class="st1 st2 st3">digits and hold </tspan><tspan x="0" y="201.6" class="st1 st2 st3">bamboo efficiently.</tspan></text>
<g>
	<text transform="matrix(1 0 0 1 101.0578 220.6997)" class="st1 st8 st9">False thumb</text>
</g>
<g>
	<g>
		<path class="st10" d="M114.27,372.59c8.56,16.6,17.13,33.2,25.69,49.8c1.58,3.06,3.18,6.15,5.38,8.79
			c5.08,6.09,12.78,9.19,19.86,12.78c11.2,5.68,21.52,13.11,30.45,21.93c5.31,5.24,10.19,8.74,15.69,13.78
			c2.8,2.57,5.84,5.7,5.56,9.49c-0.24,3.14-2.71,5.6-5.11,7.65c-16.03,13.66-35.45,22.62-53.16,34.02
			c-17.71,11.41-34.54,26.46-40.7,46.6c0.54-1.78-13.55-15.7-15.47-17.65c-6.62-6.7-11.89-14.51-16.34-22.78
			c-8.95-16.66-14.41-34.91-21.28-52.46c-11.56-29.52-27.69-57.24-47.64-81.87"/>
		<path class="st10" d="M130.34,437.86c-12.92,0.45-22.24,12.35-34.09,17.52c-5.58,2.43-11.99,3.5-16.42,7.67"/>
		<path class="st10" d="M115.01,477.02c2.87,6.13,5.07,12.57,6.54,19.17"/>
	</g>
	<g>
		<defs>
			<path id="SVGID_1_" d="M106.34,823.11c0.71,0.58-0.75,1.61-1.39,0.96s-0.41-1.73-0.16-2.62c5.28-18.5,0.69-38.19-3.37-57
				c-5.36-24.81-9.77-49.82-13.23-74.97c-1.68-12.24-1.57-25.71-4.48-37.67c-2.48-10.2-7.45-19.49-3.38-30.38
				c3.38-9.04,12.02-14.9,17.75-22.66c6.78-9.17,9.35-21.33,6.86-32.46c-1.11-4.97-3.17-9.7-4.1-14.7
				c-2.49-13.34,3.16-26.71,8.68-39.11c-1.73,2.59-3.47,5.18-5.2,7.77c1.97-4.29,3.95-8.58,5.92-12.88
				c3.21,0.65,6.06,2.88,7.45,5.84c3.57-8.06,7.13-16.12,10.7-24.18c0.55-1.25,1.11-2.5,1.66-3.75c4.12-9.3,8.23-18.6,12.63-27.77
				c1.84,1.44,3.67,2.87,5.51,4.31c4.25-2.87,7.22-7.56,7.99-12.63c3.32,2.29,6.64,4.59,9.96,6.88c2.43-6.02,4.86-12.03,7.29-18.05
				c2.22,0.57,4.16,2.17,5.14,4.25c1.04-0.98,2.08-1.95,3.12-2.93c1.52,0.58,2.87,1.61,3.83,2.92c0.88-1.87,2.15-3.56,3.71-4.92
				c2.04,1.89,3.56,4.33,4.35,6.99c3.61-3.2,7.72-5.84,12.14-7.79c5.09,6.11,13.95,7.39,20.39,12.05
				c8.71,6.29,11.81,17.62,14.33,28.06c3.46-0.34,6.15,2.75,9.05,4.68c3.75,2.49,9.3,3.33,13.57,1.91
				c0.54,5.74,3.95,11.15,8.91,14.1c2.72,1.62,5.81,2.52,8.5,4.18c4.11,2.55,6.94,6.67,10.31,10.13c3.37,3.46,7.94,6.48,12.71,5.74
				c-3.26,1.04-3.06,5.96-1.02,8.71c2.05,2.75,5.23,4.72,6.42,7.93c3.13,8.46-9.48,18.3-4.06,25.51c-3.38,2.94-6.47,6.19-9.24,9.71
				c-1.2,1.53-2.4,3.34-2.07,5.25c0.33,1.91,3.12,3.21,4.26,1.64c1.79,5.72,3.07,11.61,3.81,17.56c0.67,5.37,0.91,10.81,2.03,16.1
				c1.55,7.3,4.8,14.23,9.42,20.08c-3.42,2.72-4.13,7.75-3.13,12c1,4.25,3.37,8.02,5.22,11.98c3.8,8.13,5.4,17.27,4.59,26.21
				c-0.13,1.47-0.34,2.97-1,4.29c-0.83,1.67-2.3,2.92-3.61,4.25c-6.6,6.73-9.4,16.97-7.15,26.12c0.45,1.82,1.08,3.7,0.69,5.53
				c-1.16,5.36-8.82,5.23-14.11,3.78c2.98,4.27,0.29,10.11-2.68,14.39c-2.97,4.28-6.4,9.35-4.65,14.26
				c-3.98-0.77-7.78,2.73-8.83,6.65c-1.05,3.92-0.1,8.06,0.85,12c-4.63-0.75-9.6,1.37-12.26,5.24c-2.66,3.86-2.86,9.27-0.5,13.32
				c-1.3,9.14,1.37,14.14,4.38,22.86c1.33,3.85,2.66,7.7,3.98,11.55"/>
		</defs>
		<clipPath id="SVGID_2_">
			<use xlink:href="#SVGID_1_"  style="overflow:visible;"/>
		</clipPath>
		<g id="rH7W1r_1_" class="st11">
			
				<image style="overflow:visible;" width="650" height="443" id="rH7W1r_3_" xlink:href="DF9DFC09C8418CD.jpg"  transform="matrix(0 0.6977 -0.6977 0 360.1694 374.1823)">
			</image>
		</g>
		<g class="st11">
			<rect x="63.6" y="787.49" class="st12" width="256.34" height="40.54"/>
			<rect x="63.6" y="788.53" class="st13" width="256.34" height="40.54"/>
			<rect x="63.6" y="789.56" class="st14" width="256.34" height="40.54"/>
			<rect x="63.6" y="790.6" class="st15" width="256.34" height="40.54"/>
			<rect x="63.6" y="791.64" class="st16" width="256.34" height="40.54"/>
			<rect x="63.6" y="792.67" class="st17" width="256.34" height="40.54"/>
			<rect x="63.6" y="793.71" class="st18" width="256.34" height="40.54"/>
			<rect x="63.6" y="794.75" class="st19" width="256.34" height="40.54"/>
			<rect x="63.6" y="795.78" class="st20" width="256.34" height="40.54"/>
			<rect x="63.6" y="796.82" class="st21" width="256.34" height="40.54"/>
			<rect x="63.6" y="797.86" class="st22" width="256.34" height="40.54"/>
			<rect x="63.6" y="798.9" class="st23" width="256.34" height="40.54"/>
			<rect x="63.6" y="799.93" class="st24" width="256.34" height="40.54"/>
			<rect x="63.6" y="800.97" class="st25" width="256.34" height="40.54"/>
			<rect x="63.6" y="802.01" class="st26" width="256.34" height="40.54"/>
			<rect x="63.6" y="803.04" class="st27" width="256.34" height="40.54"/>
			<rect x="63.6" y="804.08" class="st28" width="256.34" height="40.54"/>
			<rect x="63.6" y="805.12" class="st29" width="256.34" height="40.54"/>
			<rect x="63.6" y="806.15" class="st30" width="256.34" height="40.54"/>
			<rect x="63.6" y="807.19" class="st31" width="256.34" height="40.54"/>
			<rect x="63.6" y="808.23" class="st32" width="256.34" height="40.54"/>
			<rect x="63.6" y="809.26" class="st33" width="256.34" height="40.54"/>
			<rect x="63.6" y="810.3" class="st34" width="256.34" height="40.54"/>
			<rect x="63.6" y="811.34" class="st35" width="256.34" height="40.54"/>
			<rect x="63.6" y="812.37" class="st36" width="256.34" height="40.54"/>
			<rect x="63.6" y="813.41" class="st37" width="256.34" height="40.54"/>
			<rect x="63.6" y="814.45" class="st38" width="256.34" height="40.54"/>
			<rect x="63.6" y="815.48" class="st39" width="256.34" height="40.54"/>
			<rect x="63.6" y="816.52" class="st40" width="256.34" height="40.54"/>
			<rect x="63.6" y="817.56" class="st41" width="256.34" height="40.54"/>
			<rect x="63.6" y="818.6" class="st42" width="256.34" height="40.54"/>
			<rect x="63.6" y="819.63" class="st4" width="256.34" height="40.54"/>
		</g>
	</g>
	<path class="st43" d="M104.95,824.07c-0.64-0.66-0.41-1.73-0.16-2.62c5.28-18.5,0.69-38.19-3.37-57
		c-5.36-24.81-9.77-49.82-13.23-74.97c-1.68-12.24-1.57-25.71-4.48-37.67c-2.48-10.2-7.45-19.49-3.38-30.38
		c3.38-9.04,12.02-14.9,17.75-22.66c6.78-9.17,9.35-21.33,6.86-32.46c-1.11-4.97-3.17-9.7-4.1-14.7
		c-2.49-13.34,3.16-26.71,8.68-39.11c-1.73,2.59-3.47,5.18-5.2,7.77c1.97-4.29,3.95-8.58,5.92-12.88c3.21,0.65,6.06,2.88,7.45,5.84
		c3.57-8.06,7.13-16.12,10.7-24.18c0.55-1.25,1.11-2.5,1.66-3.75c4.12-9.3,8.23-18.6,12.63-27.77c1.84,1.44,3.67,2.87,5.51,4.31
		c4.25-2.87,7.22-7.56,7.99-12.63c3.32,2.29,6.64,4.59,9.96,6.88c2.43-6.02,4.86-12.03,7.29-18.05c2.22,0.57,4.16,2.17,5.14,4.25
		c1.04-0.98,2.08-1.95,3.12-2.93c1.52,0.58,2.87,1.61,3.83,2.92c0.88-1.87,2.15-3.56,3.71-4.92c2.04,1.89,3.56,4.33,4.35,6.99
		c3.61-3.2,7.72-5.84,12.14-7.79c5.09,6.11,13.95,7.39,20.39,12.05c8.71,6.29,11.81,17.62,14.33,28.06
		c3.46-0.34,6.15,2.75,9.05,4.68c3.75,2.49,9.3,3.33,13.57,1.91c0.54,5.74,3.95,11.15,8.91,14.1c2.72,1.62,5.81,2.52,8.5,4.18
		c4.11,2.55,6.94,6.67,10.31,10.13c3.37,3.46,7.94,6.48,12.71,5.74c-3.26,1.04-3.06,5.96-1.02,8.71c2.05,2.75,5.23,4.72,6.42,7.93
		c3.13,8.46-9.48,18.3-4.06,25.51c-3.38,2.94-6.47,6.19-9.24,9.71c-1.2,1.53-2.4,3.34-2.07,5.25c0.33,1.91,3.12,3.21,4.26,1.64
		c1.79,5.72,3.07,11.61,3.81,17.56c0.67,5.37,0.91,10.81,2.03,16.1c1.55,7.3,4.8,14.23,9.42,20.08c-3.42,2.72-4.13,7.75-3.13,12
		c1,4.25,3.37,8.02,5.22,11.98c3.8,8.13,5.4,17.27,4.59,26.21c-0.13,1.47-0.34,2.97-1,4.29c-0.83,1.67-2.3,2.92-3.61,4.25
		c-6.6,6.73-9.4,16.97-7.15,26.12c0.45,1.82,1.08,3.7,0.69,5.53c-1.16,5.36-8.82,5.23-14.11,3.78c2.98,4.27,0.29,10.11-2.68,14.39
		c-2.97,4.28-6.4,9.35-4.65,14.26c-3.98-0.77-7.78,2.73-8.83,6.65c-1.05,3.92-0.1,8.06,0.85,12c-4.63-0.75-9.6,1.37-12.26,5.24
		c-2.66,3.86-2.86,9.27-0.5,13.32c-1.3,9.14,1.37,14.14,4.38,22.86c1.33,3.85,2.66,7.7,3.98,11.55"/>
	<g class="st44">
		<path class="st45" d="M145.6,691.49c-1.28-1.71-1.94-3.83-3.28-5.49c-2.34-2.89-6.25-3.87-9.42-5.82
			c-3.68-2.27-6.34-5.84-8.7-9.47c-4.18-6.44-7.69-13.31-10.45-20.47c-0.92-2.38-1.76-4.94-1.22-7.43c0.54-2.49,3.01-4.73,5.47-4.1
			c2.26,0.58,3.4,3.13,3.69,5.44c0.29,2.31,0.08,4.75,1.02,6.88c1.26,2.83,4.31,4.46,7.33,5.14c3.02,0.69,6.16,0.64,9.2,1.24
			c7.22,1.42,24.01,10.1,23.83,18.81C162.96,681.56,150.95,698.68,145.6,691.49z"/>
		<path class="st4" d="M180.21,654.96c-1.19,6-10.58,6.93-12.52,12.73c-0.93,2.77,0.44,6.11,3.03,7.45
			c3.21,1.65,7.12,0.24,10.31-1.46c3.21-1.71,6.49-3.97,7.62-7.43c0.88-2.67,0.23-5.78-1.63-7.88s-4.88-3.11-7.63-2.55"/>
		<path class="st4" d="M167.73,501.09c-3.14,1.44-6.79,1.72-10.12,0.77c-2.44,2.11-5.06,5.11-4.02,8.16
			c0.67,1.97,2.72,3.17,4.76,3.6c2.04,0.43,4.15,0.26,6.22,0.44c1.67,0.14,3.38,0.51,5,0.07c3.16-0.85,4.82-4.75,3.92-7.9
			s-3.77-5.43-6.88-6.46"/>
		<path class="st4" d="M195.95,512.42c-1.79-1.32-4.8-1.67-9.84-0.57c-12.38,2.72-5.14,13.74-5.02,23.16
			c0.04,2.87,0.83,6.02,3.19,7.65c2.01,1.39,4.74,1.34,7.03,0.47c2.28-0.86,4.22-2.43,6.12-3.96c0.91-0.74,1.88-1.58,2.08-2.73
			c0.15-0.85-0.15-1.69-0.39-2.52C196.86,526.05,200.66,515.89,195.95,512.42z"/>
		<path class="st4" d="M152.81,545.2c0.05,2.04,0.35,4.51,2.21,5.36c1.74-2.65,5.48-3,8.63-2.59c10.53,1.38,11.1-1.51,10.07-10.78
			c-0.99-8.95,2.13-27-12.69-24.46C146.92,515.15,152.6,535.62,152.81,545.2z"/>
		<path class="st4" d="M183.65,550.82c0.42,2.22,1.43,4.28,2.12,6.43c2.6,8.09,0.59,16.89,1.44,25.34c0.22,2.24,0.7,4.57,2.16,6.28
			s4.16,2.54,6.03,1.29c1.2-0.8,1.8-2.23,2.76-3.31c0.96-1.08,2.78-1.76,3.78-0.72c0.41,0.43,0.56,1.03,0.82,1.56
			c0.72,1.52,2.42,2.51,4.09,2.4c3.17-4.01,2.52-9.75,1.54-14.77c-1.75-8.96-3.67-23.75-10.53-30.44
			C192.67,539.82,181.97,541.85,183.65,550.82z"/>
		<path class="st4" d="M125.89,576.44c-1.88,0.47-10.37,1.36-10.87,0.89c-0.39-0.36-0.58-0.88-0.77-1.38
			c-2.55-6.91-9.98-18.86-3.27-25.43c2.54-2.49,6.37-3.45,9.86-2.82c5.03,0.91,9.28,5.06,10.48,10.03c1.13,4.67-0.7,15.63-5.1,18.59
			C126.17,576.36,126.06,576.4,125.89,576.44z"/>
		<path class="st4" d="M163.35,599c0.34,0.68,0.79,1.42,1.53,1.61c1.54,0.4,2.45-1.69,3.81-2.49c2.83-1.67,6.29,2.61,9.39,1.51
			c2.62-0.93,2.57-4.62,2.02-7.34c-2.49-12.31-4.98-24.63-7.48-36.94c-0.23-1.13-0.46-2.28-0.94-3.33
			c-2.17-4.78-9.87-6.86-14.31-3.9c-5.49,3.66-2.74,8.57-1.23,13.7C159.68,573.81,157.74,587.67,163.35,599z"/>
		<path class="st4" d="M122.4,598.74c1.31,4.1,3.02,8.66,6.95,10.42c2.63,1.17,5.65,0.79,8.5,0.39c2.31-0.33,4.85-0.79,6.27-2.64
			c0.82-1.07,1.12-2.47,1.17-3.82c0.29-9.61-13.44-25.19-22.45-28.39C108.42,569.57,120.37,592.4,122.4,598.74z"/>
		<path class="st4" d="M181.06,511.8c-0.75,1.54-3.27,1.34-4.29-0.04c-1.02-1.38-0.86-3.31-0.34-4.94c0.52-1.63,1.36-3.18,1.6-4.88
			c0.22-1.54-0.05-3.23,0.75-4.57c0.95-1.59,3.02-2.05,4.87-2.27c3.98-0.46,8.02-0.49,12.01-0.09c0.84,0.09,1.78,0.24,2.3,0.91
			c0.37,0.48,0.45,1.11,0.51,1.71c0.37,3.5,0.73,7.01,1.1,10.51c-5.97,2.38-12.33,3.79-18.75,4.14c-0.45,0.02-0.96,0.02-1.28-0.29
			c-0.32-0.31-0.17-1.03,0.28-1"/>
		<path class="st4" d="M173.82,624.16c0.43,3.4-1.1,6.87-0.46,10.24c0.41,2.17,1.69,4.07,2.94,5.9c2.07,3.03,4.14,6.07,6.21,9.1
			c1,1.46,2.11,3.01,3.8,3.55c2.92,0.93,5.79-1.59,8.84-1.89c1.23-0.12,2.5,0.12,3.69-0.2c2.55-0.69,3.79-3.79,3.37-6.4
			s-2.01-4.85-3.45-7.07c-5.46-8.36-9.38-17.73-11.49-27.49c-0.52-2.42-0.99-4.97-2.54-6.89c-4.15-5.15-14.1-7.7-17.38-1.09
			C163.09,610.5,172.86,616.56,173.82,624.16z"/>
		<path class="st4" d="M218.14,515.43c-3.63-0.63-8.44-0.62-9.72,2.82c-0.99,2.65,0.96,5.37,2.23,7.89
			c3.35,6.61,2.35,14.81,5.85,21.34c3.84-0.75,7.68-1.51,11.51-2.26c1.16-0.23,2.37-0.48,3.26-1.26c1.48-1.28,1.57-3.61,0.88-5.44
			c-0.69-1.83-1.98-3.36-2.99-5.04c-2.01-3.36-2.85-7.4-2.33-11.28c0.27-2.04,0.88-4.2,0.05-6.08c-1.02-2.32-3.84-3.25-6.37-3.39
			c-4.81-0.27-9.7,1.42-13.3,4.62"/>
		<path class="st4" d="M220.75,513.19c-2.78-0.12-5.56-0.24-8.35-0.36c-1.28-0.06-2.64-0.14-3.66-0.92
			c-1.65-1.27-1.64-3.75-1.19-5.79c0.44-2.03,1.15-4.2,0.38-6.13c4.26-1.07,8.51-2.13,12.77-3.2c1.49,2.53,3.01,5.13,3.48,8.02
			c0.47,2.89-0.34,6.19-2.73,7.88c-2.22,1.57-5.27,1.42-7.85,0.56"/>
		<path class="st4" d="M111.19,533.65c-4.03,2.51-10.95,18.75-1.44,18.17c2.55-0.15,4.63-2.32,7.18-2.55
			c2.55-0.23,5.78,1.28,7.31-0.77C129.48,541.46,118.89,528.87,111.19,533.65z"/>
		<path class="st4" d="M263.64,509.69c-2.58,0.59-5.17,1.19-7.75,1.78c-0.64,0.15-1.27,0.29-1.89,0.51
			c-4.84,1.67-7.52,7.86-5.42,12.53c0.26,0.59,0.61,1.17,1.13,1.54c0.55,0.39,1.25,0.52,1.92,0.63c2.6,0.44,5.25,0.88,7.86,0.5
			s5.22-1.7,6.48-4.02c1.47-2.69,0.83-6.02-0.1-8.94c-0.43-1.37-0.96-2.79-2.08-3.68c-1.75-1.41-4.28-1.07-6.49-0.66"/>
		<path class="st4" d="M226.62,545.81c-2.78,0.26-5.57,0.52-8.35,0.78c-2.45,3.49-2.24,8.13-1.92,12.39
			c0.71,9.58,1.42,19.16,2.12,28.74c0.1,1.37,0.36,2.99,1.6,3.59c1.64,0.79,3.37-0.87,4.38-2.38c0.32-0.48,0.68-1,1.22-1.18
			c0.83-0.29,1.69,0.3,2.36,0.87c1.72,1.45,3.75,3.11,5.95,2.62c1.69-0.38,2.88-1.99,3.27-3.67c0.4-1.68,0.15-3.44-0.09-5.16
			C236.15,575.18,236.63,544.56,226.62,545.81z"/>
		<path class="st4" d="M249.42,536.22c1.41,3.7,1.9,7.75,1.41,11.68c-0.16,1.24-0.41,2.5-0.2,3.74c0.38,2.24,2.22,3.98,4.23,5.03
			c2.69,1.39,5.98,1.82,8.77,0.63c2.79-1.19,4.85-4.17,4.5-7.18c-0.44-3.75-4.23-6.6-4.2-10.37c0.02-1.95,1.08-3.72,1.8-5.53
			s1.04-4.08-0.23-5.56C259.28,521.33,245.37,525.64,249.42,536.22z"/>
		<path class="st4" d="M200.98,593.39c-2.63-0.27-5.34,0.31-7.64,1.63c-1.68,5.57-0.03,11.53,1.4,17.17
			c2.41,9.52,4.17,19.2,5.27,28.95c0.31,2.77,0.61,5.65,2.04,8.04c1.44,2.39,4.4,4.12,7.03,3.21c2.4-0.83,5.54,0.09,8.06-0.22
			c2.2-0.27,4.67-0.69,5.94-2.51c0.73-1.04,0.91-2.36,1.02-3.62c0.49-5.67-0.09-11.42-1.7-16.88c-2.85-9.66-8.84-18.19-11.38-27.94
			c-0.56-2.14-0.96-4.36-2.03-6.29c-1.07-1.93-3.02-3.56-5.23-3.52C201.62,591.46,202.57,594.85,200.98,593.39z"/>
		<path class="st4" d="M241.49,626.71c2.69-4.37,5.47-9.01,5.62-14.14c0.07-2.54-0.39-5.44,1.34-7.29c1.47-1.58,3.91-1.66,6.07-1.63
			c5.13,0.08,11.12,0.61,13.86,4.95c3.06,4.84,0.04,11.18-3.41,15.75c-3.46,4.57-7.63,9.59-6.77,15.26
			c1.37,8.99,3.53,15.09,4.39,24.14c-1.8,2.24-5.41,2.3-7.85,0.77c-2.44-1.53-3.9-4.22-4.88-6.92c-1.16-3.17-1.82-6.5-2.47-9.81
			C245.94,640.48,242.93,634.02,241.49,626.71z"/>
		<path class="st4" d="M143.33,609.73c-0.41-0.73-0.82-1.46-1.23-2.19c2.63-0.07,5.02,1.65,6.59,3.76c1.57,2.11,2.49,4.61,3.63,6.98
			c4.22,8.82,11.66,16.05,20.59,20.03c2.65,1.18,5.54,2.17,7.39,4.4c3.74,4.52,1.22,11.49-2.55,15.99
			c-2.77,3.31-6.23,6.17-10.34,7.48c-4.11,1.3-8.92,0.84-12.27-1.87c-1.95-1.58-3.28-3.78-4.53-5.96
			c-7.75-13.49-13.94-27.88-18.41-42.78c-0.22-0.72-0.43-1.48-0.28-2.22c0.48-2.29,3.6-2.43,5.91-2.78c2.73-0.41,5.32-1.85,8.08-1.7
			c3.97,0.21,7.29,4.28,6.71,8.21c-0.69,4.66,1.11,10.57,4.74,13.57s8.17,4.66,12.61,6.26"/>
		<path class="st4" d="M202.46,650.36c-4.1,1.33-9.17,0.43-12.24,3.46c-2.81,2.77-2.35,7.5-0.65,11.06
			c0.52,1.09,1.17,2.17,2.17,2.86c1.35,0.92,3.08,0.97,4.71,0.98c4.25,0.04,9.54-0.61,10.96-4.61c0.78-2.19,0-4.63-1.04-6.71
			c-1.34-2.69-3.12-5.17-5.25-7.29"/>
		<path class="st4" d="M263.29,604.31c-2.05-2.39-5.26-3.75-8.4-3.57c-3.07,0.18-6.62,1.57-8.88-0.51
			c-1.32-1.22-1.58-3.25-1.21-5.01c0.37-1.76,1.26-3.36,1.92-5.04c3.38-8.55,0.71-18.13,0.33-27.31c-0.06-1.51,0.05-3.26,1.26-4.17
			c0.57-0.43,1.29-0.58,1.99-0.73c2.5-0.52,5-1.04,7.5-1.56c2.28-0.47,4.77-0.92,6.82,0.17c2.23,1.18,3.26,3.91,3.23,6.43
			c-0.03,2.52-0.9,4.95-1.59,7.37c-2.42,8.49-2.62,17.6-0.58,26.19c0.55,2.33,1.25,4.88,0.19,7.03c-1.25,2.54-5.04,3.35-7.23,1.55
			c-1.16-0.95-1.79-2.39-2.73-3.56s-2.51-2.12-3.89-1.54c0.21-0.69,1.16-1.01,1.75-0.6"/>
		<path class="st4" d="M221.35,652.95c-2.83-0.96-5.77-1.94-8.75-1.7c-2.98,0.24-6.06,2.04-6.83,4.93c-1.05,3.9,2.25,7.5,3.38,11.37
			c3.31,2.1,7.48,3.06,11.25,1.96s6.94-4.47,7.2-8.38c0.26-3.91-2.87-7.92-6.79-8.09"/>
		<path class="st4" d="M257.18,663.9c-2.08-0.93-4.39-1.54-6.65-1.22c-2.26,0.32-4.46,1.71-5.28,3.84
			c-1.22,3.18,0.96,6.76,3.78,8.68c2.46,1.67,5.86,2.48,8.35,0.87c2.22-1.44,3.02-4.49,2.35-7.04c-0.67-2.56-2.56-4.65-4.72-6.18"/>
		<path class="st4" d="M227.55,714.44c-2.22,6.91-8.88,12.16-16.12,12.71c-13.92,1.06-24.41-13.18-38.1-15.9
			c-3.24-0.65-6.63-0.63-9.71-1.82c-6.61-2.53-10.21-10.99-7.45-17.51c5.56-13.16,19.22-19.98,33.34-22.15
			c6.84-1.05,13.8-0.55,20.71-0.78c13.01-0.44,27.6-3.03,37.79,5.07c1.14,0.91,2.22,1.97,2.74,3.33c0.96,2.49-0.19,5.38-2.03,7.32
			s-4.26,3.19-6.49,4.66c-9.55,6.25-15.99,17.02-16.97,28.39C224.74,716.92,228.06,715.28,227.55,714.44z"/>
		<path class="st4" d="M258.93,745.47c-0.1,5.15,2.79,9.8,4.55,14.64s2.01,11.13-2.09,14.25c-2.29,1.74-5.35,2-8.23,2.14
			c-5.25,0.25-10.63,0.29-15.6-1.4c-4.98-1.69-9.54-5.41-10.92-10.48c-2.95-10.83,9.18-20.8,8.25-31.99
			c-0.32-3.81-2.12-7.91-0.24-11.25c1.09-1.94,3.17-3.07,5.2-3.96c6.93-3.05,14.55-4.53,22.13-4.28c0.59,0.02,1.21,0.05,1.74,0.33
			c0.83,0.44,1.26,1.37,1.57,2.25C269.36,727.38,259.14,734.5,258.93,745.47z"/>
		<path class="st4" d="M237.05,654.72c-2.85-1.42-6.64-0.61-8.66,1.86c-2.02,2.47-2.06,6.35-0.1,8.86c1.34,1.71,3.38,2.72,5.44,3.41
			c3.04,1.02,6.42,1.46,9.44,0.37c3.02-1.09,5.53-4,5.38-7.21c-0.12-2.65-1.99-4.99-4.28-6.32c-2.29-1.34-4.97-1.84-7.6-2.19"/>
		<path class="st4" d="M250.17,714.49c6.18-3.55,11.27-9.4,13.07-16.48c2.67-10.51-5.06-21.65-16.16-14.33
			c-4.48,2.96-8.84,6.11-13.06,9.44c-1.94,1.53-3.94,3.22-4.81,5.53c-0.86,2.3-0.47,4.85-0.08,7.27c0.65,3.95,1.57,8.35,4.89,10.59
			c2.78,1.87,6.48,1.63,9.7,0.71C245.95,716.6,248.12,715.67,250.17,714.49z"/>
		<path class="st4" d="M111.81,516.04c-0.15-3.96-0.21-8.27,2.15-11.45c1.33,6.64,2.61,13.29,3.88,19.94
			c0.39,2.06,0.76,4.3-0.24,6.14c-1.24,2.27-3.82,2.06-5.57,0.68C112.62,526.35,112.01,521.09,111.81,516.04z"/>
		<path class="st4" d="M221.66,638.35c0.02,5.46,0.89,11.18,4.15,15.55c0.56,0.75,1.26,1.49,2.18,1.67c0.69,0.13,1.4-0.08,2.09-0.26
			c3.3-0.87,6.77-1.06,10.15-0.55c2.1,0.32,4.74,0.69,5.92-1.08c0.54-0.81,0.57-1.85,0.52-2.82c-0.26-5.55-2.38-10.81-3.91-16.15
			c-3.22-11.27-1.2-21.41-2.31-32.61c-1.18-11.96-7.1-4.56-13.65-8.87c-0.68-0.45-1.19-1.1-1.86-1.57c-2.57-1.78-6.39,0.21-7.5,3.13
			c-2.58,6.82,3.27,18.64,4.16,25.65C222.35,626.43,221.63,632.36,221.66,638.35z"/>
	</g>
	<g>
		<path class="st46" d="M145.6,691.49c-1.28-1.71-1.94-3.83-3.28-5.49c-2.34-2.89-6.25-3.87-9.42-5.82
			c-3.68-2.27-6.34-5.84-8.7-9.47c-4.18-6.44-7.69-13.31-10.45-20.47c-0.92-2.38-1.76-4.94-1.22-7.43c0.54-2.49,3.01-4.73,5.47-4.1
			c2.26,0.58,3.4,3.13,3.69,5.44c0.29,2.31,0.08,4.75,1.02,6.88c1.26,2.83,4.31,4.46,7.33,5.14c3.02,0.69,6.16,0.64,9.2,1.24
			c7.22,1.42,24.01,10.1,23.83,18.81C162.96,681.56,150.95,698.68,145.6,691.49z"/>
		<path class="st46" d="M180.21,654.96c-1.19,6-10.58,6.93-12.52,12.73c-0.93,2.77,0.44,6.11,3.03,7.45
			c3.21,1.65,7.12,0.24,10.31-1.46c3.21-1.71,6.49-3.97,7.62-7.43c0.88-2.67,0.23-5.78-1.63-7.88s-4.88-3.11-7.63-2.55"/>
		<path class="st46" d="M167.73,501.09c-3.14,1.44-6.79,1.72-10.12,0.77c-2.44,2.11-5.06,5.11-4.02,8.16
			c0.67,1.97,2.72,3.17,4.76,3.6c2.04,0.43,4.15,0.26,6.22,0.44c1.67,0.14,3.38,0.51,5,0.07c3.16-0.85,4.82-4.75,3.92-7.9
			s-3.77-5.43-6.88-6.46"/>
		<path class="st46" d="M195.95,512.42c-1.79-1.32-4.8-1.67-9.84-0.57c-12.38,2.72-5.14,13.74-5.02,23.16
			c0.04,2.87,0.83,6.02,3.19,7.65c2.01,1.39,4.74,1.34,7.03,0.47c2.28-0.86,4.22-2.43,6.12-3.96c0.91-0.74,1.88-1.58,2.08-2.73
			c0.15-0.85-0.15-1.69-0.39-2.52C196.86,526.05,200.66,515.89,195.95,512.42z"/>
		<path class="st46" d="M152.81,545.2c0.05,2.04,0.35,4.51,2.21,5.36c1.74-2.65,5.48-3,8.63-2.59c10.53,1.38,11.1-1.51,10.07-10.78
			c-0.99-8.95,2.13-27-12.69-24.46C146.92,515.15,152.6,535.62,152.81,545.2z"/>
		<path class="st46" d="M183.65,550.82c0.42,2.22,1.43,4.28,2.12,6.43c2.6,8.09,0.59,16.89,1.44,25.34c0.22,2.24,0.7,4.57,2.16,6.28
			s4.16,2.54,6.03,1.29c1.2-0.8,1.8-2.23,2.76-3.31c0.96-1.08,2.78-1.76,3.78-0.72c0.41,0.43,0.56,1.03,0.82,1.56
			c0.72,1.52,2.42,2.51,4.09,2.4c3.17-4.01,2.52-9.75,1.54-14.77c-1.75-8.96-3.67-23.75-10.53-30.44
			C192.67,539.82,181.97,541.85,183.65,550.82z"/>
		<path class="st46" d="M125.89,576.44c-1.88,0.47-10.37,1.36-10.87,0.89c-0.39-0.36-0.58-0.88-0.77-1.38
			c-2.55-6.91-9.98-18.86-3.27-25.43c2.54-2.49,6.37-3.45,9.86-2.82c5.03,0.91,9.28,5.06,10.48,10.03c1.13,4.67-0.7,15.63-5.1,18.59
			C126.17,576.36,126.06,576.4,125.89,576.44z"/>
		<path class="st46" d="M163.35,599c0.34,0.68,0.79,1.42,1.53,1.61c1.54,0.4,2.45-1.69,3.81-2.49c2.83-1.67,6.29,2.61,9.39,1.51
			c2.62-0.93,2.57-4.62,2.02-7.34c-2.49-12.31-4.98-24.63-7.48-36.94c-0.23-1.13-0.46-2.28-0.94-3.33
			c-2.17-4.78-9.87-6.86-14.31-3.9c-5.49,3.66-2.74,8.57-1.23,13.7C159.68,573.81,157.74,587.67,163.35,599z"/>
		<path class="st46" d="M122.4,598.74c1.31,4.1,3.02,8.66,6.95,10.42c2.63,1.17,5.65,0.79,8.5,0.39c2.31-0.33,4.85-0.79,6.27-2.64
			c0.82-1.07,1.12-2.47,1.17-3.82c0.29-9.61-13.44-25.19-22.45-28.39C108.42,569.57,120.37,592.4,122.4,598.74z"/>
		<path class="st46" d="M181.06,511.8c-0.75,1.54-3.27,1.34-4.29-0.04c-1.02-1.38-0.86-3.31-0.34-4.94c0.52-1.63,1.36-3.18,1.6-4.88
			c0.22-1.54-0.05-3.23,0.75-4.57c0.95-1.59,3.02-2.05,4.87-2.27c3.98-0.46,8.02-0.49,12.01-0.09c0.84,0.09,1.78,0.24,2.3,0.91
			c0.37,0.48,0.45,1.11,0.51,1.71c0.37,3.5,0.73,7.01,1.1,10.51c-5.97,2.38-12.33,3.79-18.75,4.14c-0.45,0.02-0.96,0.02-1.28-0.29
			c-0.32-0.31-0.17-1.03,0.28-1"/>
		<path class="st46" d="M173.82,624.16c0.43,3.4-1.1,6.87-0.46,10.24c0.41,2.17,1.69,4.07,2.94,5.9c2.07,3.03,4.14,6.07,6.21,9.1
			c1,1.46,2.11,3.01,3.8,3.55c2.92,0.93,5.79-1.59,8.84-1.89c1.23-0.12,2.5,0.12,3.69-0.2c2.55-0.69,3.79-3.79,3.37-6.4
			s-2.01-4.85-3.45-7.07c-5.46-8.36-9.38-17.73-11.49-27.49c-0.52-2.42-0.99-4.97-2.54-6.89c-4.15-5.15-14.1-7.7-17.38-1.09
			C163.09,610.5,172.86,616.56,173.82,624.16z"/>
		<path class="st46" d="M218.14,515.43c-3.63-0.63-8.44-0.62-9.72,2.82c-0.99,2.65,0.96,5.37,2.23,7.89
			c3.35,6.61,2.35,14.81,5.85,21.34c3.84-0.75,7.68-1.51,11.51-2.26c1.16-0.23,2.37-0.48,3.26-1.26c1.48-1.28,1.57-3.61,0.88-5.44
			c-0.69-1.83-1.98-3.36-2.99-5.04c-2.01-3.36-2.85-7.4-2.33-11.28c0.27-2.04,0.88-4.2,0.05-6.08c-1.02-2.32-3.84-3.25-6.37-3.39
			c-4.81-0.27-9.7,1.42-13.3,4.62"/>
		<path class="st46" d="M220.75,513.19c-2.78-0.12-5.56-0.24-8.35-0.36c-1.28-0.06-2.64-0.14-3.66-0.92
			c-1.65-1.27-1.64-3.75-1.19-5.79c0.44-2.03,1.15-4.2,0.38-6.13c4.26-1.07,8.51-2.13,12.77-3.2c1.49,2.53,3.01,5.13,3.48,8.02
			c0.47,2.89-0.34,6.19-2.73,7.88c-2.22,1.57-5.27,1.42-7.85,0.56"/>
		<path class="st46" d="M111.19,533.65c-4.03,2.51-10.95,18.75-1.44,18.17c2.55-0.15,4.63-2.32,7.18-2.55
			c2.55-0.23,5.78,1.28,7.31-0.77C129.48,541.46,118.89,528.87,111.19,533.65z"/>
		<path class="st46" d="M263.64,509.69c-2.58,0.59-5.17,1.19-7.75,1.78c-0.64,0.15-1.27,0.29-1.89,0.51
			c-4.84,1.67-7.52,7.86-5.42,12.53c0.26,0.59,0.61,1.17,1.13,1.54c0.55,0.39,1.25,0.52,1.92,0.63c2.6,0.44,5.25,0.88,7.86,0.5
			s5.22-1.7,6.48-4.02c1.47-2.69,0.83-6.02-0.1-8.94c-0.43-1.37-0.96-2.79-2.08-3.68c-1.75-1.41-4.28-1.07-6.49-0.66"/>
		<path class="st46" d="M226.62,545.81c-2.78,0.26-5.57,0.52-8.35,0.78c-2.45,3.49-2.24,8.13-1.92,12.39
			c0.71,9.58,1.42,19.16,2.12,28.74c0.1,1.37,0.36,2.99,1.6,3.59c1.64,0.79,3.37-0.87,4.38-2.38c0.32-0.48,0.68-1,1.22-1.18
			c0.83-0.29,1.69,0.3,2.36,0.87c1.72,1.45,3.75,3.11,5.95,2.62c1.69-0.38,2.88-1.99,3.27-3.67c0.4-1.68,0.15-3.44-0.09-5.16
			C236.15,575.18,236.63,544.56,226.62,545.81z"/>
		<path class="st46" d="M249.42,536.22c1.41,3.7,1.9,7.75,1.41,11.68c-0.16,1.24-0.41,2.5-0.2,3.74c0.38,2.24,2.22,3.98,4.23,5.03
			c2.69,1.39,5.98,1.82,8.77,0.63c2.79-1.19,4.85-4.17,4.5-7.18c-0.44-3.75-4.23-6.6-4.2-10.37c0.02-1.95,1.08-3.72,1.8-5.53
			s1.04-4.08-0.23-5.56C259.28,521.33,245.37,525.64,249.42,536.22z"/>
		<path class="st46" d="M200.98,593.39c-2.63-0.27-5.34,0.31-7.64,1.63c-1.68,5.57-0.03,11.53,1.4,17.17
			c2.41,9.52,4.17,19.2,5.27,28.95c0.31,2.77,0.61,5.65,2.04,8.04c1.44,2.39,4.4,4.12,7.03,3.21c2.4-0.83,5.54,0.09,8.06-0.22
			c2.2-0.27,4.67-0.69,5.94-2.51c0.73-1.04,0.91-2.36,1.02-3.62c0.49-5.67-0.09-11.42-1.7-16.88c-2.85-9.66-8.84-18.19-11.38-27.94
			c-0.56-2.14-0.96-4.36-2.03-6.29c-1.07-1.93-3.02-3.56-5.23-3.52C201.62,591.46,202.57,594.85,200.98,593.39z"/>
		<path class="st46" d="M241.49,626.71c2.69-4.37,5.47-9.01,5.62-14.14c0.07-2.54-0.39-5.44,1.34-7.29
			c1.47-1.58,3.91-1.66,6.07-1.63c5.13,0.08,11.12,0.61,13.86,4.95c3.06,4.84,0.04,11.18-3.41,15.75
			c-3.46,4.57-7.63,9.59-6.77,15.26c1.37,8.99,3.53,15.09,4.39,24.14c-1.8,2.24-5.41,2.3-7.85,0.77c-2.44-1.53-3.9-4.22-4.88-6.92
			c-1.16-3.17-1.82-6.5-2.47-9.81C245.94,640.48,242.93,634.02,241.49,626.71z"/>
		<path class="st46" d="M143.33,609.73c-0.41-0.73-0.82-1.46-1.23-2.19c2.63-0.07,5.02,1.65,6.59,3.76
			c1.57,2.11,2.49,4.61,3.63,6.98c4.22,8.82,11.66,16.05,20.59,20.03c2.65,1.18,5.54,2.17,7.39,4.4c3.74,4.52,1.22,11.49-2.55,15.99
			c-2.77,3.31-6.23,6.17-10.34,7.48c-4.11,1.3-8.92,0.84-12.27-1.87c-1.95-1.58-3.28-3.78-4.53-5.96
			c-7.75-13.49-13.94-27.88-18.41-42.78c-0.22-0.72-0.43-1.48-0.28-2.22c0.48-2.29,3.6-2.43,5.91-2.78c2.73-0.41,5.32-1.85,8.08-1.7
			c3.97,0.21,7.29,4.28,6.71,8.21c-0.69,4.66,1.11,10.57,4.74,13.57s8.17,4.66,12.61,6.26"/>
		<path class="st46" d="M202.46,650.36c-4.1,1.33-9.17,0.43-12.24,3.46c-2.81,2.77-2.35,7.5-0.65,11.06
			c0.52,1.09,1.17,2.17,2.17,2.86c1.35,0.92,3.08,0.97,4.71,0.98c4.25,0.04,9.54-0.61,10.96-4.61c0.78-2.19,0-4.63-1.04-6.71
			c-1.34-2.69-3.12-5.17-5.25-7.29"/>
		<path class="st46" d="M263.29,604.31c-2.05-2.39-5.26-3.75-8.4-3.57c-3.07,0.18-6.62,1.57-8.88-0.51
			c-1.32-1.22-1.58-3.25-1.21-5.01c0.37-1.76,1.26-3.36,1.92-5.04c3.38-8.55,0.71-18.13,0.33-27.31c-0.06-1.51,0.05-3.26,1.26-4.17
			c0.57-0.43,1.29-0.58,1.99-0.73c2.5-0.52,5-1.04,7.5-1.56c2.28-0.47,4.77-0.92,6.82,0.17c2.23,1.18,3.26,3.91,3.23,6.43
			c-0.03,2.52-0.9,4.95-1.59,7.37c-2.42,8.49-2.62,17.6-0.58,26.19c0.55,2.33,1.25,4.88,0.19,7.03c-1.25,2.54-5.04,3.35-7.23,1.55
			c-1.16-0.95-1.79-2.39-2.73-3.56s-2.51-2.12-3.89-1.54c0.21-0.69,1.16-1.01,1.75-0.6"/>
		<path class="st46" d="M221.35,652.95c-2.83-0.96-5.77-1.94-8.75-1.7c-2.98,0.24-6.06,2.04-6.83,4.93
			c-1.05,3.9,2.25,7.5,3.38,11.37c3.31,2.1,7.48,3.06,11.25,1.96s6.94-4.47,7.2-8.38c0.26-3.91-2.87-7.92-6.79-8.09"/>
		<path class="st46" d="M257.18,663.9c-2.08-0.93-4.39-1.54-6.65-1.22c-2.26,0.32-4.46,1.71-5.28,3.84
			c-1.22,3.18,0.96,6.76,3.78,8.68c2.46,1.67,5.86,2.48,8.35,0.87c2.22-1.44,3.02-4.49,2.35-7.04c-0.67-2.56-2.56-4.65-4.72-6.18"/>
		<path class="st46" d="M227.55,714.44c-2.22,6.91-8.88,12.16-16.12,12.71c-13.92,1.06-24.41-13.18-38.1-15.9
			c-3.24-0.65-6.63-0.63-9.71-1.82c-6.61-2.53-10.21-10.99-7.45-17.51c5.56-13.16,19.22-19.98,33.34-22.15
			c6.84-1.05,13.8-0.55,20.71-0.78c13.01-0.44,27.6-3.03,37.79,5.07c1.14,0.91,2.22,1.97,2.74,3.33c0.96,2.49-0.19,5.38-2.03,7.32
			s-4.26,3.19-6.49,4.66c-9.55,6.25-15.99,17.02-16.97,28.39C224.74,716.92,228.06,715.28,227.55,714.44z"/>
		<path class="st46" d="M258.93,745.47c-0.1,5.15,2.79,9.8,4.55,14.64s2.01,11.13-2.09,14.25c-2.29,1.74-5.35,2-8.23,2.14
			c-5.25,0.25-10.63,0.29-15.6-1.4c-4.98-1.69-9.54-5.41-10.92-10.48c-2.95-10.83,9.18-20.8,8.25-31.99
			c-0.32-3.81-2.12-7.91-0.24-11.25c1.09-1.94,3.17-3.07,5.2-3.96c6.93-3.05,14.55-4.53,22.13-4.28c0.59,0.02,1.21,0.05,1.74,0.33
			c0.83,0.44,1.26,1.37,1.57,2.25C269.36,727.38,259.14,734.5,258.93,745.47z"/>
		<path class="st46" d="M237.05,654.72c-2.85-1.42-6.64-0.61-8.66,1.86c-2.02,2.47-2.06,6.35-0.1,8.86
			c1.34,1.71,3.38,2.72,5.44,3.41c3.04,1.02,6.42,1.46,9.44,0.37c3.02-1.09,5.53-4,5.38-7.21c-0.12-2.65-1.99-4.99-4.28-6.32
			c-2.29-1.34-4.97-1.84-7.6-2.19"/>
		<path class="st46" d="M250.17,714.49c6.18-3.55,11.27-9.4,13.07-16.48c2.67-10.51-5.06-21.65-16.16-14.33
			c-4.48,2.96-8.84,6.11-13.06,9.44c-1.94,1.53-3.94,3.22-4.81,5.53c-0.86,2.3-0.47,4.85-0.08,7.27c0.65,3.95,1.57,8.35,4.89,10.59
			c2.78,1.87,6.48,1.63,9.7,0.71C245.95,716.6,248.12,715.67,250.17,714.49z"/>
		<path class="st46" d="M111.81,516.04c-0.15-3.96-0.21-8.27,2.15-11.45c1.33,6.64,2.61,13.29,3.88,19.94
			c0.39,2.06,0.76,4.3-0.24,6.14c-1.24,2.27-3.82,2.06-5.57,0.68C112.62,526.35,112.01,521.09,111.81,516.04z"/>
		<path class="st46" d="M221.66,638.35c0.02,5.46,0.89,11.18,4.15,15.55c0.56,0.75,1.26,1.49,2.18,1.67
			c0.69,0.13,1.4-0.08,2.09-0.26c3.3-0.87,6.77-1.06,10.15-0.55c2.1,0.32,4.74,0.69,5.92-1.08c0.54-0.81,0.57-1.85,0.52-2.82
			c-0.26-5.55-2.38-10.81-3.91-16.15c-3.22-11.27-1.2-21.41-2.31-32.61c-1.18-11.96-7.1-4.56-13.65-8.87
			c-0.68-0.45-1.19-1.1-1.86-1.57c-2.57-1.78-6.39,0.21-7.5,3.13c-2.58,6.82,3.27,18.64,4.16,25.65
			C222.35,626.43,221.63,632.36,221.66,638.35z"/>
	</g>
</g>
<g>
	<rect x="446.03" y="1665.59" class="st0" width="274.61" height="215.38"/>
	<text transform="matrix(1 0 0 1 446.0257 1683.5886)"><tspan x="0" y="0" class="st4 st2 st3">A panda needs to </tspan><tspan x="0" y="28.8" class="st4 st2 st3">consume a comparatively </tspan><tspan x="0" y="57.6" class="st4 st2 st3">large amount of </tspan><tspan x="0" y="86.4" class="st4 st2 st3">food—from 70 to 100 </tspan><tspan x="0" y="115.2" class="st4 st2 st3">pounds of bamboo each </tspan><tspan x="0" y="144" class="st4 st2 st3">day—to get all its </tspan><tspan x="0" y="172.8" class="st4 st2 st3">nutrients.</tspan></text>
</g>
<g>
	<rect x="972.93" y="1567.59" class="st0" width="207.37" height="162.38"/>
	<text transform="matrix(1 0 0 1 972.9251 1585.5886)"><tspan x="0" y="0" class="st1 st2 st3">Female giant </tspan><tspan x="0" y="28.8" class="st1 st2 st3">pandas give birth </tspan><tspan x="0" y="57.6" class="st1 st2 st3">from 90 to 180 </tspan><tspan x="0" y="86.4" class="st1 st2 st3">days after mating.</tspan></text>
</g>
<g>
	<rect x="1202.27" y="1567.59" class="st0" width="207.37" height="162.38"/>
	<text transform="matrix(1 0 0 1 1202.2717 1585.5886)"><tspan x="0" y="0" class="st1 st2 st3">Generally, giant </tspan><tspan x="0" y="28.8" class="st1 st2 st3">pandas only give </tspan><tspan x="0" y="57.6" class="st1 st2 st3">birth to one or two </tspan><tspan x="0" y="86.4" class="st1 st2 st3">babies at a time</tspan></text>
</g>
<g>
	<rect x="1428.01" y="1567.59" class="st0" width="268.47" height="195.38"/>
	<text transform="matrix(1 0 0 1 1428.0051 1585.5886)"><tspan x="0" y="0" class="st4 st2 st3">Faced with danger, </tspan><tspan x="0" y="28.8" class="st4 st2 st3">pandas can only carry </tspan><tspan x="0" y="57.6" class="st4 st2 st3">one cub at a time, </tspan><tspan x="0" y="86.4" class="st4 st2 st3">therefore, in the wild, </tspan><tspan x="0" y="115.2" class="st4 st2 st3">panda mothers can only </tspan><tspan x="0" y="144" class="st4 st2 st3">nurse one cub at a time.</tspan></text>
</g>
<path class="st46" d="M482.22,1652.48c0,0,0.97-47.79-36.19-70.02"/>
<g>
	<g>
		<line class="st47" x1="973.57" y1="1880.97" x2="973.57" y2="2387.27"/>
		<g>
			<polygon class="st45" points="953.63,2381.43 973.57,2415.97 993.52,2381.43 			"/>
		</g>
	</g>
</g>
<g>
	<text transform="matrix(1 0 0 1 870.7591 1078.9741)" class="st4 st8 st9">Colours</text>
</g>
<path class="st43" d="M1276.45,137.88c0,0,2.52,57.44-71.4,65.02"/>
<image style="overflow:visible;" width="597" height="416" xlink:href="DF9DFC09C8418CA.png"  transform="matrix(1 0 0 1 1300.6379 489.9721)">
</image>
<path class="st43" d="M1585.51,722.97v-5.24c0-11.18,9.06-20.23,20.23-20.23h120.16c11.18,0,20.23,9.06,20.23,20.23v11.9"/>
<line class="st43" x1="1665.83" y1="696.5" x2="1665.83" y2="671.82"/>
<g>
	<rect x="1429.52" y="253.04" class="st0" width="416.12" height="259.47"/>
	<text transform="matrix(1 0 0 1 1429.5149 271.0396)"><tspan x="0" y="0" class="st1 st2 st3">The bit of a giant panda is </tspan><tspan x="0" y="28.8" class="st1 st2 st3">exceptionally strong, second only to </tspan><tspan x="0" y="57.6" class="st1 st2 st3">polar bears among bears. The action </tspan><tspan x="0" y="86.4" class="st1 st2 st3">of eating bamboo may look basic, but </tspan><tspan x="0" y="115.2" class="st1 st2 st3">bamboo is an extremely hard and </tspan><tspan x="0" y="144" class="st1 st2 st3">dense material. Their skilled action of </tspan><tspan x="0" y="172.8" class="st1 st2 st3">eating bamboo demonstrates their </tspan><tspan x="0" y="201.6" class="st1 st2 st3">sharp teeth and strong bite.</tspan></text>
</g>
<g>
	<text transform="matrix(1 0 0 1 1429.5149 220.6997)" class="st1 st8 st9">Strong bite</text>
</g>
<g>
	<rect x="1585.64" y="544.42" class="st0" width="266" height="178.55"/>
	<text transform="matrix(1 0 0 1 1585.6379 562.4233)"><tspan x="0" y="0" class="st1 st2 st3">They have large molar </tspan><tspan x="0" y="28.8" class="st1 st2 st3">teeth and strong jaw </tspan><tspan x="0" y="57.6" class="st1 st2 st3">muscles for crushing </tspan><tspan x="0" y="86.4" class="st1 st2 st3">tough bamboo.</tspan></text>
</g>
</svg>
