<?xml version="1.0" encoding="utf-8"?>
<!-- Generator: Adobe Illustrator 24.3.2, SVG Export Plug-In . SVG Version: 6.00 Build 0)  -->
<svg version="1.1" id="Layer_1" xmlns="http://www.w3.org/2000/svg" xmlns:xlink="http://www.w3.org/1999/xlink" x="0px" y="0px"
	 viewBox="0 0 795 1945" style="enable-background:new 0 0 795 1945;" xml:space="preserve">
<style type="text/css">
	.st0{fill:none;stroke:#231F20;stroke-miterlimit:10;}
	.st1{fill:none;stroke:#F05A28;stroke-width:4;stroke-miterlimit:10;}
	.st2{fill:#F05A28;}
	.st3{fill:none;}
	.st4{fill:#231F20;}
	.st5{font-family:'Roboto-Regular';}
	.st6{font-size:26px;}
	.st7{fill:#FFFFFF;}
	.st8{font-family:'Roboto-Black';}
	.st9{font-size:36px;}
</style>
<image style="overflow:visible;" width="1783" height="1239" xlink:href="E45A33327050F5F.jpg"  transform="matrix(0.2531 0 0 0.2531 -93.8848 125.96)">
</image>
<image style="overflow:visible;enable-background:new    ;" width="801" height="1729" xlink:href="E45A33327050F5F.png"  transform="matrix(0.9993 0 0 0.9993 -3.0869 0.1023)">
</image>
<path class="st0" d="M74.56,1633.13c0,0,33.34-73.35,110.03-83.35"/>
<g>
	<g>
		<path class="st1" d="M707.13,1410.2c0,278.81-262.05,254.78-282.71,477.32"/>
		<g>
			<polygon class="st2" points="405.03,1880.66 423.13,1916.2 444.87,1882.76 			"/>
		</g>
	</g>
</g>
<path class="st0" d="M128.72,295.29v-4.62c0-9.86,5.62-17.85,12.56-17.85h74.57c6.94,0,12.56,7.99,12.56,17.85v10.5"/>
<line class="st0" x1="171.43" y1="272.82" x2="171.43" y2="251.05"/>
<g>
	<rect x="22.31" y="516.82" class="st3" width="222.68" height="382.79"/>
	<text transform="matrix(1 0 0 1 22.3128 536.3184)"><tspan x="0" y="0" class="st4 st5 st6">If you observe </tspan><tspan x="0" y="31.2" class="st4 st5 st6">pandas holding </tspan><tspan x="0" y="62.4" class="st4 st5 st6">bamboo, they use </tspan><tspan x="0" y="93.6" class="st4 st5 st6">their five fingers to </tspan><tspan x="0" y="124.8" class="st4 st5 st6">grip and their </tspan><tspan x="0" y="156" class="st4 st5 st6">thumb as a hook.</tspan></text>
</g>
<g>
	<text transform="matrix(1 0 0 1 161.675 944.1956)" class="st7 st8 st9">COLOURS</text>
</g>
<g>
	<rect x="22.31" y="1657.04" class="st3" width="320.6" height="190.7"/>
	<text transform="matrix(1 0 0 1 22.3119 1676.5441)"><tspan x="0" y="0" class="st4 st5 st6">A panda needs to consume </tspan><tspan x="0" y="31.2" class="st4 st5 st6">a comparatively large </tspan><tspan x="0" y="62.4" class="st4 st5 st6">amount of food — from </tspan><tspan x="0" y="93.6" class="st4 st5 st6">31.7 kg to 45 kg of bamboo </tspan><tspan x="0" y="124.8" class="st4 st5 st6">each day — to get all its </tspan><tspan x="0" y="156" class="st4 st5 st6">nutrients.</tspan></text>
</g>
<g>
	<rect x="161.59" y="980.26" class="st3" width="335.03" height="223.29"/>
	<text transform="matrix(1 0 0 1 161.5891 999.7632)"><tspan x="0" y="0" class="st7 st5 st6">Although there is not a </tspan><tspan x="0" y="31.2" class="st7 st5 st6">confirmed theory, one of </tspan><tspan x="0" y="62.4" class="st7 st5 st6">them says that the shapes of </tspan><tspan x="0" y="93.6" class="st7 st5 st6">the black parts are often </tspan><tspan x="0" y="124.8" class="st7 st5 st6">used to distinguish </tspan><tspan x="0" y="156" class="st7 st5 st6">individuals.</tspan></text>
</g>
<g>
	<rect x="619.36" y="1015.81" class="st3" width="176.71" height="163.37"/>
	<text transform="matrix(1 0 0 1 619.3596 1035.3127)"><tspan x="0" y="0" class="st4 st5 st6">Generally, </tspan><tspan x="0" y="31.2" class="st4 st5 st6">giant pandas </tspan><tspan x="0" y="62.4" class="st4 st5 st6">only give birth </tspan><tspan x="0" y="93.6" class="st4 st5 st6">to one or two </tspan><tspan x="0" y="124.8" class="st4 st5 st6">cubs at a time.</tspan></text>
</g>
<g>
	<text transform="matrix(1 0 0 1 41.129 73.3143)" class="st4 st8 st9">STRONG BITE</text>
</g>
<g>
	<rect x="113.49" y="112.77" class="st3" width="284.48" height="240.06"/>
	<text transform="matrix(1 0 0 1 113.4907 132.2653)"><tspan x="0" y="0" class="st4 st5 st6">They have large molar </tspan><tspan x="0" y="31.2" class="st4 st5 st6">teeth and strong jaw </tspan><tspan x="0" y="62.4" class="st4 st5 st6">muscles for crushing </tspan><tspan x="0" y="93.6" class="st4 st5 st6">tough bamboo.</tspan></text>
</g>
</svg>
