<?xml version="1.0" encoding="utf-8"?>
<!-- Generator: Adobe Illustrator 24.3.2, SVG Export Plug-In . SVG Version: 6.00 Build 0)  -->
<svg version="1.1" id="Layer_1" xmlns="http://www.w3.org/2000/svg" xmlns:xlink="http://www.w3.org/1999/xlink" x="0px" y="0px"
	 viewBox="0 0 795 764.61" style="enable-background:new 0 0 795 764.61;" xml:space="preserve">
<style type="text/css">
	.st0{fill:none;stroke:#231F20;stroke-width:0.5;stroke-miterlimit:10;}
	.st1{clip-path:url(#SVGID_2_);}
	.st2{opacity:0;fill:#FFFFFF;}
	.st3{opacity:0.0323;fill:#FFFFFF;}
	.st4{opacity:0.0645;fill:#FFFFFF;}
	.st5{opacity:0.0968;fill:#FFFFFF;}
	.st6{opacity:0.129;fill:#FFFFFF;}
	.st7{opacity:0.1613;fill:#FFFFFF;}
	.st8{opacity:0.1935;fill:#FFFFFF;}
	.st9{opacity:0.2258;fill:#FFFFFF;}
	.st10{opacity:0.2581;fill:#FFFFFF;}
	.st11{opacity:0.2903;fill:#FFFFFF;}
	.st12{opacity:0.3226;fill:#FFFFFF;}
	.st13{opacity:0.3548;fill:#FFFFFF;}
	.st14{opacity:0.3871;fill:#FFFFFF;}
	.st15{opacity:0.4194;fill:#FFFFFF;}
	.st16{opacity:0.4516;fill:#FFFFFF;}
	.st17{opacity:0.4839;fill:#FFFFFF;}
	.st18{opacity:0.5161;fill:#FFFFFF;}
	.st19{opacity:0.5484;fill:#FFFFFF;}
	.st20{opacity:0.5806;fill:#FFFFFF;}
	.st21{opacity:0.6129;fill:#FFFFFF;}
	.st22{opacity:0.6452;fill:#FFFFFF;}
	.st23{opacity:0.6774;fill:#FFFFFF;}
	.st24{opacity:0.7097;fill:#FFFFFF;}
	.st25{opacity:0.7419;fill:#FFFFFF;}
	.st26{opacity:0.7742;fill:#FFFFFF;}
	.st27{opacity:0.8065;fill:#FFFFFF;}
	.st28{opacity:0.8387;fill:#FFFFFF;}
	.st29{opacity:0.871;fill:#FFFFFF;}
	.st30{opacity:0.9032;fill:#FFFFFF;}
	.st31{opacity:0.9355;fill:#FFFFFF;}
	.st32{opacity:0.9677;fill:#FFFFFF;}
	.st33{fill:#FFFFFF;}
	.st34{fill:none;stroke:#231F20;stroke-miterlimit:10;}
	.st35{opacity:0.6;}
	.st36{fill:#F05A28;}
	.st37{fill:none;stroke:#FFFFFF;stroke-width:2;stroke-miterlimit:10;}
	.st38{fill:none;stroke:#FFFFFF;stroke-width:0.5;stroke-miterlimit:10;}
	.st39{fill:none;}
	.st40{fill:#231F20;}
	.st41{font-family:'Roboto-Regular';}
	.st42{font-size:20px;}
	.st43{font-family:'Roboto-Black';}
	.st44{font-size:24px;}
	.st45{fill:none;stroke:#FFFFFF;stroke-width:0.3;stroke-miterlimit:10;}
	.st46{fill:none;stroke:#231F20;stroke-width:0.3;stroke-miterlimit:10;}
	.st47{fill:none;stroke:#000000;stroke-width:0.5;stroke-miterlimit:10;}
</style>
<g>
	<path class="st0" d="M431.87,4.33c13.71,26.57,27.41,53.13,41.12,79.7c2.53,4.9,5.08,9.84,8.61,14.07
		c8.13,9.75,20.45,14.71,31.78,20.45c17.93,9.09,34.43,20.98,48.73,35.1c8.49,8.38,16.31,13.98,25.11,22.05
		c4.49,4.11,9.35,9.12,8.89,15.19c-0.38,5.03-4.34,8.96-8.18,12.23c-25.66,21.86-56.74,36.19-85.08,54.44
		c-28.34,18.25-55.28,42.34-65.13,74.58c0.87-2.84-21.68-25.13-24.76-28.25c-10.59-10.72-19.03-23.21-26.14-36.45
		c-14.33-26.66-23.06-55.87-34.06-83.95c-18.5-47.24-44.31-91.6-76.24-131.02"/>
	<path class="st0" d="M457.58,108.78c-20.68,0.72-35.58,19.76-54.55,28.03c-8.92,3.89-19.18,5.6-26.27,12.27"/>
	<path class="st0" d="M433.05,171.45c4.59,9.8,8.11,20.11,10.47,30.67"/>
</g>
<g>
	<defs>
		<path id="SVGID_1_" d="M419.18,725.29c1.14,0.93-1.2,2.58-2.23,1.53s-0.66-2.78-0.25-4.19c8.45-29.61,1.11-61.12-5.39-91.22
			c-8.57-39.7-15.63-79.73-21.17-119.97c-2.69-19.58-2.52-41.15-7.17-60.29c-3.96-16.32-11.92-31.19-5.4-48.62
			c5.41-14.47,19.23-23.84,28.41-36.27c10.85-14.68,14.95-34.14,10.97-51.95c-1.78-7.95-5.07-15.52-6.56-23.53
			c-3.99-21.35,5.06-42.75,13.89-62.59c-2.77,4.14-5.55,8.29-8.32,12.43c3.16-6.87,6.32-13.74,9.48-20.61
			c5.13,1.03,9.69,4.61,11.92,9.35c5.71-12.9,11.42-25.8,17.13-38.69c0.89-2,1.77-4,2.66-6c6.59-14.88,13.17-29.76,20.2-44.43
			c2.94,2.3,5.88,4.6,8.82,6.9c6.8-4.59,11.55-12.1,12.79-20.21c5.31,3.67,10.63,7.34,15.94,11.02c3.89-9.63,7.77-19.26,11.66-28.88
			c3.56,0.92,6.65,3.48,8.22,6.8c1.67-1.56,3.33-3.12,5-4.69c2.43,0.93,4.59,2.57,6.13,4.67c1.41-2.99,3.45-5.69,5.94-7.87
			c3.26,3.02,5.69,6.92,6.96,11.18c5.78-5.12,12.36-9.34,19.43-12.46c8.15,9.77,22.32,11.83,32.63,19.28
			c13.93,10.06,18.89,28.2,22.93,44.91c5.54-0.54,9.84,4.4,14.48,7.48c6,3.98,14.89,5.32,21.72,3.05
			c0.86,9.19,6.33,17.84,14.26,22.56c4.35,2.59,9.3,4.03,13.6,6.69c6.58,4.07,11.1,10.67,16.5,16.21s12.7,10.36,20.34,9.18
			c-5.22,1.67-4.9,9.54-1.63,13.94c3.28,4.39,8.37,7.56,10.27,12.69c5.01,13.53-15.18,29.29-6.49,40.82
			c-5.4,4.7-10.36,9.91-14.79,15.54c-1.92,2.44-3.83,5.34-3.31,8.4c0.52,3.06,5,5.14,6.82,2.63c2.86,9.16,4.91,18.58,6.09,28.1
			c1.07,8.6,1.45,17.3,3.25,25.77c2.48,11.68,7.68,22.77,15.08,32.14c-5.47,4.35-6.62,12.41-5.02,19.21
			c1.6,6.8,5.4,12.84,8.35,19.17c6.08,13.01,8.64,27.64,7.34,41.94c-0.21,2.35-0.54,4.75-1.59,6.86c-1.33,2.68-3.69,4.67-5.78,6.81
			c-10.56,10.78-15.04,27.15-11.45,41.81c0.72,2.92,1.73,5.92,1.1,8.86c-1.86,8.58-14.11,8.37-22.58,6.06
			c4.77,6.84,0.47,16.18-4.29,23.02c-4.75,6.85-10.24,14.97-7.44,22.81c-6.37-1.23-12.44,4.37-14.13,10.64
			c-1.69,6.27-0.16,12.9,1.36,19.21c-7.41-1.2-15.37,2.2-19.62,8.38c-4.25,6.18-4.58,14.83-0.81,21.32
			c-2.07,14.62,2.2,22.63,7.01,36.59c2.12,6.16,4.25,12.33,6.37,18.49"/>
	</defs>
	<clipPath id="SVGID_2_">
		<use xlink:href="#SVGID_1_"  style="overflow:visible;"/>
	</clipPath>
	<g id="rH7W1r_5_" class="st1">
		
			<image style="overflow:visible;" width="650" height="443" id="rH7W1r_6_" xlink:href="D7312A1A896B7903.jpg"  transform="matrix(0 1.1166 -1.1166 0 825.3746 6.8773)">
		</image>
	</g>
	<g class="st1">
		<rect x="350.79" y="668.29" class="st2" width="410.21" height="64.88"/>
		<rect x="350.79" y="669.94" class="st3" width="410.21" height="64.88"/>
		<rect x="350.79" y="671.6" class="st4" width="410.21" height="64.88"/>
		<rect x="350.79" y="673.26" class="st5" width="410.21" height="64.88"/>
		<rect x="350.79" y="674.92" class="st6" width="410.21" height="64.88"/>
		<rect x="350.79" y="676.58" class="st7" width="410.21" height="64.88"/>
		<rect x="350.79" y="678.24" class="st8" width="410.21" height="64.88"/>
		<rect x="350.79" y="679.9" class="st9" width="410.21" height="64.88"/>
		<rect x="350.79" y="681.56" class="st10" width="410.21" height="64.88"/>
		<rect x="350.79" y="683.22" class="st11" width="410.21" height="64.88"/>
		<rect x="350.79" y="684.88" class="st12" width="410.21" height="64.88"/>
		<rect x="350.79" y="686.54" class="st13" width="410.21" height="64.88"/>
		<rect x="350.79" y="688.2" class="st14" width="410.21" height="64.88"/>
		<rect x="350.79" y="689.85" class="st15" width="410.21" height="64.88"/>
		<rect x="350.79" y="691.51" class="st16" width="410.21" height="64.88"/>
		<rect x="350.79" y="693.17" class="st17" width="410.21" height="64.88"/>
		<rect x="350.79" y="694.83" class="st18" width="410.21" height="64.88"/>
		<rect x="350.79" y="696.49" class="st19" width="410.21" height="64.88"/>
		<rect x="350.79" y="698.15" class="st20" width="410.21" height="64.88"/>
		<rect x="350.79" y="699.81" class="st21" width="410.21" height="64.88"/>
		<rect x="350.79" y="701.47" class="st22" width="410.21" height="64.88"/>
		<rect x="350.79" y="703.13" class="st23" width="410.21" height="64.88"/>
		<rect x="350.79" y="704.79" class="st24" width="410.21" height="64.88"/>
		<rect x="350.79" y="706.45" class="st25" width="410.21" height="64.88"/>
		<rect x="350.79" y="708.11" class="st26" width="410.21" height="64.88"/>
		<rect x="350.79" y="709.77" class="st27" width="410.21" height="64.88"/>
		<rect x="350.79" y="711.42" class="st28" width="410.21" height="64.88"/>
		<rect x="350.79" y="713.08" class="st29" width="410.21" height="64.88"/>
		<rect x="350.79" y="714.74" class="st30" width="410.21" height="64.88"/>
		<rect x="350.79" y="716.4" class="st31" width="410.21" height="64.88"/>
		<rect x="350.79" y="718.06" class="st32" width="410.21" height="64.88"/>
		<rect x="350.79" y="719.72" class="st33" width="410.21" height="64.88"/>
	</g>
</g>
<path class="st34" d="M416.95,726.82c-1.03-1.05-0.66-2.78-0.25-4.19c8.45-29.61,1.11-61.12-5.39-91.22
	c-8.57-39.7-15.63-79.73-21.17-119.97c-2.69-19.58-2.52-41.15-7.17-60.29c-3.96-16.32-11.92-31.19-5.4-48.62
	c5.41-14.47,19.23-23.84,28.41-36.27c10.85-14.68,14.95-34.14,10.97-51.95c-1.78-7.95-5.07-15.52-6.56-23.53
	c-3.99-21.35,5.06-42.75,13.89-62.59c-2.77,4.14-5.55,8.29-8.32,12.43c3.16-6.87,6.32-13.74,9.48-20.61
	c5.13,1.03,9.69,4.61,11.92,9.35c5.71-12.9,11.42-25.8,17.13-38.69c0.89-2,1.77-4,2.66-6c6.59-14.88,13.17-29.76,20.2-44.43
	c2.94,2.3,5.88,4.6,8.82,6.9c6.8-4.59,11.55-12.1,12.79-20.21c5.31,3.67,10.63,7.34,15.94,11.02c3.89-9.63,7.77-19.26,11.66-28.88
	c3.56,0.92,6.65,3.48,8.22,6.8c1.67-1.56,3.33-3.12,5-4.69c2.43,0.93,4.59,2.57,6.13,4.67c1.41-2.99,3.45-5.69,5.94-7.87
	c3.26,3.02,5.69,6.92,6.96,11.18c5.78-5.12,12.36-9.34,19.43-12.46c8.15,9.77,22.32,11.83,32.63,19.28
	c13.93,10.06,18.89,28.2,22.93,44.91c5.54-0.54,9.84,4.4,14.48,7.48c6,3.98,14.89,5.32,21.72,3.05c0.86,9.19,6.33,17.84,14.26,22.56
	c4.35,2.59,9.3,4.03,13.6,6.69c6.58,4.07,11.1,10.67,16.5,16.21s12.7,10.36,20.34,9.18c-5.22,1.67-4.9,9.54-1.63,13.94
	c3.28,4.39,8.37,7.56,10.27,12.69c5.01,13.53-15.18,29.29-6.49,40.82c-5.4,4.7-10.36,9.91-14.79,15.54
	c-1.92,2.44-3.83,5.34-3.31,8.4c0.52,3.06,5,5.14,6.82,2.63c2.86,9.16,4.91,18.58,6.09,28.1c1.07,8.6,1.45,17.3,3.25,25.77
	c2.48,11.68,7.68,22.77,15.08,32.14c-5.47,4.35-6.62,12.41-5.02,19.21c1.6,6.8,5.4,12.84,8.35,19.17
	c6.08,13.01,8.64,27.64,7.34,41.94c-0.21,2.35-0.54,4.75-1.59,6.86c-1.33,2.68-3.69,4.67-5.78,6.81
	c-10.56,10.78-15.04,27.15-11.45,41.81c0.72,2.92,1.73,5.92,1.1,8.86c-1.86,8.58-14.11,8.37-22.58,6.06
	c4.77,6.84,0.47,16.18-4.29,23.02c-4.75,6.85-10.24,14.97-7.44,22.81c-6.37-1.23-12.44,4.37-14.13,10.64
	c-1.69,6.27-0.16,12.9,1.36,19.21c-7.41-1.2-15.37,2.2-19.62,8.38c-4.25,6.18-4.58,14.83-0.81,21.32
	c-2.07,14.62,2.2,22.63,7.01,36.59c2.12,6.16,4.25,12.33,6.37,18.49"/>
<g class="st35">
	<path class="st36" d="M482,514.66c-2.04-2.74-3.11-6.13-5.26-8.78c-3.75-4.63-10.01-6.2-15.07-9.32
		c-5.89-3.62-10.15-9.35-13.92-15.15c-6.69-10.3-12.31-21.3-16.73-32.76c-1.47-3.8-2.82-7.9-1.96-11.89
		c0.86-3.98,4.81-7.57,8.76-6.56c3.61,0.92,5.44,5,5.9,8.7c0.47,3.7,0.12,7.6,1.64,11.01c2.02,4.53,6.9,7.13,11.74,8.23
		c4.83,1.1,9.87,1.03,14.73,1.98c11.56,2.28,38.42,16.16,38.13,30.1C509.79,498.77,490.57,526.16,482,514.66z"/>
	<path class="st33" d="M537.38,456.21c-1.91,9.6-16.93,11.09-20.03,20.37c-1.48,4.43,0.7,9.79,4.85,11.92
		c5.14,2.65,11.39,0.38,16.49-2.34c5.14-2.74,10.38-6.36,12.2-11.89c1.4-4.27,0.37-9.25-2.61-12.61c-2.98-3.36-7.81-4.98-12.21-4.09
		"/>
	<path class="st33" d="M517.41,209.96c-5.02,2.3-10.87,2.75-16.19,1.24c-3.91,3.38-8.1,8.17-6.44,13.07
		c1.07,3.15,4.36,5.08,7.62,5.76c3.26,0.69,6.64,0.42,9.96,0.71c2.67,0.23,5.41,0.82,8,0.12c5.06-1.37,7.71-7.61,6.27-12.64
		c-1.44-5.03-6.04-8.69-11.01-10.34"/>
	<path class="st33" d="M562.58,228.09c-2.86-2.11-7.68-2.67-15.75-0.9c-19.81,4.35-8.23,21.99-8.03,37.06
		c0.06,4.6,1.32,9.63,5.11,12.25c3.22,2.22,7.59,2.14,11.24,0.76s6.76-3.88,9.79-6.34c1.45-1.18,3.01-2.52,3.33-4.37
		c0.24-1.35-0.25-2.71-0.63-4.03C564.03,249.91,570.11,233.65,562.58,228.09z"/>
	<path class="st33" d="M493.55,280.56c0.07,3.27,0.57,7.22,3.54,8.58c2.78-4.25,8.78-4.8,13.81-4.14
		c16.85,2.2,17.77-2.42,16.12-17.25c-1.59-14.32,3.41-43.21-20.31-39.15C484.12,232.47,493.2,265.23,493.55,280.56z"/>
	<path class="st33" d="M542.9,289.55c0.67,3.55,2.28,6.85,3.39,10.29c4.16,12.94,0.94,27.02,2.3,40.54
		c0.36,3.58,1.12,7.31,3.46,10.05c2.33,2.74,6.66,4.07,9.65,2.07c1.92-1.29,2.88-3.57,4.41-5.3c1.53-1.73,4.45-2.81,6.05-1.15
		c0.66,0.68,0.9,1.65,1.31,2.5c1.16,2.42,3.87,4.01,6.55,3.84c5.08-6.42,4.03-15.6,2.46-23.64c-2.79-14.33-5.87-38-16.85-48.72
		C557.32,271.95,540.21,275.2,542.9,289.55z"/>
	<path class="st33" d="M450.46,330.55c-3.01,0.75-16.6,2.17-17.39,1.42c-0.62-0.58-0.93-1.41-1.22-2.2
		c-4.08-11.05-15.97-30.18-5.23-40.69c4.06-3.98,10.19-5.52,15.78-4.51c8.06,1.45,14.84,8.1,16.76,16.06
		c1.8,7.47-1.12,25.02-8.17,29.75C450.92,330.42,450.73,330.48,450.46,330.55z"/>
	<path class="st33" d="M510.42,366.65c0.54,1.1,1.26,2.27,2.44,2.58c2.46,0.63,3.91-2.7,6.1-3.99c4.53-2.68,10.07,4.18,15.03,2.42
		c4.2-1.49,4.11-7.39,3.23-11.75c-3.99-19.7-7.98-39.41-11.97-59.11c-0.37-1.81-0.74-3.64-1.5-5.33c-3.48-7.66-15.8-10.98-22.9-6.24
		c-8.78,5.85-4.39,13.71-1.97,21.92C504.53,326.34,501.43,348.52,510.42,366.65z"/>
	<path class="st33" d="M444.87,366.23c2.1,6.57,4.83,13.86,11.12,16.67c4.2,1.88,9.04,1.27,13.6,0.62
		c3.69-0.52,7.77-1.26,10.04-4.22c1.32-1.72,1.8-3.95,1.87-6.11c0.46-15.37-21.51-40.31-35.92-45.43
		C422.51,319.55,441.63,356.09,444.87,366.23z"/>
	<path class="st33" d="M538.76,227.11c-1.21,2.46-5.23,2.14-6.86-0.07c-1.63-2.21-1.38-5.29-0.55-7.91
		c0.83-2.62,2.18-5.09,2.56-7.81c0.35-2.47-0.08-5.17,1.2-7.31c1.52-2.55,4.84-3.28,7.79-3.63c6.38-0.74,12.83-0.79,19.22-0.14
		c1.35,0.14,2.85,0.38,3.68,1.46c0.59,0.76,0.72,1.78,0.82,2.74c0.59,5.61,1.17,11.21,1.76,16.82c-9.55,3.81-19.73,6.06-30,6.62
		c-0.72,0.04-1.53,0.04-2.04-0.46c-0.52-0.5-0.28-1.65,0.44-1.6"/>
	<path class="st33" d="M527.17,406.91c0.69,5.45-1.77,10.99-0.74,16.39c0.66,3.48,2.7,6.51,4.7,9.44c3.31,4.85,6.62,9.71,9.93,14.56
		c1.59,2.34,3.38,4.82,6.08,5.68c4.67,1.5,9.27-2.54,14.15-3.03c1.97-0.2,4,0.19,5.91-0.33c4.08-1.11,6.06-6.07,5.4-10.24
		c-0.66-4.18-3.21-7.77-5.52-11.31c-8.74-13.38-15.01-28.37-18.39-43.99c-0.84-3.87-1.58-7.95-4.06-11.03
		c-6.65-8.25-22.56-12.32-27.81-1.75C509.99,385.06,525.63,394.76,527.17,406.91z"/>
	<path class="st33" d="M598.09,232.91c-5.8-1-13.51-1-15.56,4.52c-1.58,4.24,1.53,8.59,3.58,12.62c5.36,10.58,3.75,23.7,9.36,34.14
		c6.14-1.21,12.28-2.41,18.42-3.62c1.85-0.36,3.8-0.77,5.22-2.01c2.36-2.05,2.51-5.78,1.41-8.71c-1.1-2.93-3.17-5.38-4.78-8.06
		c-3.22-5.37-4.55-11.84-3.73-18.05c0.43-3.27,1.41-6.72,0.08-9.74c-1.64-3.71-6.15-5.2-10.2-5.43c-7.69-0.44-15.52,2.28-21.28,7.39
		"/>
	<path class="st33" d="M602.26,229.33c-4.45-0.19-8.9-0.39-13.36-0.58c-2.04-0.09-4.23-0.23-5.85-1.47c-2.64-2.03-2.62-6-1.91-9.26
		c0.71-3.26,1.84-6.72,0.6-9.81c6.81-1.71,13.62-3.41,20.43-5.12c2.38,4.04,4.81,8.21,5.56,12.84s-0.54,9.91-4.38,12.62
		c-3.56,2.52-8.43,2.28-12.56,0.89"/>
	<path class="st33" d="M426.94,262.07c-6.46,4.01-17.52,30-2.31,29.08c4.09-0.25,7.41-3.71,11.49-4.08
		c4.08-0.37,9.24,2.06,11.69-1.23C456.2,274.57,439.26,254.42,426.94,262.07z"/>
	<path class="st33" d="M670.91,223.73c-4.13,0.95-8.27,1.9-12.4,2.85c-1.02,0.23-2.04,0.47-3.02,0.81
		c-7.75,2.67-12.03,12.58-8.68,20.05c0.42,0.94,0.97,1.87,1.81,2.47c0.89,0.63,2,0.83,3.07,1.01c4.16,0.7,8.4,1.41,12.58,0.81
		c4.18-0.6,8.36-2.73,10.38-6.43c2.35-4.31,1.32-9.63-0.15-14.31c-0.69-2.18-1.54-4.46-3.33-5.89c-2.8-2.25-6.84-1.71-10.38-1.06"/>
	<path class="st33" d="M611.66,281.54c-4.45,0.42-8.91,0.83-13.36,1.25c-3.93,5.59-3.58,13.01-3.08,19.82
		c1.13,15.33,2.26,30.67,3.4,46c0.16,2.2,0.58,4.79,2.56,5.74c2.62,1.27,5.39-1.39,7.01-3.81c0.52-0.77,1.08-1.59,1.96-1.89
		c1.33-0.46,2.71,0.49,3.78,1.4c2.76,2.33,6.01,4.97,9.53,4.19c2.7-0.6,4.6-3.18,5.24-5.88c0.63-2.69,0.25-5.51-0.15-8.25
		C626.9,328.54,627.67,279.53,611.66,281.54z"/>
	<path class="st33" d="M648.14,266.19c2.26,5.92,3.05,12.4,2.25,18.68c-0.25,1.99-0.65,4-0.32,5.98c0.6,3.58,3.55,6.37,6.78,8.04
		c4.3,2.23,9.58,2.91,14.03,1.01s7.77-6.68,7.2-11.49c-0.71-6-6.78-10.56-6.72-16.6c0.03-3.12,1.72-5.95,2.87-8.85
		c1.15-2.91,1.66-6.52-0.37-8.9C663.92,242.36,641.67,249.25,648.14,266.19z"/>
	<path class="st33" d="M570.63,357.67c-4.21-0.43-8.55,0.49-12.22,2.6c-2.69,8.91-0.05,18.45,2.24,27.48
		c3.85,15.23,6.67,30.72,8.44,46.33c0.5,4.44,0.97,9.05,3.27,12.87s7.04,6.6,11.25,5.14c3.84-1.33,8.86,0.14,12.89-0.35
		c3.53-0.43,7.48-1.1,9.51-4.02c1.16-1.66,1.45-3.77,1.63-5.79c0.79-9.07-0.14-18.28-2.72-27.01
		c-4.57-15.45-14.15-29.11-18.21-44.71c-0.89-3.42-1.53-6.97-3.25-10.06c-1.72-3.09-4.84-5.7-8.37-5.64
		C571.65,354.58,573.17,360,570.63,357.67z"/>
	<path class="st33" d="M635.45,410.99c4.31-6.99,8.76-14.41,9-22.63c0.12-4.06-0.63-8.7,2.14-11.67c2.36-2.53,6.26-2.65,9.71-2.6
		c8.2,0.12,17.8,0.98,22.18,7.91c4.9,7.75,0.07,17.89-5.46,25.2c-5.53,7.31-12.21,15.35-10.83,24.41
		c2.19,14.38,5.65,24.15,7.03,38.64c-2.89,3.59-8.66,3.68-12.57,1.24c-3.9-2.44-6.24-6.75-7.82-11.08
		c-1.85-5.07-2.91-10.4-3.95-15.69C642.58,433.02,637.75,422.69,635.45,410.99z"/>
	<path class="st33" d="M478.37,383.82c-0.66-1.17-1.31-2.33-1.97-3.5c4.2-0.11,8.04,2.63,10.55,6.01c2.51,3.38,3.99,7.38,5.8,11.18
		c6.75,14.11,18.65,25.68,32.94,32.05c4.23,1.89,8.87,3.47,11.83,7.05c5.99,7.24,1.95,18.39-4.08,25.59
		c-4.42,5.29-9.97,9.88-16.54,11.96c-6.58,2.09-14.28,1.35-19.63-3c-3.12-2.53-5.25-6.05-7.25-9.54
		c-12.4-21.59-22.31-44.62-29.46-68.47c-0.35-1.15-0.69-2.37-0.44-3.55c0.77-3.66,5.75-3.89,9.45-4.45
		c4.37-0.66,8.51-2.95,12.93-2.72c6.36,0.34,11.67,6.84,10.73,13.14c-1.11,7.46,1.77,16.92,7.59,21.72
		c5.82,4.81,13.07,7.45,20.17,10.02"/>
	<path class="st33" d="M572.99,448.83c-6.56,2.13-14.67,0.7-19.58,5.54c-4.5,4.43-3.77,12.01-1.04,17.71
		c0.84,1.75,1.88,3.48,3.48,4.57c2.15,1.47,4.93,1.54,7.54,1.57c6.8,0.07,15.27-0.97,17.54-7.37c1.25-3.51-0.01-7.41-1.67-10.74
		c-2.15-4.31-5-8.27-8.4-11.67"/>
	<path class="st33" d="M670.34,375.14c-3.29-3.83-8.41-6-13.45-5.71c-4.91,0.29-10.6,2.52-14.21-0.81
		c-2.12-1.95-2.52-5.21-1.93-8.02c0.59-2.82,2.01-5.38,3.07-8.06c5.4-13.68,1.14-29.01,0.53-43.71c-0.1-2.42,0.08-5.22,2.02-6.67
		c0.91-0.68,2.07-0.93,3.19-1.16c4-0.83,8-1.66,12-2.49c3.64-0.76,7.64-1.47,10.92,0.28c3.56,1.9,5.21,6.25,5.17,10.29
		c-0.04,4.04-1.45,7.91-2.55,11.8c-3.87,13.59-4.19,28.17-0.92,41.91c0.89,3.73,2,7.81,0.3,11.24c-2.01,4.06-8.07,5.36-11.57,2.48
		c-1.85-1.53-2.86-3.83-4.36-5.7s-4.02-3.4-6.23-2.46c0.34-1.1,1.86-1.62,2.8-0.96"/>
	<path class="st33" d="M603.23,452.98c-4.54-1.54-9.23-3.11-14-2.72c-4.78,0.39-9.69,3.26-10.94,7.88c-1.67,6.23,3.6,12,5.4,18.2
		c5.3,3.36,11.97,4.89,18,3.14s11.1-7.15,11.52-13.42s-4.59-12.68-10.87-12.94"/>
	<path class="st33" d="M660.56,470.51c-3.34-1.49-7.02-2.47-10.64-1.95s-7.13,2.74-8.44,6.15c-1.96,5.09,1.54,10.83,6.05,13.89
		c3.93,2.67,9.38,3.98,13.37,1.39c3.55-2.3,4.83-7.18,3.75-11.27s-4.1-7.44-7.55-9.89"/>
	<path class="st33" d="M613.15,551.39c-3.55,11.06-14.21,19.46-25.8,20.34c-22.28,1.69-39.07-21.09-60.98-25.45
		c-5.18-1.03-10.61-1.02-15.55-2.91c-10.58-4.05-16.34-17.58-11.93-28.01c8.89-21.06,30.76-31.98,53.35-35.45
		c10.94-1.68,22.09-0.88,33.15-1.25c20.82-0.7,44.16-4.85,60.47,8.12c1.82,1.45,3.55,3.16,4.39,5.33c1.54,3.99-0.31,8.6-3.24,11.71
		c-2.94,3.11-6.82,5.11-10.39,7.45c-15.28,9.99-25.58,27.23-27.15,45.43C608.65,555.35,613.96,552.73,613.15,551.39z"/>
	<path class="st33" d="M663.37,601.04c-0.16,8.24,4.47,15.68,7.28,23.42c2.81,7.74,3.21,17.82-3.35,22.8
		c-3.67,2.79-8.57,3.2-13.17,3.42c-8.4,0.39-17,0.46-24.97-2.24s-15.27-8.66-17.48-16.77c-4.72-17.34,14.69-33.28,13.2-51.19
		c-0.51-6.1-3.38-12.66-0.39-18c1.74-3.1,5.07-4.91,8.33-6.34c11.09-4.88,23.29-7.25,35.41-6.85c0.95,0.03,1.94,0.09,2.78,0.53
		c1.33,0.7,2.01,2.19,2.51,3.6C680.06,572.09,663.7,583.49,663.37,601.04z"/>
	<path class="st33" d="M628.35,455.81c-4.57-2.28-10.63-0.98-13.86,2.98s-3.3,10.15-0.16,14.18c2.14,2.74,5.42,4.36,8.71,5.46
		c4.87,1.64,10.28,2.34,15.11,0.6c4.83-1.74,8.84-6.4,8.61-11.53c-0.19-4.24-3.18-7.98-6.85-10.12s-7.95-2.94-12.16-3.5"/>
	<path class="st33" d="M649.35,551.47c9.89-5.69,18.03-15.04,20.91-26.37c4.28-16.82-8.1-34.65-25.86-22.93
		c-7.17,4.74-14.15,9.78-20.89,15.1c-3.11,2.45-6.3,5.15-7.69,8.86c-1.38,3.68-0.76,7.76-0.12,11.64
		c1.04,6.33,2.51,13.37,7.83,16.95c4.45,2.99,10.38,2.62,15.53,1.13C642.6,554.84,646.07,553.35,649.35,551.47z"/>
	<path class="st33" d="M427.94,233.89c-0.25-6.34-0.33-13.23,3.44-18.33c2.13,10.62,4.17,21.27,6.21,31.91
		c0.63,3.29,1.22,6.89-0.39,9.83c-1.99,3.64-6.12,3.29-8.92,1.08C429.23,250.38,428.25,241.97,427.94,233.89z"/>
	<path class="st33" d="M603.72,429.62c0.03,8.74,1.42,17.89,6.65,24.89c0.9,1.2,2.01,2.39,3.48,2.68c1.11,0.21,2.24-0.12,3.34-0.41
		c5.28-1.39,10.84-1.69,16.24-0.88c3.37,0.51,7.58,1.11,9.47-1.72c0.86-1.3,0.91-2.96,0.84-4.51c-0.42-8.88-3.81-17.3-6.25-25.85
		c-5.16-18.04-1.92-34.27-3.69-52.18c-1.89-19.14-11.35-7.3-21.84-14.2c-1.08-0.71-1.91-1.77-2.97-2.51
		c-4.11-2.85-10.23,0.34-12,5.01c-4.12,10.91,5.24,29.83,6.65,41.05C604.83,410.55,603.68,420.03,603.72,429.62z"/>
</g>
<g>
	<path class="st37" d="M482,514.66c-2.04-2.74-3.11-6.13-5.26-8.78c-3.75-4.63-10.01-6.2-15.07-9.32
		c-5.89-3.62-10.15-9.35-13.92-15.15c-6.69-10.3-12.31-21.3-16.73-32.76c-1.47-3.8-2.82-7.9-1.96-11.89
		c0.86-3.98,4.81-7.57,8.76-6.56c3.61,0.92,5.44,5,5.9,8.7c0.47,3.7,0.12,7.6,1.64,11.01c2.02,4.53,6.9,7.13,11.74,8.23
		c4.83,1.1,9.87,1.03,14.73,1.98c11.56,2.28,38.42,16.16,38.13,30.1C509.79,498.77,490.57,526.16,482,514.66z"/>
	<path class="st38" d="M537.38,456.21c-1.91,9.6-16.93,11.09-20.03,20.37c-1.48,4.43,0.7,9.79,4.85,11.92
		c5.14,2.65,11.39,0.38,16.49-2.34c5.14-2.74,10.38-6.36,12.2-11.89c1.4-4.27,0.37-9.25-2.61-12.61c-2.98-3.36-7.81-4.98-12.21-4.09
		"/>
	<path class="st38" d="M517.41,209.96c-5.02,2.3-10.87,2.75-16.19,1.24c-3.91,3.38-8.1,8.17-6.44,13.07
		c1.07,3.15,4.36,5.08,7.62,5.76c3.26,0.69,6.64,0.42,9.96,0.71c2.67,0.23,5.41,0.82,8,0.12c5.06-1.37,7.71-7.61,6.27-12.64
		c-1.44-5.03-6.04-8.69-11.01-10.34"/>
	<path class="st38" d="M562.58,228.09c-2.86-2.11-7.68-2.67-15.75-0.9c-19.81,4.35-8.23,21.99-8.03,37.06
		c0.06,4.6,1.32,9.63,5.11,12.25c3.22,2.22,7.59,2.14,11.24,0.76s6.76-3.88,9.79-6.34c1.45-1.18,3.01-2.52,3.33-4.37
		c0.24-1.35-0.25-2.71-0.63-4.03C564.03,249.91,570.11,233.65,562.58,228.09z"/>
	<path class="st38" d="M493.55,280.56c0.07,3.27,0.57,7.22,3.54,8.58c2.78-4.25,8.78-4.8,13.81-4.14
		c16.85,2.2,17.77-2.42,16.12-17.25c-1.59-14.32,3.41-43.21-20.31-39.15C484.12,232.47,493.2,265.23,493.55,280.56z"/>
	<path class="st38" d="M542.9,289.55c0.67,3.55,2.28,6.85,3.39,10.29c4.16,12.94,0.94,27.02,2.3,40.54
		c0.36,3.58,1.12,7.31,3.46,10.05c2.33,2.74,6.66,4.07,9.65,2.07c1.92-1.29,2.88-3.57,4.41-5.3c1.53-1.73,4.45-2.81,6.05-1.15
		c0.66,0.68,0.9,1.65,1.31,2.5c1.16,2.42,3.87,4.01,6.55,3.84c5.08-6.42,4.03-15.6,2.46-23.64c-2.79-14.33-5.87-38-16.85-48.72
		C557.32,271.95,540.21,275.2,542.9,289.55z"/>
	<path class="st38" d="M450.46,330.55c-3.01,0.75-16.6,2.17-17.39,1.42c-0.62-0.58-0.93-1.41-1.22-2.2
		c-4.08-11.05-15.97-30.18-5.23-40.69c4.06-3.98,10.19-5.52,15.78-4.51c8.06,1.45,14.84,8.1,16.76,16.06
		c1.8,7.47-1.12,25.02-8.17,29.75C450.92,330.42,450.73,330.48,450.46,330.55z"/>
	<path class="st38" d="M510.42,366.65c0.54,1.1,1.26,2.27,2.44,2.58c2.46,0.63,3.91-2.7,6.1-3.99c4.53-2.68,10.07,4.18,15.03,2.42
		c4.2-1.49,4.11-7.39,3.23-11.75c-3.99-19.7-7.98-39.41-11.97-59.11c-0.37-1.81-0.74-3.64-1.5-5.33c-3.48-7.66-15.8-10.98-22.9-6.24
		c-8.78,5.85-4.39,13.71-1.97,21.92C504.53,326.34,501.43,348.52,510.42,366.65z"/>
	<path class="st38" d="M444.87,366.23c2.1,6.57,4.83,13.86,11.12,16.67c4.2,1.88,9.04,1.27,13.6,0.62
		c3.69-0.52,7.77-1.26,10.04-4.22c1.32-1.72,1.8-3.95,1.87-6.11c0.46-15.37-21.51-40.31-35.92-45.43
		C422.51,319.55,441.63,356.09,444.87,366.23z"/>
	<path class="st38" d="M538.76,227.11c-1.21,2.46-5.23,2.14-6.86-0.07c-1.63-2.21-1.38-5.29-0.55-7.91
		c0.83-2.62,2.18-5.09,2.56-7.81c0.35-2.47-0.08-5.17,1.2-7.31c1.52-2.55,4.84-3.28,7.79-3.63c6.38-0.74,12.83-0.79,19.22-0.14
		c1.35,0.14,2.85,0.38,3.68,1.46c0.59,0.76,0.72,1.78,0.82,2.74c0.59,5.61,1.17,11.21,1.76,16.82c-9.55,3.81-19.73,6.06-30,6.62
		c-0.72,0.04-1.53,0.04-2.04-0.46c-0.52-0.5-0.28-1.65,0.44-1.6"/>
	<path class="st38" d="M527.17,406.91c0.69,5.45-1.77,10.99-0.74,16.39c0.66,3.48,2.7,6.51,4.7,9.44c3.31,4.85,6.62,9.71,9.93,14.56
		c1.59,2.34,3.38,4.82,6.08,5.68c4.67,1.5,9.27-2.54,14.15-3.03c1.97-0.2,4,0.19,5.91-0.33c4.08-1.11,6.06-6.07,5.4-10.24
		c-0.66-4.18-3.21-7.77-5.52-11.31c-8.74-13.38-15.01-28.37-18.39-43.99c-0.84-3.87-1.58-7.95-4.06-11.03
		c-6.65-8.25-22.56-12.32-27.81-1.75C509.99,385.06,525.63,394.76,527.17,406.91z"/>
	<path class="st38" d="M598.09,232.91c-5.8-1-13.51-1-15.56,4.52c-1.58,4.24,1.53,8.59,3.58,12.62c5.36,10.58,3.75,23.7,9.36,34.14
		c6.14-1.21,12.28-2.41,18.42-3.62c1.85-0.36,3.8-0.77,5.22-2.01c2.36-2.05,2.51-5.78,1.41-8.71c-1.1-2.93-3.17-5.38-4.78-8.06
		c-3.22-5.37-4.55-11.84-3.73-18.05c0.43-3.27,1.41-6.72,0.08-9.74c-1.64-3.71-6.15-5.2-10.2-5.43c-7.69-0.44-15.52,2.28-21.28,7.39
		"/>
	<path class="st38" d="M602.26,229.33c-4.45-0.19-8.9-0.39-13.36-0.58c-2.04-0.09-4.23-0.23-5.85-1.47c-2.64-2.03-2.62-6-1.91-9.26
		c0.71-3.26,1.84-6.72,0.6-9.81c6.81-1.71,13.62-3.41,20.43-5.12c2.38,4.04,4.81,8.21,5.56,12.84s-0.54,9.91-4.38,12.62
		c-3.56,2.52-8.43,2.28-12.56,0.89"/>
	<path class="st38" d="M426.94,262.07c-6.46,4.01-17.52,30-2.31,29.08c4.09-0.25,7.41-3.71,11.49-4.08
		c4.08-0.37,9.24,2.06,11.69-1.23C456.2,274.57,439.26,254.42,426.94,262.07z"/>
	<path class="st38" d="M670.91,223.73c-4.13,0.95-8.27,1.9-12.4,2.85c-1.02,0.23-2.04,0.47-3.02,0.81
		c-7.75,2.67-12.03,12.58-8.68,20.05c0.42,0.94,0.97,1.87,1.81,2.47c0.89,0.63,2,0.83,3.07,1.01c4.16,0.7,8.4,1.41,12.58,0.81
		c4.18-0.6,8.36-2.73,10.38-6.43c2.35-4.31,1.32-9.63-0.15-14.31c-0.69-2.18-1.54-4.46-3.33-5.89c-2.8-2.25-6.84-1.71-10.38-1.06"/>
	<path class="st38" d="M611.66,281.54c-4.45,0.42-8.91,0.83-13.36,1.25c-3.93,5.59-3.58,13.01-3.08,19.82
		c1.13,15.33,2.26,30.67,3.4,46c0.16,2.2,0.58,4.79,2.56,5.74c2.62,1.27,5.39-1.39,7.01-3.81c0.52-0.77,1.08-1.59,1.96-1.89
		c1.33-0.46,2.71,0.49,3.78,1.4c2.76,2.33,6.01,4.97,9.53,4.19c2.7-0.6,4.6-3.18,5.24-5.88c0.63-2.69,0.25-5.51-0.15-8.25
		C626.9,328.54,627.67,279.53,611.66,281.54z"/>
	<path class="st38" d="M648.14,266.19c2.26,5.92,3.05,12.4,2.25,18.68c-0.25,1.99-0.65,4-0.32,5.98c0.6,3.58,3.55,6.37,6.78,8.04
		c4.3,2.23,9.58,2.91,14.03,1.01s7.77-6.68,7.2-11.49c-0.71-6-6.78-10.56-6.72-16.6c0.03-3.12,1.72-5.95,2.87-8.85
		c1.15-2.91,1.66-6.52-0.37-8.9C663.92,242.36,641.67,249.25,648.14,266.19z"/>
	<path class="st38" d="M570.63,357.67c-4.21-0.43-8.55,0.49-12.22,2.6c-2.69,8.91-0.05,18.45,2.24,27.48
		c3.85,15.23,6.67,30.72,8.44,46.33c0.5,4.44,0.97,9.05,3.27,12.87s7.04,6.6,11.25,5.14c3.84-1.33,8.86,0.14,12.89-0.35
		c3.53-0.43,7.48-1.1,9.51-4.02c1.16-1.66,1.45-3.77,1.63-5.79c0.79-9.07-0.14-18.28-2.72-27.01
		c-4.57-15.45-14.15-29.11-18.21-44.71c-0.89-3.42-1.53-6.97-3.25-10.06c-1.72-3.09-4.84-5.7-8.37-5.64
		C571.65,354.58,573.17,360,570.63,357.67z"/>
	<path class="st38" d="M635.45,410.99c4.31-6.99,8.76-14.41,9-22.63c0.12-4.06-0.63-8.7,2.14-11.67c2.36-2.53,6.26-2.65,9.71-2.6
		c8.2,0.12,17.8,0.98,22.18,7.91c4.9,7.75,0.07,17.89-5.46,25.2c-5.53,7.31-12.21,15.35-10.83,24.41
		c2.19,14.38,5.65,24.15,7.03,38.64c-2.89,3.59-8.66,3.68-12.57,1.24c-3.9-2.44-6.24-6.75-7.82-11.08
		c-1.85-5.07-2.91-10.4-3.95-15.69C642.58,433.02,637.75,422.69,635.45,410.99z"/>
	<path class="st38" d="M478.37,383.82c-0.66-1.17-1.31-2.33-1.97-3.5c4.2-0.11,8.04,2.63,10.55,6.01c2.51,3.38,3.99,7.38,5.8,11.18
		c6.75,14.11,18.65,25.68,32.94,32.05c4.23,1.89,8.87,3.47,11.83,7.05c5.99,7.24,1.95,18.39-4.08,25.59
		c-4.42,5.29-9.97,9.88-16.54,11.96c-6.58,2.09-14.28,1.35-19.63-3c-3.12-2.53-5.25-6.05-7.25-9.54
		c-12.4-21.59-22.31-44.62-29.46-68.47c-0.35-1.15-0.69-2.37-0.44-3.55c0.77-3.66,5.75-3.89,9.45-4.45
		c4.37-0.66,8.51-2.95,12.93-2.72c6.36,0.34,11.67,6.84,10.73,13.14c-1.11,7.46,1.77,16.92,7.59,21.72
		c5.82,4.81,13.07,7.45,20.17,10.02"/>
	<path class="st38" d="M572.99,448.83c-6.56,2.13-14.67,0.7-19.58,5.54c-4.5,4.43-3.77,12.01-1.04,17.71
		c0.84,1.75,1.88,3.48,3.48,4.57c2.15,1.47,4.93,1.54,7.54,1.57c6.8,0.07,15.27-0.97,17.54-7.37c1.25-3.51-0.01-7.41-1.67-10.74
		c-2.15-4.31-5-8.27-8.4-11.67"/>
	<path class="st38" d="M670.34,375.14c-3.29-3.83-8.41-6-13.45-5.71c-4.91,0.29-10.6,2.52-14.21-0.81
		c-2.12-1.95-2.52-5.21-1.93-8.02c0.59-2.82,2.01-5.38,3.07-8.06c5.4-13.68,1.14-29.01,0.53-43.71c-0.1-2.42,0.08-5.22,2.02-6.67
		c0.91-0.68,2.07-0.93,3.19-1.16c4-0.83,8-1.66,12-2.49c3.64-0.76,7.64-1.47,10.92,0.28c3.56,1.9,5.21,6.25,5.17,10.29
		c-0.04,4.04-1.45,7.91-2.55,11.8c-3.87,13.59-4.19,28.17-0.92,41.91c0.89,3.73,2,7.81,0.3,11.24c-2.01,4.06-8.07,5.36-11.57,2.48
		c-1.85-1.53-2.86-3.83-4.36-5.7s-4.02-3.4-6.23-2.46c0.34-1.1,1.86-1.62,2.8-0.96"/>
	<path class="st38" d="M603.23,452.98c-4.54-1.54-9.23-3.11-14-2.72c-4.78,0.39-9.69,3.26-10.94,7.88c-1.67,6.23,3.6,12,5.4,18.2
		c5.3,3.36,11.97,4.89,18,3.14s11.1-7.15,11.52-13.42s-4.59-12.68-10.87-12.94"/>
	<path class="st38" d="M660.56,470.51c-3.34-1.49-7.02-2.47-10.64-1.95s-7.13,2.74-8.44,6.15c-1.96,5.09,1.54,10.83,6.05,13.89
		c3.93,2.67,9.38,3.98,13.37,1.39c3.55-2.3,4.83-7.18,3.75-11.27s-4.1-7.44-7.55-9.89"/>
	<path class="st38" d="M613.15,551.39c-3.55,11.06-14.21,19.46-25.8,20.34c-22.28,1.69-39.07-21.09-60.98-25.45
		c-5.18-1.03-10.61-1.02-15.55-2.91c-10.58-4.05-16.34-17.58-11.93-28.01c8.89-21.06,30.76-31.98,53.35-35.45
		c10.94-1.68,22.09-0.88,33.15-1.25c20.82-0.7,44.16-4.85,60.47,8.12c1.82,1.45,3.55,3.16,4.39,5.33c1.54,3.99-0.31,8.6-3.24,11.71
		c-2.94,3.11-6.82,5.11-10.39,7.45c-15.28,9.99-25.58,27.23-27.15,45.43C608.65,555.35,613.96,552.73,613.15,551.39z"/>
	<path class="st38" d="M663.37,601.04c-0.16,8.24,4.47,15.68,7.28,23.42c2.81,7.74,3.21,17.82-3.35,22.8
		c-3.67,2.79-8.57,3.2-13.17,3.42c-8.4,0.39-17,0.46-24.97-2.24s-15.27-8.66-17.48-16.77c-4.72-17.34,14.69-33.28,13.2-51.19
		c-0.51-6.1-3.38-12.66-0.39-18c1.74-3.1,5.07-4.91,8.33-6.34c11.09-4.88,23.29-7.25,35.41-6.85c0.95,0.03,1.94,0.09,2.78,0.53
		c1.33,0.7,2.01,2.19,2.51,3.6C680.06,572.09,663.7,583.49,663.37,601.04z"/>
	<path class="st38" d="M628.35,455.81c-4.57-2.28-10.63-0.98-13.86,2.98s-3.3,10.15-0.16,14.18c2.14,2.74,5.42,4.36,8.71,5.46
		c4.87,1.64,10.28,2.34,15.11,0.6c4.83-1.74,8.84-6.4,8.61-11.53c-0.19-4.24-3.18-7.98-6.85-10.12s-7.95-2.94-12.16-3.5"/>
	<path class="st38" d="M649.35,551.47c9.89-5.69,18.03-15.04,20.91-26.37c4.28-16.82-8.1-34.65-25.86-22.93
		c-7.17,4.74-14.15,9.78-20.89,15.1c-3.11,2.45-6.3,5.15-7.69,8.86c-1.38,3.68-0.76,7.76-0.12,11.64
		c1.04,6.33,2.51,13.37,7.83,16.95c4.45,2.99,10.38,2.62,15.53,1.13C642.6,554.84,646.07,553.35,649.35,551.47z"/>
	<path class="st38" d="M427.94,233.89c-0.25-6.34-0.33-13.23,3.44-18.33c2.13,10.62,4.17,21.27,6.21,31.91
		c0.63,3.29,1.22,6.89-0.39,9.83c-1.99,3.64-6.12,3.29-8.92,1.08C429.23,250.38,428.25,241.97,427.94,233.89z"/>
	<path class="st38" d="M603.72,429.62c0.03,8.74,1.42,17.89,6.65,24.89c0.9,1.2,2.01,2.39,3.48,2.68c1.11,0.21,2.24-0.12,3.34-0.41
		c5.28-1.39,10.84-1.69,16.24-0.88c3.37,0.51,7.58,1.11,9.47-1.72c0.86-1.3,0.91-2.96,0.84-4.51c-0.42-8.88-3.81-17.3-6.25-25.85
		c-5.16-18.04-1.92-34.27-3.69-52.18c-1.89-19.14-11.35-7.3-21.84-14.2c-1.08-0.71-1.91-1.77-2.97-2.51
		c-4.11-2.85-10.23,0.34-12,5.01c-4.12,10.91,5.24,29.83,6.65,41.05C604.83,410.55,603.68,420.03,603.72,429.62z"/>
</g>
<g>
	<rect x="4" y="110.52" class="st39" width="198.14" height="255.19"/>
	<text transform="matrix(1 0 0 1 3.9987 125.5184)"><tspan x="0" y="0" class="st40 st41 st42">Giant pandas have six </tspan><tspan x="0" y="24" class="st40 st41 st42">fingers. Ttheir thumbs </tspan><tspan x="0" y="48" class="st40 st41 st42">cannot move, and the </tspan><tspan x="0" y="72" class="st40 st41 st42">other five fingers are </tspan><tspan x="0" y="96" class="st40 st41 st42">arranged in a straight </tspan><tspan x="0" y="120" class="st40 st41 st42">line.</tspan></text>
</g>
<g>
	<rect x="4" y="439.41" class="st39" width="198.14" height="255.19"/>
	<text transform="matrix(1 0 0 1 3.999 454.4071)"><tspan x="0" y="0" class="st40 st41 st42">Unlike other bears, the </tspan><tspan x="0" y="24" class="st40 st41 st42">panda&apos;s sixth digit </tspan><tspan x="0" y="48" class="st40 st41 st42">plays the role of an </tspan><tspan x="0" y="72" class="st40 st41 st42">opposable thumb, </tspan><tspan x="0" y="96" class="st40 st41 st42">which allows it to </tspan><tspan x="0" y="120" class="st40 st41 st42">work with the other </tspan><tspan x="0" y="144" class="st40 st41 st42">digits and hold </tspan><tspan x="0" y="168" class="st40 st41 st42">bamboo efficiently.</tspan></text>
</g>
<g>
	<text transform="matrix(1 0 0 1 4 91.7137)" class="st40 st43 st44">FALSE THUMB</text>
</g>
<g>
	<g>
		<line class="st45" x1="469.39" y1="694.32" x2="469.39" y2="527.69"/>
		<g>
			<polygon class="st33" points="471.05,528.95 469.39,528.24 467.72,528.95 469.39,525 			"/>
		</g>
	</g>
</g>
<line class="st46" x1="469.39" y1="733.16" x2="469.39" y2="694.32"/>
<path class="st47" d="M174.04,764.61c0,0,0.46-215.22,273.72-283.2"/>
</svg>
