<?xml version="1.0" encoding="utf-8"?>
<!-- Generator: Adobe Illustrator 24.3.2, SVG Export Plug-In . SVG Version: 6.00 Build 0)  -->
<svg version="1.1" id="Layer_1" xmlns="http://www.w3.org/2000/svg" xmlns:xlink="http://www.w3.org/1999/xlink" x="0px" y="0px"
	 viewBox="0 0 795 764.61" style="enable-background:new 0 0 795 764.61;" xml:space="preserve">
<style type="text/css">
	@import url('https://fonts.googleapis.com/css?family=Roboto:300,400,700');
	.st0{fill:none;stroke:#000000;stroke-width:0.5;stroke-miterlimit:10;}
	.st1{fill:none;stroke:#231F20;stroke-miterlimit:10;}
	.st2{opacity:0.4;}
	.st3{fill:#F05A28;}
	.st4{fill:#FFFFFF;}
	.st5{fill:none;stroke:#FFFFFF;stroke-width:0.3;stroke-miterlimit:10;}
	.st6{fill:none;}
	.st7{fill:#231F20;}
	.st8{font-family:'Roboto';font-weight: 300;}
	.st9{font-size:26px;}
	.st10{font-family:'Roboto';font-weight: 700;}
	.st11{font-size:34px;}
	.st12{fill:none;stroke:#F05A28;stroke-miterlimit:10;}
</style>
<image style="overflow:visible;" width="396" height="623" xlink:href="D7312A1A896B7901.jpg"  transform="matrix(1 0 0 1 367 128.61)">
</image>
<path class="st0" d="M174.04,764.61c0,0,0.46-215.22,273.72-283.2"/>
<g>
	<path class="st1" d="M415.78,319.29c0.81-2.66-20.32-23.56-23.21-26.48c-9.92-10.05-17.84-21.76-24.51-34.17
		c-13.43-24.99-21.61-52.37-31.92-78.69c-17.34-44.28-41.53-85.86-71.46-122.81"/>
	<path class="st1" d="M410.29,12.02c12.85,24.9,25.69,49.8,38.54,74.71c2.37,4.59,4.76,9.22,8.07,13.19
		c7.62,9.14,19.17,13.79,29.79,19.17c16.8,8.52,32.27,19.66,45.68,32.9c7.96,7.86,15.29,13.11,23.54,20.66
		c4.2,3.85,8.76,8.55,8.34,14.24"/>
	<path class="st1" d="M434.39,109.92c-19.39,0.67-33.35,18.52-51.13,26.28c-8.36,3.65-17.98,5.25-24.63,11.5"/>
	<path class="st1" d="M411.39,168.67c4.31,9.19,7.6,18.85,9.81,28.75"/>
</g>
<g class="st2">
	<path class="st3" d="M481.16,500.23c-1.91-2.57-2.91-5.74-4.93-8.23c-3.51-4.34-9.38-5.81-14.13-8.74
		c-5.52-3.4-9.51-8.76-13.04-14.2c-6.27-9.66-11.53-19.96-15.68-30.7c-1.38-3.56-2.65-7.41-1.84-11.14c0.81-3.73,4.51-7.1,8.21-6.15
		c3.39,0.86,5.1,4.69,5.53,8.16s0.12,7.12,1.54,10.32c1.89,4.24,6.47,6.69,11,7.71c4.53,1.03,9.25,0.96,13.81,1.86
		c10.83,2.14,36.01,15.14,35.74,28.22C507.21,485.33,489.2,511,481.16,500.23z"/>
	<path class="st4" d="M533.07,445.43c-1.79,9-15.87,10.39-18.78,19.09c-1.39,4.15,0.65,9.17,4.55,11.18
		c4.82,2.48,10.67,0.35,15.46-2.2c4.82-2.57,9.73-5.96,11.44-11.15c1.31-4,0.35-8.67-2.45-11.82c-2.8-3.15-7.32-4.66-11.45-3.83"/>
	<path class="st4" d="M493.56,215.77c-4.22,3-9.53,4.43-14.69,3.97c-3.01,3.8-6.04,8.94-3.65,13.16c1.54,2.72,4.9,3.91,8.02,3.98
		c3.12,0.06,6.19-0.77,9.3-1.09c2.5-0.25,5.13-0.19,7.39-1.29c4.42-2.14,5.77-8.35,3.57-12.74c-2.21-4.38-7.07-6.94-11.94-7.6"/>
	<path class="st4" d="M544.49,232.33c-2.94-1.56-7.49-1.42-14.73,1.32c-17.77,6.75-4.61,21.52-2.35,35.46
		c0.69,4.26,2.55,8.75,6.42,10.65c3.29,1.62,7.33,0.94,10.53-0.84c3.2-1.78,5.73-4.53,8.21-7.23c1.19-1.29,2.44-2.75,2.48-4.51
		c0.03-1.29-0.6-2.48-1.13-3.65C548.83,252.36,552.23,236.45,544.49,232.33z"/>
	<path class="st4" d="M483.91,284.96c0.64,3,1.78,6.55,4.76,7.28c1.82-4.4,7.24-5.96,12-6.23c15.9-0.92,15.94-5.33,11.83-18.7
		c-3.97-12.91-4.41-40.39-25.54-32.5C466.83,242.32,480.91,270.9,483.91,284.96z"/>
	<path class="st4" d="M533.72,291.25c0.86,3.28,2.59,6.25,3.86,9.4c4.76,11.82,2.7,25.2,4.88,37.75c0.58,3.32,1.54,6.76,3.91,9.16
		c2.37,2.41,6.5,3.36,9.16,1.28c1.71-1.33,2.45-3.53,3.77-5.25c1.32-1.72,3.97-2.93,5.58-1.48c0.66,0.59,0.95,1.48,1.39,2.25
		c1.24,2.19,3.89,3.49,6.38,3.14c4.32-6.35,2.71-14.86,0.71-22.27c-3.58-13.21-8.04-35.13-19.03-44.41
		C546.02,273.82,530.24,278.02,533.72,291.25z"/>
	<path class="st4" d="M456.64,338.55c-2.59,0.64-14.3,1.87-14.98,1.22c-0.53-0.5-0.8-1.21-1.05-1.9c-3.52-9.52-13.75-26-4.51-35.05
		c3.5-3.43,8.78-4.76,13.6-3.89c6.94,1.25,12.79,6.98,14.44,13.83c1.55,6.44-0.96,21.55-7.03,25.62
		C457.03,338.44,456.87,338.49,456.64,338.55z"/>
	<path class="st4" d="M507.79,362.21c0.61,0.97,1.39,2,2.52,2.18c2.35,0.36,3.4-2.88,5.32-4.29c3.98-2.92,9.78,2.97,14.24,0.86
		c3.77-1.78,3.15-7.27,1.92-11.26c-5.55-18.01-11.1-36.02-16.65-54.02c-0.51-1.66-1.03-3.33-1.9-4.83
		c-3.96-6.82-15.75-8.78-21.94-3.7c-7.64,6.28-2.82,13.2,0.2,20.63C498.57,325.17,497.73,346.14,507.79,362.21z"/>
	<path class="st4" d="M451.83,369.28c1.81,5.66,4.16,11.94,9.58,14.36c3.62,1.62,7.79,1.09,11.71,0.54
		c3.18-0.45,6.69-1.09,8.65-3.63c1.14-1.48,1.55-3.4,1.61-5.26c0.4-13.24-18.53-34.72-30.94-39.14
		C432.56,329.08,449.03,360.55,451.83,369.28z"/>
	<path class="st4" d="M522.26,234.69c-0.78,2.45-4.56,2.7-6.37,0.88s-2.01-4.72-1.59-7.26c0.41-2.54,1.32-5.02,1.3-7.59
		c-0.02-2.34-0.78-4.78,0.11-6.94c1.06-2.58,4.03-3.71,6.72-4.43c5.81-1.56,11.79-2.49,17.8-2.77c1.27-0.06,2.69-0.03,3.61,0.84
		c0.66,0.62,0.91,1.55,1.13,2.43c1.31,5.12,2.63,10.23,3.94,15.35c-8.33,4.85-17.46,8.33-26.91,10.26
		c-0.66,0.14-1.41,0.25-1.96-0.15c-0.55-0.4-0.48-1.49,0.19-1.55"/>
	<path class="st4" d="M523.5,399.23c0.65,5.11-1.66,10.3-0.7,15.36c0.62,3.26,2.53,6.11,4.4,8.85c3.1,4.55,6.21,9.1,9.31,13.65
		c1.49,2.19,3.17,4.52,5.69,5.33c4.38,1.4,8.69-2.38,13.26-2.84c1.85-0.18,3.75,0.18,5.54-0.31c3.83-1.04,5.68-5.69,5.06-9.6
		s-3.01-7.28-5.18-10.6c-8.2-12.54-14.07-26.59-17.24-41.23c-0.78-3.62-1.48-7.45-3.81-10.34c-6.23-7.73-21.15-11.54-26.07-1.64
		C507.39,378.74,522.06,387.83,523.5,399.23z"/>
	<path class="st4" d="M573.28,231.79c-6.55-0.44-15.11,0.31-16.8,6.08c-1.29,4.43,2.63,8.51,5.34,12.38
		c7.09,10.14,6.73,23.53,14.09,33.51c6.69-1.82,13.39-3.64,20.08-5.45c2.02-0.55,4.13-1.15,5.58-2.54c2.4-2.3,2.16-6.07,0.62-8.92
		c-1.54-2.85-4.1-5.11-6.18-7.66c-4.15-5.1-6.34-11.5-6.1-17.84c0.13-3.33,0.85-6.92-0.96-9.82c-2.22-3.58-7.39-4.64-11.92-4.48
		c-8.59,0.31-16.99,3.82-22.85,9.54"/>
	<path class="st4" d="M577.52,227.77c-4.97,0.24-9.93,0.48-14.9,0.72c-2.28,0.11-4.72,0.18-6.66-0.91
		c-6.01-3.41-3.75-15.3,0.48-19.08c6.9-6.16,16.43-7.45,22.84-0.19c4.93,5.59,5.43,13.8-0.63,18.55c-3.68,2.89-9.12,3.12-13.86,2.13
		"/>
	<path class="st4" d="M436.38,279.56c-5.56,3.45-15.09,25.85-1.99,25.05c3.52-0.21,6.39-3.19,9.9-3.52
		c3.52-0.32,7.96,1.77,10.07-1.06C461.59,290.33,446.99,272.97,436.38,279.56z"/>
	<path class="st4" d="M632.46,243.23c-3.65,1.47-7.31,2.94-10.96,4.41c-0.9,0.36-1.8,0.72-2.65,1.17
		c-6.69,3.52-8.98,12.74-4.63,18.66c0.55,0.75,1.21,1.46,2.09,1.84c0.92,0.4,1.98,0.4,3,0.39c3.96-0.05,7.99-0.11,11.74-1.28
		c3.75-1.17,7.25-3.66,8.49-7.18c1.44-4.09-0.4-8.52-2.54-12.32c-1-1.78-2.17-3.6-4.06-4.56c-2.96-1.5-6.6-0.4-9.75,0.72"/>
	<path class="st4" d="M594.46,279.35c-4.37,0.82-8.74,1.65-13.11,2.47c-3.35,5.79-2.29,12.96-1.14,19.51
		c2.6,14.76,5.19,29.52,7.79,44.28c0.37,2.11,1.03,4.59,3.09,5.33c2.72,0.98,5.2-1.85,6.58-4.35c0.44-0.79,0.92-1.65,1.76-2.02
		c1.28-0.57,2.73,0.22,3.88,1c2.95,1.99,6.43,4.26,9.84,3.17c2.62-0.84,4.25-3.52,4.62-6.19c0.37-2.67-0.29-5.37-0.94-7.99
		C614.08,323.48,610.13,275.9,594.46,279.35z"/>
	<path class="st4" d="M618.6,283.43c3.08,4.75,4.89,10.22,5.22,15.76c0.1,1.76,0.07,3.56,0.71,5.21c1.16,3,4.34,4.94,7.6,5.87
		c4.34,1.25,9.32,1.01,13.11-1.33c3.79-2.34,6.04-6.98,4.71-11.04c-1.66-5.06-8.02-8.05-8.98-13.26c-0.5-2.7,0.59-5.4,1.16-8.09
		c0.57-2.69,0.43-5.89-1.83-7.62C629.14,260.39,609.78,269.83,618.6,283.43z"/>
	<path class="st4" d="M564.24,353.07c-3.95-0.4-8.01,0.46-11.46,2.44c-2.52,8.36-0.04,17.29,2.1,25.76
		c3.61,14.28,6.26,28.8,7.91,43.43c0.47,4.16,0.91,8.48,3.07,12.06c2.16,3.59,6.59,6.19,10.55,4.82c3.6-1.25,8.31,0.13,12.08-0.33
		c3.31-0.4,7.01-1.03,8.92-3.77c1.09-1.56,1.36-3.53,1.53-5.43c0.74-8.5-0.13-17.13-2.55-25.31c-4.28-14.48-13.26-27.29-17.07-41.91
		c-0.83-3.21-1.43-6.54-3.05-9.43s-4.53-5.34-7.85-5.29C565.2,350.17,566.61,355.26,564.24,353.07z"/>
	<path class="st4" d="M624.99,406.53c4.04-6.13,8.21-12.64,8.43-19.84c0.11-3.56-0.59-7.63,2.01-10.24c2.21-2.22,5.86-2.33,9.1-2.28
		c7.69,0.11,16.68,0.86,20.79,6.94c4.6,6.79,0.07,15.68-5.12,22.1c-5.18,6.41-11.44,13.46-10.15,21.41
		c2.05,12.61,5.29,21.18,6.59,33.88c-2.71,3.14-8.12,3.23-11.78,1.09c-3.66-2.14-5.85-5.92-7.33-9.71
		c-1.74-4.45-2.72-9.12-3.7-13.76C631.68,425.85,627.16,416.78,624.99,406.53z"/>
	<path class="st4" d="M531.64,429.9c-1.83-2.22-4.49-4.58-6.97-6.03c-2.59-1.51-5.14-2.39-7.46-4.32c-2.15-1.79-4.57-3.32-6.77-5.09
		c-4.66-3.76-8.87-8.22-11.45-13.67c-2.81-5.94-4.4-13.67-10.59-15.88c0,0-1.95-1.79-4.16-1.67c-3.8,0.21-7.37,1.78-11.14,2.34
		c-3.19,0.48-7.48,0.68-8.14,3.83c-0.21,1.02,0.08,2.06,0.38,3.05c6.16,20.55,14.7,40.38,25.38,58.98c1.72,3,3.56,6.03,6.24,8.21
		c4.61,3.74,11.25,4.38,16.91,2.58s10.44-5.75,14.25-10.31C533.32,445.74,536.8,436.14,531.64,429.9z"/>
	<path class="st4" d="M566.45,438.52c-6.14,2-13.75,0.65-18.35,5.19c-4.22,4.16-3.53,11.26-0.98,16.6c0.78,1.64,1.76,3.26,3.26,4.29
		c2.02,1.38,4.62,1.45,7.06,1.47c6.37,0.06,14.31-0.91,16.45-6.91c1.17-3.29-0.01-6.94-1.57-10.07c-2.02-4.04-4.69-7.75-7.88-10.94"
		/>
	<path class="st4" d="M657.35,373.94c-3.67-2.79-8.76-3.86-13.36-2.81c-4.48,1.02-9.35,3.84-13.24,1.53
		c-2.28-1.35-3.2-4.1-3.13-6.62c0.07-2.52,0.95-4.96,1.48-7.43c2.68-12.65-3.82-25.2-6.85-37.79c-0.5-2.07-0.81-4.52,0.74-6.07
		c0.73-0.73,1.75-1.13,2.74-1.5c3.55-1.34,7.1-2.69,10.65-4.03c3.23-1.22,6.79-2.47,10.12-1.47c3.61,1.08,5.85,4.57,6.49,8.06
		s0,7.05-0.37,10.58c-1.29,12.33,0.86,24.96,6.19,36.31c1.44,3.08,3.16,6.42,2.17,9.65c-1.17,3.82-6.54,5.89-10.25,3.96
		c-1.96-1.03-3.28-2.85-4.98-4.23c-1.7-1.38-4.28-2.3-6.16-1.15c0.13-1,1.45-1.69,2.42-1.27"/>
	<path class="st4" d="M594.79,442.41c-4.25-1.45-8.65-2.91-13.13-2.55c-4.48,0.36-9.09,3.05-10.25,7.39
		c-1.57,5.84,3.37,11.25,5.07,17.06c4.97,3.15,11.22,4.58,16.87,2.94c5.65-1.64,10.4-6.7,10.8-12.58
		c0.39-5.87-4.31-11.88-10.18-12.13"/>
	<path class="st4" d="M648.53,458.84c-3.13-1.39-6.58-2.31-9.97-1.83c-3.39,0.48-6.69,2.57-7.92,5.76
		c-1.83,4.77,1.44,10.15,5.67,13.02c3.68,2.5,8.79,3.73,12.53,1.3c3.33-2.16,4.53-6.73,3.52-10.57c-1.01-3.84-3.84-6.97-7.08-9.27"
		/>
	<path class="st4" d="M604.09,534.65c-3.33,10.37-13.32,18.25-24.18,19.07c-20.88,1.58-36.62-19.76-57.16-23.86
		c-4.86-0.97-9.95-0.95-14.57-2.72c-9.91-3.8-15.31-16.48-11.18-26.26c8.33-19.74,28.83-29.98,50.01-33.23
		c10.25-1.58,20.7-0.83,31.07-1.18c19.52-0.65,41.4-4.55,56.68,7.61c1.71,1.36,3.33,2.96,4.12,5c1.45,3.74-0.29,8.06-3.04,10.98
		c-2.75,2.91-6.39,4.79-9.74,6.98c-14.32,9.37-23.98,25.53-25.45,42.58C599.87,538.36,604.86,535.91,604.09,534.65z"/>
	<path class="st4" d="M651.17,581.19c-0.15,7.72,4.19,14.7,6.83,21.96c2.64,7.26,3.01,16.7-3.14,21.38c-3.44,2.62-8.03,3-12.35,3.2
		c-7.87,0.37-15.94,0.43-23.4-2.1c-7.46-2.53-14.31-8.11-16.38-15.72c-4.42-16.25,13.77-31.2,12.37-47.98
		c-0.48-5.72-3.17-11.86-0.37-16.87c1.63-2.9,4.76-4.6,7.8-5.95c10.4-4.58,21.83-6.79,33.19-6.42c0.89,0.03,1.82,0.08,2.61,0.5
		c1.24,0.65,1.88,2.05,2.35,3.38C666.81,554.06,651.48,564.74,651.17,581.19z"/>
	<path class="st4" d="M618.34,445.06c-4.28-2.13-9.97-0.91-12.99,2.79c-3.03,3.7-3.09,9.52-0.15,13.29
		c2.01,2.57,5.08,4.08,8.17,5.12c4.56,1.53,9.63,2.19,14.16,0.56s8.29-6,8.07-10.81c-0.18-3.98-2.98-7.48-6.42-9.48
		c-3.44-2.01-7.45-2.75-11.4-3.28"/>
	<path class="st4" d="M638.03,534.73c9.27-5.33,16.9-14.1,19.6-24.72c4.01-15.76-7.6-32.48-24.24-21.49
		c-6.72,4.44-13.26,9.16-19.58,14.16c-2.91,2.3-5.91,4.82-7.21,8.3c-1.29,3.45-0.71,7.28-0.12,10.91
		c0.97,5.93,2.36,12.53,7.34,15.89c4.17,2.81,9.73,2.45,14.56,1.06C631.69,537.88,634.95,536.49,638.03,534.73z"/>
	<path class="st4" d="M437.24,255.28c-0.21-5.46-0.29-11.39,2.96-15.79c1.84,9.15,3.59,18.32,5.35,27.49
		c0.54,2.83,1.05,5.93-0.34,8.47c-1.72,3.13-5.27,2.84-7.68,0.93C438.35,269.49,437.51,262.25,437.24,255.28z"/>
	<path class="st4" d="M595.25,420.51c0.03,8.19,1.33,16.77,6.23,23.33c0.84,1.13,1.89,2.24,3.27,2.51c1.04,0.2,2.1-0.12,3.13-0.39
		c4.95-1.31,10.16-1.59,15.22-0.82c3.16,0.48,7.11,1.04,8.88-1.62c0.81-1.21,0.85-2.77,0.79-4.23c-0.39-8.32-3.57-16.22-5.86-24.23
		c-4.83-16.91-1.8-32.12-3.46-48.91c-1.78-17.94-10.64-6.84-20.47-13.31c-1.02-0.67-1.79-1.66-2.79-2.35
		c-3.85-2.67-9.59,0.32-11.25,4.7c-3.87,10.23,4.91,27.96,6.23,38.48C596.29,402.63,595.21,411.52,595.25,420.51z"/>
	<path class="st4" d="M488.19,191.62c-0.74-3.17-1.56-6.52-3.85-8.85c-1.29-1.32-2.96-2.2-4.59-3.06c-1.42-0.75-3.53-1.33-4.34,0.06
		c-0.34,0.59-0.27,1.33-0.18,2c0.93,7.29,0.07,32.64,9.02,33.99C497.36,217.74,489.5,197.29,488.19,191.62z"/>
	<path class="st4" d="M502.12,169.77c-1.36-0.91-3.45-1.64-4.42-0.32c-0.36,0.5-0.42,1.15-0.4,1.77c0.06,2.18,0.9,4.26,1.73,6.28
		c3.33,8.13,6.66,16.26,9.99,24.4c0.71,1.74,1.45,3.53,2.75,4.89c2.76,2.9,8.98,3.41,11.38-0.35c2.17-3.39-0.57-9.33-1.85-12.63
		C517.53,184.11,510.8,175.54,502.12,169.77z"/>
	<path class="st4" d="M552.96,191.32c-3.36-1.85-7.07-3-10.63-4.47c-1.78-0.74-15.76-11.69-16.1-11.21
		c-1.45,2.05,0.25,4.79,1.88,6.69c5.18,6.05,10.36,11.65,16.89,16.28c2.56,1.82,5.13,3.63,7.69,5.45c0.69,0.49,1.39,0.98,2.17,1.29
		c2.18,0.86,4.69,0.18,6.69-1.04c1.2-0.73,2.4-2,2.01-3.34c-0.15-0.52-0.52-0.94-0.88-1.34c-2.58-2.87-5.33-5.64-8.62-7.66
		C553.71,191.75,553.33,191.53,552.96,191.32z"/>
	<path class="st4" d="M607.52,218.97c-0.51-2.77-0.97-5.58-1.54-8.42c1.2-0.83,2.72,0.42,3.63,1.55
		c5.33,6.62,9.81,13.76,14.68,20.75c2.59,3.71,3.76,6.39-1.22,8.53c-3.79,1.62-6.67,0.57-8.73-2.61
		C610.3,232.52,608.78,225.87,607.52,218.97z"/>
	<path class="st5" d="M607.52,218.97c-0.51-2.77-0.97-5.58-1.54-8.42c1.2-0.83,2.72,0.42,3.63,1.55
		c5.33,6.62,9.81,13.76,14.68,20.75c2.59,3.71,3.76,6.39-1.22,8.53c-3.79,1.62-6.67,0.57-8.73-2.61
		C610.3,232.52,608.78,225.87,607.52,218.97z"/>
</g>
<g>
	<rect x="0.79" y="137.86" class="st6" width="297.21" height="178.14"/>
	<text transform="matrix(1 0 0 1 0.7915 157.3617)"><tspan x="0" y="0" class="st7 st8 st9">Giant pandas have six </tspan><tspan x="0" y="31.2" class="st7 st8 st9">fingers. Ttheir thumbs </tspan><tspan x="0" y="62.4" class="st7 st8 st9">cannot move, and the </tspan><tspan x="0" y="93.6" class="st7 st8 st9">other five fingers are </tspan><tspan x="0" y="124.8" class="st7 st8 st9">arranged in a straight line.</tspan></text>
</g>
<g>
	<rect x="0.79" y="377.03" class="st6" width="297.21" height="382.79"/>
	<text transform="matrix(1 0 0 1 0.7915 396.5257)"><tspan x="0" y="0" class="st7 st8 st9">Unlike other bears, the </tspan><tspan x="0" y="31.2" class="st7 st8 st9">panda&apos;s sixth digit plays </tspan><tspan x="0" y="62.4" class="st7 st8 st9">the role of an opposable </tspan><tspan x="0" y="93.6" class="st7 st8 st9">thumb, which allows it to </tspan><tspan x="0" y="124.8" class="st7 st8 st9">work with the other digits </tspan><tspan x="0" y="156" class="st7 st8 st9">and hold bamboo </tspan><tspan x="0" y="187.2" class="st7 st8 st9">efficiently.</tspan></text>
</g>
<g>
	<text transform="matrix(1 0 0 1 -4.577637e-04 109.6561)" class="st7 st10 st11">FALSE THUMB</text>
</g>
<path class="st12" d="M481.16,500.23c-1.91-2.57-2.91-5.74-4.93-8.23c-3.51-4.34-9.38-5.81-14.13-8.74
	c-5.52-3.4-9.51-8.76-13.04-14.2c-6.27-9.66-11.53-19.96-15.68-30.7c-1.38-3.56-2.65-7.41-1.84-11.14c0.81-3.73,4.51-7.1,8.21-6.15
	c3.39,0.86,5.1,4.69,5.53,8.16s0.12,7.12,1.54,10.32c1.89,4.24,6.47,6.69,11,7.71c4.53,1.03,9.25,0.96,13.81,1.86
	c10.83,2.14,36.01,15.14,35.74,28.22C507.21,485.33,489.2,511,481.16,500.23z"/>
</svg>
