<?xml version="1.0" encoding="utf-8"?>
<!-- Generator: Adobe Illustrator 24.3.2, SVG Export Plug-In . SVG Version: 6.00 Build 0)  -->
<svg version="1.1" id="Layer_1" xmlns="http://www.w3.org/2000/svg" xmlns:xlink="http://www.w3.org/1999/xlink" x="0px" y="0px"
	 viewBox="0 0 795 764.61" style="enable-background:new 0 0 795 764.61;" xml:space="preserve">
<style type="text/css">
	.st0{fill:none;}
	.st1{fill:#231F20;}
	.st2{font-family:'Roboto-Regular';}
	.st3{font-size:20px;}
	.st4{font-size:18px;}
	.st5{fill:#A8D27D;}
	.st6{opacity:0.6;fill:#DFE573;}
	.st7{fill:none;stroke:#231F20;stroke-width:0.3;stroke-miterlimit:10;}
	.st8{fill:#F37E4F;}
	.st9{fill:none;stroke:#231F20;stroke-width:0.5;stroke-miterlimit:10;}
	.st10{font-size:16px;}
	.st11{fill:none;stroke:#231F20;stroke-miterlimit:10;}
</style>
<g>
	<rect x="2" y="6.72" class="st0" width="791" height="121"/>
	<text transform="matrix(1 0 0 1 2 21.7162)"><tspan x="0" y="0" class="st1 st2 st3">The crude &quot;thumb&quot; suggests that the origin of the panda&apos;s bamboo-dedicated diet dates </tspan><tspan x="0" y="24" class="st1 st2 st3">back 6 to 7 million years, according to a study published in Nature. The historical </tspan><tspan x="0" y="48" class="st1 st2 st3">geographic distribution of pandas seems to coincide with the distribution of bamboo </tspan><tspan x="0" y="72" class="st1 st2 st3">forests in China.</tspan></text>
</g>
<image style="overflow:visible;" width="799" height="528" xlink:href="3158379477EBBD2C.png"  transform="matrix(1 0 0 1 0 236.716)">
</image>
<g>
	<g>
		<text transform="matrix(1 0 0 1 49.6665 147.2718)"><tspan x="0" y="0" class="st1 st2 st4">Distribution of bamboo forest in China</tspan><tspan x="0" y="34.37" class="st1 st2 st4">Historical range of Ailuropoda melanoleuca (Giant panda)</tspan><tspan x="0" y="68.74" class="st1 st2 st4">Modern distribution of Ailuropoda melanoleuca</tspan></text>
	</g>
	<rect x="1.27" y="132.72" class="st5" width="32.74" height="14.55"/>
	<rect x="1.27" y="166.83" class="st6" width="32.74" height="14.55"/>
	<rect x="1.27" y="166.83" class="st7" width="32.74" height="14.55"/>
	<rect x="1.27" y="201.2" class="st8" width="32.74" height="14.55"/>
</g>
<g>
	<g>
		<g>
			<line class="st9" x1="490.47" y1="735.88" x2="625.01" y2="735.88"/>
			<g>
				<rect x="490.22" y="734.25" class="st1" width="0.5" height="3.25"/>
			</g>
			<g>
				<rect x="624.76" y="734.25" class="st1" width="0.5" height="3.25"/>
			</g>
		</g>
	</g>
	<text transform="matrix(1 0 0 1 531.2168 725.702)" class="st1 st2 st10">500 km</text>
</g>
<line class="st11" x1="556.8" y1="735.87" x2="623.87" y2="735.87"/>
<g>
	<g>
		<text transform="matrix(1 0 0 1 308.7393 337.0653)" class="st1 st2 st3">Shaanxi</text>
	</g>
	<g>
		<text transform="matrix(1 0 0 1 126.8711 670.2704)" class="st1 st2 st3">Yunnan</text>
	</g>
	<g>
		<text transform="matrix(1 0 0 1 225.5293 325.4481)" class="st1 st2 st3">Gansu</text>
	</g>
	<g>
		<text transform="matrix(1 0 0 1 259.541 437.4637)" class="st1 st2 st3">Sichuan</text>
	</g>
</g>
</svg>
