<?xml version="1.0" encoding="utf-8"?>
<!-- Generator: Adobe Illustrator 24.3.2, SVG Export Plug-In . SVG Version: 6.00 Build 0)  -->
<svg version="1.1" id="Layer_1" xmlns="http://www.w3.org/2000/svg" xmlns:xlink="http://www.w3.org/1999/xlink" x="0px" y="0px"
	 viewBox="0 0 795 838.76" style="enable-background:new 0 0 795 838.76;" xml:space="preserve">
<style type="text/css">
	.st0{fill:#231F20;}
	.st1{font-family:'BentonSans-Book';}
	.st2{font-size:24px;}
	.st3{font-family:'Arial-ItalicMT';}
	.st4{fill:#A8D27D;}
	.st5{opacity:0.6;fill:#DFE573;}
	.st6{fill:none;stroke:#231F20;stroke-width:0.3;stroke-miterlimit:10;}
	.st7{fill:#F37E4F;}
	.st8{fill:none;stroke:#231F20;stroke-width:0.5;stroke-miterlimit:10;}
	.st9{fill:none;}
	.st10{font-size:26px;}
</style>
<image style="overflow:visible;" width="795" height="522" xlink:href="3158379477EBBD2F.png"  transform="matrix(1 0 0 1 0 316.7601)">
</image>
<g>
	<text transform="matrix(1 0 0 1 62.7682 221.1603)" class="st0 st1 st2">Distribution of bamboo forests in China</text>
</g>
<g>
	<text transform="matrix(1 0 0 1 62.7682 255.5301)"><tspan x="0" y="0" class="st0 st1 st2">Historical range of the giant panda (</tspan><tspan x="391.58" y="0" class="st0 st3 st2">Ailuropoda melanoleuca</tspan><tspan x="649.09" y="0" class="st0 st1 st2">)</tspan></text>
</g>
<g>
	<text transform="matrix(1 0 0 1 62.7682 289.8998)" class="st0 st1 st2">Modern distribution of the giant panda</text>
</g>
<rect x="13.58" y="206.87" class="st4" width="36.56" height="14.29"/>
<rect x="13.58" y="240.37" class="st5" width="36.56" height="14.29"/>
<rect x="13.58" y="240.37" class="st6" width="36.56" height="14.29"/>
<rect x="13.58" y="274.12" class="st7" width="36.56" height="14.29"/>
<g>
	<g>
		<g>
			<line class="st8" x1="524.04" y1="802.2" x2="657.25" y2="802.2"/>
			<g>
				<rect x="523.79" y="800.58" class="st0" width="0.5" height="3.25"/>
			</g>
			<g>
				<rect x="657" y="800.58" class="st0" width="0.5" height="3.25"/>
			</g>
		</g>
	</g>
	<text transform="matrix(1 0 0 1 547.9644 792.1304)" class="st0 st1 st2">500 km</text>
</g>
<g>
	<rect x="2.88" y="18.88" class="st9" width="792.12" height="171.21"/>
	<text transform="matrix(1 0 0 1 2.877 38.121)"><tspan x="0" y="0" class="st0 st1 st10">The crude &quot;thumb&quot; suggests that the origin of the panda&apos;s </tspan><tspan x="0" y="31.2" class="st0 st1 st10">bamboo-dedicated diet dates back 6 to 7 million years, according </tspan><tspan x="0" y="62.4" class="st0 st1 st10">to a study published in Nature. The historical geographic </tspan><tspan x="0" y="93.6" class="st0 st1 st10">distribution of pandas seems to coincide with the distribution of </tspan><tspan x="0" y="124.8" class="st0 st1 st10">bamboo forests in China.</tspan></text>
</g>
</svg>
