<?xml version="1.0" encoding="utf-8"?>
<!-- Generator: Adobe Illustrator 24.3.2, SVG Export Plug-In . SVG Version: 6.00 Build 0)  -->
<svg version="1.1" id="Layer_1" xmlns="http://www.w3.org/2000/svg" xmlns:xlink="http://www.w3.org/1999/xlink" x="0px" y="0px"
	 viewBox="0 0 795 1065.26" style="enable-background:new 0 0 795 1065.26;" xml:space="preserve">
<style type="text/css">
	.st0{fill:none;}
	.st1{fill:#231F20;}
	.st2{font-family:'Roboto-Regular';}
	.st3{font-size:20px;}
	.st4{fill:#8BC53F;}
	.st5{font-family:'Roboto-Black';}
	.st6{font-size:24px;}
	.st7{fill:#AF9F85;}
	.st8{fill:#F0592C;}
	.st9{font-size:18px;}
	.st10{font-size:16px;}
	.st11{fill:#8BC53F;stroke:#A6A8AB;stroke-width:0.3;stroke-miterlimit:10;}
	.st12{fill:none;stroke:#A6A8AB;stroke-width:0.3;stroke-miterlimit:10;}
	.st13{fill:#AF9F85;stroke:#A6A8AB;stroke-width:0.3;stroke-miterlimit:10;}
	.st14{fill:#F0592C;stroke:#A6A8AB;stroke-width:0.3;stroke-miterlimit:10;}
	.st15{fill:#A6A8AB;}
	.st16{font-size:16.1525px;}
	.st17{fill:none;stroke:#231F20;stroke-width:0.3;stroke-miterlimit:10;}
</style>
<g>
	<rect x="2" y="81.47" class="st0" width="791" height="80.16"/>
	<text transform="matrix(1 0 0 1 1.9995 96.4726)"><tspan x="0" y="0" class="st1 st2 st3">Pandas sleep for about half the day and spend the other half eating. An adult giant panda </tspan><tspan x="0" y="24" class="st1 st2 st3">can eat about 30 kilograms of bamboo a day. They tend to eat for two hours and then </tspan><tspan x="0" y="48" class="st1 st2 st3">rest for two hours, digesting the bamboo while they sleep.</tspan></text>
</g>
<g>
	<text transform="matrix(1 0 0 1 2 61.748)"><tspan x="0" y="0" class="st4 st5 st6">EAT,</tspan><tspan x="50.42" y="0" class="st1 st5 st6"> </tspan><tspan x="56.15" y="0" class="st7 st5 st6">SLEEP,</tspan><tspan x="131.69" y="0" class="st1 st5 st6"> </tspan><tspan x="137.43" y="0" class="st8 st5 st6">PLAY</tspan></text>
</g>
<rect x="202.61" y="203.18" class="st0" width="397.54" height="242.5"/>
<text transform="matrix(1 0 0 1 209.9864 216.6836)"><tspan x="0" y="0" class="st1 st2 st9">Although there is not a fix schedule, bout here is </tspan><tspan x="17.68" y="21.6" class="st1 st2 st9">an average of how giants pandas spend the </tspan><tspan x="157.01" y="43.2" class="st1 st2 st9">daytime.</tspan></text>
<g>
	<rect x="251.11" y="695.87" class="st0" width="251.81" height="126.81"/>
	<text transform="matrix(1 0 0 1 268.1055 707.873)"><tspan x="0" y="0" class="st8 st2 st10">Giant pandas plays just half an </tspan><tspan x="9.11" y="19.2" class="st8 st2 st10">hour, usually in the morning.</tspan></text>
</g>
<g>
	<g>
		<g>
			<path class="st11" d="M269.96,457.34l-18.85-32.61c10.85-6.43,22.27-11.83,33.86-16.76l14.42,34.8
				C289.33,447.07,279.38,451.74,269.96,457.34z"/>
			<path class="st12" d="M269.96,457.34l-18.85-32.61c10.85-6.43,22.27-11.83,33.86-16.76l14.42,34.8
				C289.33,447.07,279.38,451.74,269.96,457.34z"/>
		</g>
		<g>
			<path class="st11" d="M242.64,475.6l-22.94-29.88c2.44-1.99,5.03-3.8,7.6-5.62c2.58-1.8,5.1-3.7,7.74-5.42
				c5.32-3.38,10.54-6.92,16.07-9.94l18.85,32.61c-4.82,2.62-9.34,5.72-13.98,8.64c-2.3,1.49-4.48,3.16-6.73,4.72
				C247.01,472.29,244.76,473.85,242.64,475.6z"/>
			<path class="st12" d="M242.64,475.6l-22.94-29.88c2.44-1.99,5.03-3.8,7.6-5.62c2.58-1.8,5.1-3.7,7.74-5.42
				c5.32-3.38,10.54-6.92,16.07-9.94l18.85,32.61c-4.82,2.62-9.34,5.72-13.98,8.64c-2.3,1.49-4.48,3.16-6.73,4.72
				C247.01,472.29,244.76,473.85,242.64,475.6z"/>
		</g>
		<g>
			<path class="st11" d="M362.7,425.9l-4.87-37.36c12.48-1.81,25.1-2.29,37.69-2.52v37.67C384.55,423.93,373.55,424.31,362.7,425.9z
				"/>
			<path class="st12" d="M362.7,425.9l-4.87-37.36c12.48-1.81,25.1-2.29,37.69-2.52v37.67C384.55,423.93,373.55,424.31,362.7,425.9z
				"/>
		</g>
		<g>
			<path class="st11" d="M299.39,442.77l-14.42-34.8c5.87-2.31,11.69-4.72,17.71-6.62c5.93-2.14,12.02-3.8,18.08-5.51l9.72,36.4
				c-5.27,1.5-10.56,2.92-15.71,4.79C309.55,438.66,304.49,440.78,299.39,442.77z"/>
			<path class="st12" d="M299.39,442.77l-14.42-34.8c5.87-2.31,11.69-4.72,17.71-6.62c5.93-2.14,12.02-3.8,18.08-5.51l9.72,36.4
				c-5.27,1.5-10.56,2.92-15.71,4.79C309.55,438.66,304.49,440.78,299.39,442.77z"/>
		</g>
		<g>
			<path class="st11" d="M330.48,432.24l-9.72-36.4c3.01-0.93,6.12-1.51,9.18-2.25c3.08-0.67,6.12-1.51,9.23-2.03
				c6.21-1.08,12.39-2.35,18.66-3.01l4.87,37.36c-5.46,0.55-10.82,1.69-16.22,2.61c-2.7,0.44-5.34,1.2-8.02,1.77
				C335.8,430.94,333.1,431.41,330.48,432.24z"/>
			<path class="st12" d="M330.48,432.24l-9.72-36.4c3.01-0.93,6.12-1.51,9.18-2.25c3.08-0.67,6.12-1.51,9.23-2.03
				c6.21-1.08,12.39-2.35,18.66-3.01l4.87,37.36c-5.46,0.55-10.82,1.69-16.22,2.61c-2.7,0.44-5.34,1.2-8.02,1.77
				C335.8,430.94,333.1,431.41,330.48,432.24z"/>
		</g>
		<g>
			<path class="st13" d="M144.17,674.81l-37.67-0.04c0.24-12.59,0.73-25.21,2.55-37.69l37.35,4.91
				C144.79,652.84,144.41,663.83,144.17,674.81z"/>
			<path class="st12" d="M144.17,674.81l-37.67-0.04c0.24-12.59,0.73-25.21,2.55-37.69l37.35,4.91
				C144.79,652.84,144.41,663.83,144.17,674.81z"/>
		</g>
		<g>
			<polygon class="st13" points="196.22,521.98 166.36,499 172.2,491.57 178.37,484.41 181.47,480.84 184.72,477.42 191.25,470.58 
				217.87,497.23 212.2,503.19 209.36,506.16 206.67,509.28 201.3,515.5 			"/>
			<polygon class="st12" points="196.22,521.98 166.36,499 172.2,491.57 178.37,484.41 181.47,480.84 184.72,477.42 191.25,470.58 
				217.87,497.23 212.2,503.19 209.36,506.16 206.67,509.28 201.3,515.5 			"/>
		</g>
		<g>
			<path class="st13" d="M146.4,641.99l-37.35-4.91c0.66-6.27,1.95-12.45,3.02-18.66c0.55-3.1,1.37-6.15,2.04-9.23
				c0.74-3.06,1.34-6.16,2.27-9.18l36.39,9.76c-0.82,2.61-1.33,5.31-1.97,7.97c-0.58,2.68-1.31,5.32-1.78,8.02
				C148.12,631.17,146.95,636.53,146.4,641.99z"/>
			<path class="st12" d="M146.4,641.99l-37.35-4.91c0.66-6.27,1.95-12.45,3.02-18.66c0.55-3.1,1.37-6.15,2.04-9.23
				c0.74-3.06,1.34-6.16,2.27-9.18l36.39,9.76c-0.82,2.61-1.33,5.31-1.97,7.97c-0.58,2.68-1.31,5.32-1.78,8.02
				C148.12,631.17,146.95,636.53,146.4,641.99z"/>
		</g>
		<g>
			<path class="st13" d="M177.93,549.28l-32.6-18.89c3.03-5.53,6.59-10.74,9.96-16.07c1.74-2.62,3.63-5.15,5.44-7.73
				c1.81-2.58,3.64-5.15,5.63-7.59l29.86,22.97c-1.74,2.12-3.32,4.36-4.9,6.6c-1.57,2.25-3.22,4.44-4.73,6.72
				C183.68,539.95,180.55,544.46,177.93,549.28z"/>
			<path class="st12" d="M177.93,549.28l-32.6-18.89c3.03-5.53,6.59-10.74,9.96-16.07c1.74-2.62,3.63-5.15,5.44-7.73
				c1.81-2.58,3.64-5.15,5.63-7.59l29.86,22.97c-1.74,2.12-3.32,4.36-4.9,6.6c-1.57,2.25-3.22,4.44-4.73,6.72
				C183.68,539.95,180.55,544.46,177.93,549.28z"/>
		</g>
		<g>
			<path class="st11" d="M163.33,578.69l-34.79-14.46c4.96-11.58,10.35-23.01,16.8-33.85l32.6,18.89
				C172.31,558.69,167.66,568.64,163.33,578.69z"/>
			<path class="st12" d="M163.33,578.69l-34.79-14.46c4.96-11.58,10.35-23.01,16.8-33.85l32.6,18.89
				C172.31,558.69,167.66,568.64,163.33,578.69z"/>
		</g>
		<g>
			<path class="st11" d="M395.52,423.7v-37.67c12.59,0.24,25.21,0.72,37.69,2.52l-4.87,37.36
				C417.5,424.31,406.5,423.93,395.52,423.7z"/>
			<path class="st12" d="M395.52,423.7v-37.67c12.59,0.24,25.21,0.72,37.69,2.52l-4.87,37.36
				C417.5,424.31,406.5,423.93,395.52,423.7z"/>
		</g>
		<g>
			<path class="st11" d="M627.72,578.69l34.79-14.46c2.3,5.87,4.73,11.69,6.63,17.7c0.97,3,2.11,5.94,2.94,8.98l2.58,9.1
				l-36.39,9.76l-2.24-7.9c-0.71-2.64-1.72-5.2-2.56-7.8C631.84,588.84,629.7,583.8,627.72,578.69z"/>
			<path class="st12" d="M627.72,578.69l34.79-14.46c2.3,5.87,4.73,11.69,6.63,17.7c0.97,3,2.11,5.94,2.94,8.98l2.58,9.1
				l-36.39,9.76l-2.24-7.9c-0.71-2.64-1.72-5.2-2.56-7.8C631.84,588.84,629.7,583.8,627.72,578.69z"/>
		</g>
		<g>
			<path class="st11" d="M594.83,521.98L624.69,499c1.99,2.44,3.82,5.01,5.63,7.59c1.81,2.58,3.69,5.11,5.44,7.73
				c3.37,5.33,6.93,10.53,9.96,16.07l-32.6,18.89c-2.61-4.82-5.74-9.33-8.65-13.98c-1.52-2.28-3.17-4.48-4.73-6.72
				C598.15,526.33,596.57,524.1,594.83,521.98z"/>
			<path class="st12" d="M594.83,521.98L624.69,499c1.99,2.44,3.82,5.01,5.63,7.59c1.81,2.58,3.69,5.11,5.44,7.73
				c3.37,5.33,6.93,10.53,9.96,16.07l-32.6,18.89c-2.61-4.82-5.74-9.33-8.65-13.98c-1.52-2.28-3.17-4.48-4.73-6.72
				C598.15,526.33,596.57,524.1,594.83,521.98z"/>
		</g>
		<g>
			<path class="st11" d="M613.11,549.28l32.6-18.89c6.45,10.84,11.84,22.27,16.8,33.84l-34.79,14.46
				C623.39,568.64,618.74,558.69,613.11,549.28z"/>
			<path class="st12" d="M613.11,549.28l32.6-18.89c6.45,10.84,11.84,22.27,16.8,33.84l-34.79,14.46
				C623.39,568.64,618.74,558.69,613.11,549.28z"/>
		</g>
		<g>
			<path class="st11" d="M638.28,609.78l36.39-9.76c0.93,3.01,1.53,6.11,2.27,9.18c0.67,3.08,1.49,6.13,2.04,9.23
				c1.07,6.21,2.37,12.39,3.02,18.66l-37.35,4.91c-0.55-5.46-1.71-10.82-2.62-16.22c-0.47-2.7-1.2-5.34-1.78-8.02
				C639.6,615.09,639.1,612.39,638.28,609.78z"/>
			<path class="st12" d="M638.28,609.78l36.39-9.76c0.93,3.01,1.53,6.11,2.27,9.18c0.67,3.08,1.49,6.13,2.04,9.23
				c1.07,6.21,2.37,12.39,3.02,18.66l-37.35,4.91c-0.55-5.46-1.71-10.82-2.62-16.22c-0.47-2.7-1.2-5.34-1.78-8.02
				C639.6,615.09,639.1,612.39,638.28,609.78z"/>
		</g>
		<g>
			<path class="st11" d="M646.88,674.81c-0.24-10.98-0.62-21.97-2.23-32.82l37.35-4.91c1.82,12.48,2.31,25.1,2.55,37.69
				L646.88,674.81z"/>
			<path class="st12" d="M646.88,674.81c-0.24-10.98-0.62-21.97-2.23-32.82l37.35-4.91c1.82,12.48,2.31,25.1,2.55,37.69
				L646.88,674.81z"/>
		</g>
		<g>
			<polygon class="st11" points="573.17,497.23 599.8,470.58 606.33,477.42 609.58,480.84 612.68,484.41 618.85,491.57 624.69,499 
				594.83,521.98 589.75,515.5 584.38,509.28 581.69,506.16 578.85,503.19 			"/>
			<polygon class="st12" points="573.17,497.23 599.8,470.58 606.33,477.42 609.58,480.84 612.68,484.41 618.85,491.57 624.69,499 
				594.83,521.98 589.75,515.5 584.38,509.28 581.69,506.16 578.85,503.19 			"/>
		</g>
		<g>
			<path class="st13" d="M548.41,475.6l22.94-29.88l7.43,5.84c2.43,2.01,4.78,4.11,7.17,6.16l3.57,3.1
				c1.17,1.06,2.29,2.16,3.44,3.24l6.84,6.52l-26.62,26.65l-5.96-5.67c-1-0.94-1.97-1.91-2.99-2.83l-3.11-2.69
				c-2.08-1.78-4.12-3.62-6.23-5.37L548.41,475.6z"/>
			<path class="st12" d="M548.41,475.6l22.94-29.88l7.43,5.84c2.43,2.01,4.78,4.11,7.17,6.16l3.57,3.1
				c1.17,1.06,2.29,2.16,3.44,3.24l6.84,6.52l-26.62,26.65l-5.96-5.67c-1-0.94-1.97-1.91-2.99-2.83l-3.11-2.69
				c-2.08-1.78-4.12-3.62-6.23-5.37L548.41,475.6z"/>
		</g>
		<g>
			<path class="st13" d="M428.35,425.9l4.87-37.36c6.27,0.66,12.45,1.93,18.66,3.01c3.11,0.52,6.15,1.36,9.23,2.03
				c3.06,0.75,6.17,1.32,9.18,2.25l-9.72,36.4c-2.61-0.82-5.32-1.3-7.98-1.95c-2.68-0.57-5.32-1.33-8.02-1.77
				C439.17,427.59,433.81,426.46,428.35,425.9z"/>
			<path class="st12" d="M428.35,425.9l4.87-37.36c6.27,0.66,12.45,1.93,18.66,3.01c3.11,0.52,6.15,1.36,9.23,2.03
				c3.06,0.75,6.17,1.32,9.18,2.25l-9.72,36.4c-2.61-0.82-5.32-1.3-7.98-1.95c-2.68-0.57-5.32-1.33-8.02-1.77
				C439.17,427.59,433.81,426.46,428.35,425.9z"/>
		</g>
		<g>
			<path class="st13" d="M460.57,432.24l9.72-36.4c6.07,1.71,12.15,3.37,18.08,5.51c6.01,1.9,11.84,4.31,17.71,6.62l-14.42,34.8
				c-5.1-1.99-10.15-4.11-15.39-5.74C471.12,435.15,465.83,433.74,460.57,432.24z"/>
			<path class="st12" d="M460.57,432.24l9.72-36.4c6.07,1.71,12.15,3.37,18.08,5.51c6.01,1.9,11.84,4.31,17.71,6.62l-14.42,34.8
				c-5.1-1.99-10.15-4.11-15.39-5.74C471.12,435.15,465.83,433.74,460.57,432.24z"/>
		</g>
		<g>
			<path class="st13" d="M491.66,442.77l14.42-34.8c11.59,4.93,23.02,10.33,33.86,16.76l-18.85,32.61
				C511.66,451.74,501.72,447.07,491.66,442.77z"/>
			<path class="st12" d="M491.66,442.77l14.42-34.8c11.59,4.93,23.02,10.33,33.86,16.76l-18.85,32.61
				C511.66,451.74,501.72,447.07,491.66,442.77z"/>
		</g>
		<g>
			<path class="st13" d="M521.09,457.34l18.85-32.61c5.53,3.03,10.75,6.57,16.07,9.95c2.64,1.72,5.16,3.62,7.74,5.42
				c2.57,1.82,5.16,3.63,7.6,5.62l-22.94,29.88c-2.12-1.75-4.37-3.3-6.61-4.89c-2.25-1.56-4.43-3.23-6.73-4.72
				C530.43,463.07,525.91,459.96,521.09,457.34z"/>
			<path class="st12" d="M521.09,457.34l18.85-32.61c5.53,3.03,10.75,6.57,16.07,9.95c2.64,1.72,5.16,3.62,7.74,5.42
				c2.57,1.82,5.16,3.63,7.6,5.62l-22.94,29.88c-2.12-1.75-4.37-3.3-6.61-4.89c-2.25-1.56-4.43-3.23-6.73-4.72
				C530.43,463.07,525.91,459.96,521.09,457.34z"/>
		</g>
	</g>
	<g>
		<line class="st12" x1="106.01" y1="674.77" x2="82.44" y2="674.75"/>
		<line class="st12" x1="108.56" y1="637.02" x2="85.2" y2="633.95"/>
		<line class="st12" x1="115.91" y1="599.89" x2="93.15" y2="593.79"/>
		<line class="st12" x1="128.09" y1="564.05" x2="106.33" y2="555.01"/>
		<line class="st12" x1="144.91" y1="530.15" x2="124.52" y2="518.33"/>
		<line class="st12" x1="165.97" y1="498.7" x2="147.29" y2="484.34"/>
		<line class="st12" x1="190.9" y1="470.23" x2="174.25" y2="453.56"/>
		<line class="st12" x1="219.4" y1="445.33" x2="205.05" y2="426.64"/>
		<line class="st12" x1="250.86" y1="424.3" x2="239.07" y2="403.9"/>
		<line class="st12" x1="284.78" y1="407.51" x2="275.76" y2="385.75"/>
		<line class="st12" x1="320.63" y1="395.37" x2="314.55" y2="372.6"/>
		<line class="st12" x1="357.77" y1="388.06" x2="354.72" y2="364.69"/>
		<line class="st12" x1="395.52" y1="385.53" x2="395.52" y2="361.97"/>
		<line class="st12" x1="433.28" y1="388.06" x2="436.32" y2="364.69"/>
		<line class="st12" x1="470.41" y1="395.37" x2="476.49" y2="372.6"/>
		<line class="st12" x1="506.27" y1="407.51" x2="515.29" y2="385.75"/>
		<line class="st12" x1="540.19" y1="424.3" x2="551.98" y2="403.9"/>
		<line class="st12" x1="571.65" y1="445.33" x2="586" y2="426.64"/>
		<line class="st12" x1="600.15" y1="470.23" x2="616.8" y2="453.56"/>
		<line class="st12" x1="625.08" y1="498.7" x2="643.75" y2="484.33"/>
		<line class="st12" x1="646.14" y1="530.14" x2="666.52" y2="518.33"/>
		<line class="st12" x1="662.96" y1="564.05" x2="684.72" y2="555"/>
		<line class="st12" x1="675.14" y1="599.89" x2="697.9" y2="593.79"/>
		<line class="st12" x1="682.48" y1="637.02" x2="705.85" y2="633.95"/>
		<line class="st12" x1="685.04" y1="674.77" x2="708.61" y2="674.75"/>
	</g>
	<g>
		<line class="st12" x1="106.7" y1="655.86" x2="94.94" y2="655.09"/>
		<line class="st12" x1="111.59" y1="618.33" x2="100.04" y2="616.03"/>
		<line class="st12" x1="121.44" y1="581.78" x2="110.29" y2="577.99"/>
		<line class="st12" x1="135.94" y1="546.82" x2="125.38" y2="541.59"/>
		<line class="st12" x1="154.89" y1="514.05" x2="145.1" y2="507.49"/>
		<line class="st12" x1="178" y1="484.09" x2="169.15" y2="476.31"/>
		<line class="st12" x1="204.77" y1="457.35" x2="197" y2="448.49"/>
		<line class="st12" x1="234.76" y1="434.27" x2="228.21" y2="424.47"/>
		<line class="st12" x1="267.54" y1="415.34" x2="262.32" y2="404.78"/>
		<line class="st12" x1="302.52" y1="400.89" x2="298.74" y2="389.73"/>
		<line class="st12" x1="339.08" y1="391.07" x2="336.79" y2="379.52"/>
		<line class="st12" x1="376.61" y1="386.21" x2="375.85" y2="374.45"/>
		<line class="st12" x1="414.44" y1="386.21" x2="415.2" y2="374.45"/>
		<line class="st12" x1="451.97" y1="391.07" x2="454.26" y2="379.52"/>
		<line class="st12" x1="488.53" y1="400.89" x2="492.31" y2="389.73"/>
		<line class="st12" x1="523.51" y1="415.34" x2="528.72" y2="404.78"/>
		<line class="st12" x1="556.29" y1="434.27" x2="562.84" y2="424.47"/>
		<line class="st12" x1="586.28" y1="457.35" x2="594.04" y2="448.49"/>
		<line class="st12" x1="613.05" y1="484.09" x2="621.9" y2="476.31"/>
		<line class="st12" x1="636.16" y1="514.05" x2="645.95" y2="507.49"/>
		<line class="st12" x1="655.11" y1="546.82" x2="665.67" y2="541.59"/>
		<line class="st12" x1="669.6" y1="581.78" x2="680.76" y2="577.99"/>
		<line class="st12" x1="679.46" y1="618.33" x2="691.01" y2="616.03"/>
		<line class="st12" x1="684.35" y1="655.86" x2="696.1" y2="655.09"/>
	</g>
	<g>
		<g>
			<path class="st13" d="M152.77,609.78l-36.39-9.76l2.58-9.1c0.83-3.04,1.97-5.99,2.94-8.98l35.66,12.13
				c-0.84,2.61-1.85,5.16-2.56,7.8L152.77,609.78z"/>
			<path class="st12" d="M152.77,609.78l-36.39-9.76l2.58-9.1c0.83-3.04,1.97-5.99,2.94-8.98l35.66,12.13
				c-0.84,2.61-1.85,5.16-2.56,7.8L152.77,609.78z"/>
		</g>
		<g>
			<path class="st14" d="M163.33,578.69c-1.98,5.11-4.12,10.15-5.75,15.38l-35.66-12.13c1.9-6.02,4.34-11.83,6.63-17.7
				L163.33,578.69z"/>
			<path class="st12" d="M163.33,578.69c-1.98,5.11-4.12,10.15-5.75,15.38l-35.66-12.13c1.9-6.02,4.34-11.83,6.63-17.7
				L163.33,578.69z"/>
		</g>
	</g>
	<g>
		<g>
			<path class="st13" d="M217.87,497.23l-26.62-26.65l6.84-6.52c1.15-1.08,2.27-2.19,3.44-3.24l3.57-3.1l24.84,28.32l-3.11,2.69
				c-1.02,0.92-1.99,1.89-2.99,2.83L217.87,497.23z"/>
			<path class="st12" d="M217.87,497.23l-26.62-26.65l6.84-6.52c1.15-1.08,2.27-2.19,3.44-3.24l3.57-3.1l24.84,28.32l-3.11,2.69
				c-1.02,0.92-1.99,1.89-2.99,2.83L217.87,497.23z"/>
		</g>
		<g>
			<path class="st11" d="M242.64,475.6l-6.47,5.08c-2.11,1.75-4.15,3.58-6.23,5.37l-24.84-28.32c2.39-2.05,4.74-4.15,7.17-6.16
				l7.43-5.84L242.64,475.6z"/>
			<path class="st12" d="M242.64,475.6l-6.47,5.08c-2.11,1.75-4.15,3.58-6.23,5.37l-24.84-28.32c2.39-2.05,4.74-4.15,7.17-6.16
				l7.43-5.84L242.64,475.6z"/>
		</g>
	</g>
</g>
<g>
	<g>
		<circle class="st15" cx="32.94" cy="655.09" r="11.96"/>
		<g>
			<path class="st15" d="M31.15,672.29V680h3.59v-7.7c-0.6,0.06-1.18,0.18-1.79,0.18C32.33,672.47,31.75,672.35,31.15,672.29z"/>
			<path class="st15" d="M34.73,637.88v-7.7h-3.59v7.71c0.6-0.06,1.18-0.18,1.79-0.18C33.56,637.7,34.14,637.82,34.73,637.88z"/>
			<path class="st15" d="M26.11,631.07l-3.37,1.23l2.63,7.22c1.07-0.52,2.19-0.94,3.37-1.23L26.11,631.07z"/>
			<path class="st15" d="M39.78,679.11l3.37-1.23l-2.63-7.22c-1.07,0.52-2.19,0.94-3.37,1.23L39.78,679.11z"/>
			<path class="st15" d="M42.69,669.49l4.9,5.84l2.75-2.3l-4.91-5.85C44.58,668.02,43.68,668.81,42.69,669.49z"/>
			<path class="st15" d="M23.2,640.69l-4.9-5.84l-2.75,2.3l4.91,5.85C21.3,642.15,22.21,641.36,23.2,640.69z"/>
			<path class="st15" d="M12.27,641.08l-1.79,3.1l6.62,3.82c0.49-1.1,1.11-2.13,1.81-3.09L12.27,641.08z"/>
			<path class="st15" d="M53.62,669.09l1.79-3.1l-6.62-3.82c-0.49,1.1-1.11,2.13-1.81,3.09L53.62,669.09z"/>
			<path class="st15" d="M8.72,649l-0.62,3.53l7.58,1.34c0.09-1.22,0.29-2.39,0.62-3.53L8.72,649z"/>
			<path class="st15" d="M49.59,659.84l7.57,1.34l0.62-3.53l-7.58-1.34C50.12,657.53,49.91,658.7,49.59,659.84z"/>
			<path class="st15" d="M8.1,657.65l0.62,3.53l7.57-1.34c-0.33-1.14-0.53-2.31-0.62-3.53L8.1,657.65z"/>
			<path class="st15" d="M57.79,652.53L57.16,649l-7.57,1.34c0.33,1.14,0.53,2.31,0.62,3.53L57.79,652.53z"/>
			<path class="st15" d="M10.47,665.99l1.79,3.1l6.63-3.83c-0.7-0.97-1.31-1.99-1.81-3.09L10.47,665.99z"/>
			<path class="st15" d="M55.41,644.18l-1.79-3.1l-6.63,3.83c0.7,0.97,1.31,1.99,1.81,3.09L55.41,644.18z"/>
			<path class="st15" d="M20.47,667.16l-4.91,5.85l2.75,2.3l4.9-5.84C22.21,668.81,21.3,668.02,20.47,667.16z"/>
			<path class="st15" d="M45.42,643.01l4.91-5.85l-2.75-2.3l-4.9,5.84C43.68,641.36,44.58,642.15,45.42,643.01z"/>
			<path class="st15" d="M43.15,632.29l-3.37-1.23l-2.62,7.21c1.18,0.3,2.3,0.71,3.37,1.23L43.15,632.29z"/>
			<path class="st15" d="M22.74,677.88l3.37,1.23l2.62-7.21c-1.18-0.3-2.3-0.71-3.37-1.23L22.74,677.88z"/>
		</g>
	</g>
</g>
<g>
	<g>
		<circle class="st15" cx="762.16" cy="655.09" r="11.96"/>
		<g>
			<path class="st15" d="M760.36,672.29V680h3.59v-7.7c-0.6,0.06-1.18,0.18-1.79,0.18C761.54,672.47,760.96,672.35,760.36,672.29z"
				/>
			<path class="st15" d="M763.95,637.88v-7.7h-3.59v7.71c0.6-0.06,1.18-0.18,1.79-0.18C762.77,637.7,763.35,637.82,763.95,637.88z"
				/>
			<path class="st15" d="M755.32,631.07l-3.37,1.23l2.63,7.22c1.07-0.52,2.19-0.94,3.37-1.23L755.32,631.07z"/>
			<path class="st15" d="M768.99,679.11l3.37-1.23l-2.63-7.22c-1.07,0.52-2.19,0.94-3.37,1.23L768.99,679.11z"/>
			<path class="st15" d="M771.9,669.49l4.9,5.84l2.75-2.3l-4.91-5.85C773.8,668.02,772.89,668.81,771.9,669.49z"/>
			<path class="st15" d="M752.41,640.69l-4.9-5.84l-2.75,2.3l4.91,5.85C750.52,642.15,751.42,641.36,752.41,640.69z"/>
			<path class="st15" d="M741.48,641.08l-1.79,3.1l6.62,3.82c0.49-1.1,1.11-2.13,1.81-3.09L741.48,641.08z"/>
			<path class="st15" d="M782.83,669.09l1.79-3.1l-6.62-3.82c-0.49,1.1-1.11,2.13-1.81,3.09L782.83,669.09z"/>
			<path class="st15" d="M737.94,649l-0.62,3.53l7.58,1.34c0.09-1.22,0.29-2.39,0.62-3.53L737.94,649z"/>
			<path class="st15" d="M778.8,659.84l7.57,1.34l0.62-3.53l-7.58-1.34C779.33,657.53,779.13,658.7,778.8,659.84z"/>
			<path class="st15" d="M737.31,657.65l0.62,3.53l7.57-1.34c-0.33-1.14-0.53-2.31-0.62-3.53L737.31,657.65z"/>
			<path class="st15" d="M787,652.53l-0.62-3.53l-7.57,1.34c0.33,1.14,0.53,2.31,0.62,3.53L787,652.53z"/>
			<path class="st15" d="M739.69,665.99l1.79,3.1l6.63-3.83c-0.7-0.97-1.31-1.99-1.81-3.09L739.69,665.99z"/>
			<path class="st15" d="M784.63,644.18l-1.79-3.1l-6.63,3.83c0.7,0.97,1.31,1.99,1.81,3.09L784.63,644.18z"/>
			<path class="st15" d="M749.68,667.16l-4.91,5.85l2.75,2.3l4.9-5.84C751.42,668.81,750.52,668.02,749.68,667.16z"/>
			<path class="st15" d="M774.63,643.01l4.91-5.85l-2.75-2.3l-4.9,5.84C772.89,641.36,773.8,642.15,774.63,643.01z"/>
			<path class="st15" d="M772.36,632.29l-3.37-1.23l-2.62,7.21c1.18,0.3,2.3,0.71,3.37,1.23L772.36,632.29z"/>
			<path class="st15" d="M751.95,677.88l3.37,1.23l2.62-7.21c-1.18-0.3-2.3-0.71-3.37-1.23L751.95,677.88z"/>
		</g>
	</g>
</g>
<g>
	<g>
		<path class="st15" d="M396.23,296.69c1.1,2.33,1.74,4.93,1.74,7.68c0,9.92-8.04,17.96-17.96,17.96c-2.67,0-5.19-0.6-7.47-1.64
			c2.88,6.08,9.05,10.29,16.22,10.29c9.92,0,17.96-8.04,17.96-17.96C406.72,305.76,402.42,299.53,396.23,296.69z"/>
	</g>
</g>
<path class="st0" d="M73.96,674.87c0-177.57,143.95-321.52,321.52-321.52S716.99,497.3,716.99,674.87"/>
<path class="st12" d="M418.73,314.99c168.76,10.67,306.03,137.33,332.99,301.16"/>
<path class="st12" d="M39.5,616.03c26.99-163.67,164.08-290.22,332.67-301.02"/>
<g>
	<text transform="matrix(1 0 0 1 69.4229 674.873)" class="st15 st2 st16">8</text>
	<text transform="matrix(1 0 0 1 71.3155 635.0234)" class="st15 st2 st16">9</text>
	<text transform="matrix(1 0 0 1 73.5206 594.0742)" class="st15 st2 st16">10</text>
	<text transform="matrix(1 0 0 1 86.9366 555.0078)" class="st15 st2 st16">11</text>
	<text transform="matrix(1 0 0 1 105.5254 518.334)" class="st15 st2 st16">12</text>
	<text transform="matrix(1 0 0 1 135.2676 484.0879)" class="st15 st2 st16">1</text>
	<text transform="matrix(1 0 0 1 161.8262 452.9199)" class="st15 st2 st16">2</text>
	<text transform="matrix(1 0 0 1 194.3125 424.3008)" class="st15 st2 st16">3</text>
	<text transform="matrix(1 0 0 1 230.2237 398.9434)" class="st15 st2 st16">4</text>
	<text transform="matrix(1 0 0 1 268.3614 379.5156)" class="st15 st2 st16">5</text>
	<text transform="matrix(1 0 0 1 307.6319 364.6953)" class="st15 st2 st16">6</text>
	<text transform="matrix(1 0 0 1 350.1866 356.6816)" class="st15 st2 st16">7</text>
	<text transform="matrix(1 0 0 1 433.588 356.6816)" class="st15 st2 st16">9</text>
	<text transform="matrix(1 0 0 1 470.2725 364.9199)" class="st15 st2 st16">10</text>
	<text transform="matrix(1 0 0 1 509.4405 379.5137)" class="st15 st2 st16">11</text>
	<text transform="matrix(1 0 0 1 545.1465 396.6289)" class="st15 st2 st16">12</text>
	<text transform="matrix(1 0 0 1 584.3819 419.3066)" class="st15 st2 st16">1</text>
	<text transform="matrix(1 0 0 1 646.6553 480.2012)" class="st15 st2 st16">3</text>
	<text transform="matrix(1 0 0 1 689.6299 554.543)" class="st15 st2 st16">5</text>
	<text transform="matrix(1 0 0 1 620.1534 448.4902)" class="st15 st2 st16">2</text>
	<text transform="matrix(1 0 0 1 669.3057 514.1152)" class="st15 st2 st16">4</text>
	<text transform="matrix(1 0 0 1 701.3106 593.7871)" class="st15 st2 st16">6</text>
	<text transform="matrix(1 0 0 1 712.4561 674.748)" class="st15 st2 st16">8</text>
	<text transform="matrix(1 0 0 1 709.7393 635.4844)" class="st15 st2 st16">7</text>
	<text transform="matrix(1 0 0 1 390.9405 353.3574)" class="st15 st2 st16">8</text>
</g>
<text transform="matrix(1 0 0 1 662.0225 341.1758)"><tspan x="0" y="0" class="st1 st2 st9">6 hours</tspan><tspan x="0" y="21.6" class="st1 st2 st9">eating/foraging</tspan></text>
<text transform="matrix(1 0 0 1 342.4742 640.0098)"><tspan x="0" y="0" class="st1 st2 st9">10 hours</tspan><tspan x="1.46" y="21.6" class="st1 st2 st9">sleeping</tspan></text>
<text transform="matrix(1 0 0 1 49.6973 337.584)"><tspan x="0" y="0" class="st1 st2 st9">6½ hours</tspan><tspan x="0" y="21.6" class="st1 st2 st9">eating/foraging</tspan></text>
<path class="st17" d="M172.69,330.98c0,0,92.72-18.38,148.07,64.86"/>
<path class="st17" d="M760.36,386.33c0,0,24.26,140.12-85.7,213.69"/>
<path class="st17" d="M375.85,600.04c0-103.76-141.09,25.73-226.83,25.73"/>
<path class="st17" d="M375.85,600.04c0-103.76-88.82-84.53-174.55-84.53"/>
<path class="st17" d="M375.85,600.04c0-103.76,115.81-50.99,115.81-157.27"/>
<image style="overflow:visible;" width="342" height="296" xlink:href="C349C3E001CEEF2C.png"  transform="matrix(1 0 0 1 404 756.6308)">
</image>
<image style="overflow:visible;" width="509" height="437" xlink:href="panda-rolling.gif"  transform="matrix(0.6871 0 0 0.6871 30.2217 760.7819)">
</image>
</svg>
