<?xml version="1.0" encoding="utf-8"?>
<!-- Generator: Adobe Illustrator 24.3.2, SVG Export Plug-In . SVG Version: 6.00 Build 0)  -->
<svg version="1.1" id="Layer_1" xmlns="http://www.w3.org/2000/svg" xmlns:xlink="http://www.w3.org/1999/xlink" x="0px" y="0px"
	 viewBox="0 0 795 991.4" style="enable-background:new 0 0 795 991.4;" xml:space="preserve">
<style type="text/css">
	.st0{fill:none;stroke:#231F20;stroke-width:0.3;stroke-miterlimit:10;}
	.st1{fill:none;}
	.st2{fill:#231F20;}
	.st3{font-family:'BentonSans-Book';}
	.st4{font-size:26px;}
	.st5{fill:#F0592C;}
	.st6{font-size:24px;}
	.st7{fill:#8BC53F;stroke:#808184;stroke-width:0.3;stroke-miterlimit:10;}
	.st8{fill:none;stroke:#808184;stroke-width:0.3;stroke-miterlimit:10;}
	.st9{fill:#AF9F85;stroke:#808184;stroke-width:0.3;stroke-miterlimit:10;}
	.st10{fill:#F0592C;stroke:#808184;stroke-width:0.3;stroke-miterlimit:10;}
	.st11{fill:#A6A8AB;}
	.st12{fill:#6D6E70;}
	.st13{font-family:'BentonSans-Light';}
	.st14{font-size:16.2824px;}
	.st15{font-size:21.7099px;}
	.st16{fill:#8BC53F;}
	.st17{font-family:'BentonSans-Bold';}
	.st18{font-size:34px;}
	.st19{fill:#AF9F85;}
</style>
<image style="overflow:visible;enable-background:new    ;" width="341" height="288" xlink:href="C349C3E001CEEF2B.jpg"  transform="matrix(1 0 0 1 221 608.99)">
</image>
<path class="st0" d="M593.55,446.72"/>
<g>
	<rect x="3" y="92.15" class="st1" width="783.39" height="142.41"/>
	<text transform="matrix(1 0 0 1 3 111.3906)"><tspan x="0" y="0" class="st2 st3 st4">Pandas sleep for about half the day and spend the other half </tspan><tspan x="0" y="31.2" class="st2 st3 st4">eating. An adult giant panda can eat about 30 kilograms of </tspan><tspan x="0" y="62.4" class="st2 st3 st4">bamboo a day. They tend to eat for two hours and then rest for </tspan><tspan x="0" y="93.6" class="st2 st3 st4">two hours, digesting the bamboo while they sleep.</tspan></text>
</g>
<rect x="126.55" y="270.21" class="st1" width="541.89" height="101.66"/>
<text transform="matrix(1 0 0 1 141.0787 289.448)"><tspan x="0" y="0" class="st2 st3 st4">Although there is not a fixed schedule, bout </tspan><tspan x="20.34" y="31.2" class="st2 st3 st4">here is an average of how giants pandas </tspan><tspan x="142.52" y="62.4" class="st2 st3 st4">spend the daytime.</tspan></text>
<g>
	<rect x="178.64" y="891.56" class="st1" width="389.89" height="80.53"/>
	<text transform="matrix(1 0 0 1 184.0409 909.3193)"><tspan x="0" y="0" class="st5 st3 st6">Giant pandas play just 30 minutes, </tspan><tspan x="65.57" y="28.8" class="st5 st3 st6">usually in the morning.</tspan></text>
</g>
<g>
	<g>
		<g>
			<path class="st7" d="M262.88,644.16l-19.01-32.88c10.93-6.48,22.45-11.92,34.14-16.9l14.54,35.08
				C282.41,633.81,272.38,638.51,262.88,644.16z"/>
			<path class="st8" d="M262.88,644.16l-19.01-32.88c10.93-6.48,22.45-11.92,34.14-16.9l14.54,35.08
				C282.41,633.81,272.38,638.51,262.88,644.16z"/>
		</g>
		<g>
			<path class="st7" d="M235.34,662.57l-23.13-30.12c2.46-2.01,5.07-3.83,7.66-5.66c2.6-1.82,5.14-3.73,7.8-5.47
				c5.36-3.4,10.63-6.97,16.2-10.02l19.01,32.88c-4.86,2.64-9.42,5.77-14.09,8.71c-2.32,1.51-4.52,3.19-6.78,4.76
				C239.75,659.23,237.48,660.81,235.34,662.57z"/>
			<path class="st8" d="M235.34,662.57l-23.13-30.12c2.46-2.01,5.07-3.83,7.66-5.66c2.6-1.82,5.14-3.73,7.8-5.47
				c5.36-3.4,10.63-6.97,16.2-10.02l19.01,32.88c-4.86,2.64-9.42,5.77-14.09,8.71c-2.32,1.51-4.52,3.19-6.78,4.76
				C239.75,659.23,237.48,660.81,235.34,662.57z"/>
		</g>
		<g>
			<path class="st7" d="M356.37,612.47l-4.91-37.66c12.58-1.82,25.3-2.3,37.99-2.55v37.97
				C378.39,610.49,367.31,610.86,356.37,612.47z"/>
			<path class="st8" d="M356.37,612.47l-4.91-37.66c12.58-1.82,25.3-2.3,37.99-2.55v37.97
				C378.39,610.49,367.31,610.86,356.37,612.47z"/>
		</g>
		<g>
			<path class="st7" d="M292.55,629.47l-14.54-35.08c5.91-2.33,11.79-4.76,17.85-6.67c5.98-2.16,12.11-3.83,18.23-5.55l9.8,36.69
				c-5.31,1.51-10.64,2.94-15.83,4.83C302.79,625.33,297.69,627.47,292.55,629.47z"/>
			<path class="st8" d="M292.55,629.47l-14.54-35.08c5.91-2.33,11.79-4.76,17.85-6.67c5.98-2.16,12.11-3.83,18.23-5.55l9.8,36.69
				c-5.31,1.51-10.64,2.94-15.83,4.83C302.79,625.33,297.69,627.47,292.55,629.47z"/>
		</g>
		<g>
			<path class="st7" d="M323.89,618.86l-9.8-36.69c3.04-0.94,6.17-1.52,9.25-2.27c3.1-0.67,6.17-1.52,9.31-2.05
				c6.26-1.09,12.49-2.37,18.81-3.03l4.91,37.66c-5.5,0.56-10.91,1.7-16.35,2.63c-2.73,0.45-5.39,1.21-8.08,1.78
				C329.25,617.55,326.53,618.03,323.89,618.86z"/>
			<path class="st8" d="M323.89,618.86l-9.8-36.69c3.04-0.94,6.17-1.52,9.25-2.27c3.1-0.67,6.17-1.52,9.31-2.05
				c6.26-1.09,12.49-2.37,18.81-3.03l4.91,37.66c-5.5,0.56-10.91,1.7-16.35,2.63c-2.73,0.45-5.39,1.21-8.08,1.78
				C329.25,617.55,326.53,618.03,323.89,618.86z"/>
		</g>
		<g>
			<path class="st9" d="M136.08,863.38l-37.97-0.04c0.24-12.69,0.74-25.41,2.57-37.99l37.65,4.94
				C136.71,841.23,136.32,852.32,136.08,863.38z"/>
			<path class="st8" d="M136.08,863.38l-37.97-0.04c0.24-12.69,0.74-25.41,2.57-37.99l37.65,4.94
				C136.71,841.23,136.32,852.32,136.08,863.38z"/>
		</g>
		<g>
			<polygon class="st9" points="188.55,709.32 158.45,686.16 164.34,678.67 170.56,671.45 173.68,667.85 176.96,664.4 
				183.54,657.51 210.38,684.37 204.66,690.38 201.8,693.38 199.09,696.52 193.67,702.79 			"/>
			<polygon class="st8" points="188.55,709.32 158.45,686.16 164.34,678.67 170.56,671.45 173.68,667.85 176.96,664.4 
				183.54,657.51 210.38,684.37 204.66,690.38 201.8,693.38 199.09,696.52 193.67,702.79 			"/>
		</g>
		<g>
			<path class="st9" d="M138.33,830.3l-37.65-4.94c0.66-6.32,1.97-12.55,3.05-18.81c0.55-3.13,1.38-6.2,2.06-9.3
				c0.74-3.09,1.35-6.21,2.29-9.25l36.68,9.84c-0.83,2.64-1.34,5.35-1.98,8.04c-0.58,2.7-1.32,5.36-1.8,8.08
				C140.06,819.39,138.89,824.79,138.33,830.3z"/>
			<path class="st8" d="M138.33,830.3l-37.65-4.94c0.66-6.32,1.97-12.55,3.05-18.81c0.55-3.13,1.38-6.2,2.06-9.3
				c0.74-3.09,1.35-6.21,2.29-9.25l36.68,9.84c-0.83,2.64-1.34,5.35-1.98,8.04c-0.58,2.7-1.32,5.36-1.8,8.08
				C140.06,819.39,138.89,824.79,138.33,830.3z"/>
		</g>
		<g>
			<path class="st9" d="M170.12,736.84l-32.86-19.04c3.05-5.58,6.64-10.83,10.04-16.2c1.76-2.64,3.66-5.19,5.48-7.79
				c1.83-2.6,3.67-5.19,5.68-7.65l30.1,23.16c-1.76,2.14-3.35,4.39-4.94,6.66c-1.58,2.26-3.25,4.48-4.77,6.78
				C175.91,727.43,172.75,731.98,170.12,736.84z"/>
			<path class="st8" d="M170.12,736.84l-32.86-19.04c3.05-5.58,6.64-10.83,10.04-16.2c1.76-2.64,3.66-5.19,5.48-7.79
				c1.83-2.6,3.67-5.19,5.68-7.65l30.1,23.16c-1.76,2.14-3.35,4.39-4.94,6.66c-1.58,2.26-3.25,4.48-4.77,6.78
				C175.91,727.43,172.75,731.98,170.12,736.84z"/>
		</g>
		<g>
			<path class="st7" d="M155.39,766.49l-35.07-14.57c5-11.67,10.43-23.19,16.93-34.12l32.86,19.04
				C164.45,746.33,159.76,756.36,155.39,766.49z"/>
			<path class="st8" d="M155.39,766.49l-35.07-14.57c5-11.67,10.43-23.19,16.93-34.12l32.86,19.04
				C164.45,746.33,159.76,756.36,155.39,766.49z"/>
		</g>
		<g>
			<path class="st7" d="M389.46,610.25v-37.97c12.69,0.24,25.41,0.72,37.99,2.55l-4.91,37.66
				C411.61,610.86,400.52,610.49,389.46,610.25z"/>
			<path class="st8" d="M389.46,610.25v-37.97c12.69,0.24,25.41,0.72,37.99,2.55l-4.91,37.66
				C411.61,610.86,400.52,610.49,389.46,610.25z"/>
		</g>
		<g>
			<path class="st7" d="M623.52,766.49l35.07-14.57c2.31,5.92,4.77,11.78,6.68,17.85c0.98,3.02,2.12,5.99,2.96,9.06l2.6,9.17
				l-36.68,9.84l-2.26-7.96c-0.72-2.67-1.74-5.24-2.58-7.86C627.68,776.72,625.52,771.64,623.52,766.49z"/>
			<path class="st8" d="M623.52,766.49l35.07-14.57c2.31,5.92,4.77,11.78,6.68,17.85c0.98,3.02,2.12,5.99,2.96,9.06l2.6,9.17
				l-36.68,9.84l-2.26-7.96c-0.72-2.67-1.74-5.24-2.58-7.86C627.68,776.72,625.52,771.64,623.52,766.49z"/>
		</g>
		<g>
			<path class="st7" d="M590.37,709.32l30.1-23.16c2.01,2.46,3.85,5.05,5.68,7.65c1.82,2.6,3.72,5.15,5.48,7.79
				c3.39,5.37,6.99,10.62,10.04,16.2l-32.86,19.04c-2.64-4.86-5.79-9.41-8.72-14.09c-1.53-2.3-3.19-4.51-4.77-6.78
				C593.72,713.71,592.12,711.45,590.37,709.32z"/>
			<path class="st8" d="M590.37,709.32l30.1-23.16c2.01,2.46,3.85,5.05,5.68,7.65c1.82,2.6,3.72,5.15,5.48,7.79
				c3.39,5.37,6.99,10.62,10.04,16.2l-32.86,19.04c-2.64-4.86-5.79-9.41-8.72-14.09c-1.53-2.3-3.19-4.51-4.77-6.78
				C593.72,713.71,592.12,711.45,590.37,709.32z"/>
		</g>
		<g>
			<path class="st7" d="M608.8,736.84l32.86-19.04c6.5,10.92,11.93,22.45,16.93,34.12l-35.07,14.57
				C619.16,756.36,614.47,746.33,608.8,736.84z"/>
			<path class="st8" d="M608.8,736.84l32.86-19.04c6.5,10.92,11.93,22.45,16.93,34.12l-35.07,14.57
				C619.16,756.36,614.47,746.33,608.8,736.84z"/>
		</g>
		<g>
			<path class="st7" d="M634.16,797.82l36.68-9.84c0.94,3.04,1.55,6.16,2.29,9.25c0.68,3.1,1.51,6.18,2.06,9.3
				c1.08,6.26,2.38,12.49,3.05,18.81l-37.65,4.94c-0.55-5.5-1.73-10.91-2.64-16.35c-0.47-2.72-1.21-5.38-1.8-8.08
				C635.5,803.18,634.99,800.46,634.16,797.82z"/>
			<path class="st8" d="M634.16,797.82l36.68-9.84c0.94,3.04,1.55,6.16,2.29,9.25c0.68,3.1,1.51,6.18,2.06,9.3
				c1.08,6.26,2.38,12.49,3.05,18.81l-37.65,4.94c-0.55-5.5-1.73-10.91-2.64-16.35c-0.47-2.72-1.21-5.38-1.8-8.08
				C635.5,803.18,634.99,800.46,634.16,797.82z"/>
		</g>
		<g>
			<path class="st7" d="M642.83,863.38c-0.24-11.06-0.63-22.15-2.25-33.08l37.65-4.94c1.84,12.58,2.33,25.3,2.57,37.99
				L642.83,863.38z"/>
			<path class="st8" d="M642.83,863.38c-0.24-11.06-0.63-22.15-2.25-33.08l37.65-4.94c1.84,12.58,2.33,25.3,2.57,37.99
				L642.83,863.38z"/>
		</g>
		<g>
			<polygon class="st7" points="568.54,684.37 595.38,657.51 601.96,664.4 605.24,667.85 608.36,671.45 614.58,678.67 
				620.47,686.16 590.37,709.32 585.25,702.79 579.83,696.52 577.12,693.38 574.26,690.38 			"/>
			<polygon class="st8" points="568.54,684.37 595.38,657.51 601.96,664.4 605.24,667.85 608.36,671.45 614.58,678.67 
				620.47,686.16 590.37,709.32 585.25,702.79 579.83,696.52 577.12,693.38 574.26,690.38 			"/>
		</g>
		<g>
			<path class="st9" d="M543.58,662.57l23.13-30.12l7.49,5.89c2.45,2.02,4.82,4.14,7.23,6.21l3.6,3.12
				c1.18,1.06,2.31,2.18,3.46,3.27l6.89,6.58l-26.84,26.87l-6.01-5.72c-1.01-0.95-1.98-1.93-3.01-2.85l-3.14-2.71
				c-2.1-1.8-4.16-3.65-6.28-5.41L543.58,662.57z"/>
			<path class="st8" d="M543.58,662.57l23.13-30.12l7.49,5.89c2.45,2.02,4.82,4.14,7.23,6.21l3.6,3.12
				c1.18,1.06,2.31,2.18,3.46,3.27l6.89,6.58l-26.84,26.87l-6.01-5.72c-1.01-0.95-1.98-1.93-3.01-2.85l-3.14-2.71
				c-2.1-1.8-4.16-3.65-6.28-5.41L543.58,662.57z"/>
		</g>
		<g>
			<path class="st9" d="M422.54,612.47l4.91-37.66c6.32,0.66,12.55,1.94,18.81,3.03c3.13,0.53,6.2,1.37,9.31,2.05
				c3.09,0.75,6.22,1.33,9.25,2.27l-9.8,36.69c-2.63-0.83-5.36-1.31-8.04-1.97c-2.7-0.58-5.36-1.34-8.08-1.78
				C433.46,614.17,428.05,613.03,422.54,612.47z"/>
			<path class="st8" d="M422.54,612.47l4.91-37.66c6.32,0.66,12.55,1.94,18.81,3.03c3.13,0.53,6.2,1.37,9.31,2.05
				c3.09,0.75,6.22,1.33,9.25,2.27l-9.8,36.69c-2.63-0.83-5.36-1.31-8.04-1.97c-2.7-0.58-5.36-1.34-8.08-1.78
				C433.46,614.17,428.05,613.03,422.54,612.47z"/>
		</g>
		<g>
			<path class="st9" d="M455.02,618.86l9.8-36.69c6.12,1.73,12.25,3.4,18.23,5.55c6.06,1.91,11.94,4.35,17.85,6.67l-14.54,35.08
				c-5.14-2.01-10.24-4.14-15.51-5.79C465.67,621.8,460.33,620.37,455.02,618.86z"/>
			<path class="st8" d="M455.02,618.86l9.8-36.69c6.12,1.73,12.25,3.4,18.23,5.55c6.06,1.91,11.94,4.35,17.85,6.67l-14.54,35.08
				c-5.14-2.01-10.24-4.14-15.51-5.79C465.67,621.8,460.33,620.37,455.02,618.86z"/>
		</g>
		<g>
			<path class="st9" d="M486.37,629.47l14.54-35.08c11.68,4.97,23.2,10.41,34.14,16.89l-19.01,32.88
				C506.53,638.51,496.51,633.81,486.37,629.47z"/>
			<path class="st8" d="M486.37,629.47l14.54-35.08c11.68,4.97,23.2,10.41,34.14,16.89l-19.01,32.88
				C506.53,638.51,496.51,633.81,486.37,629.47z"/>
		</g>
		<g>
			<path class="st9" d="M516.03,644.16l19.01-32.88c5.58,3.05,10.84,6.62,16.2,10.03c2.66,1.74,5.2,3.65,7.8,5.47
				c2.59,1.84,5.2,3.65,7.66,5.66l-23.13,30.12c-2.13-1.76-4.41-3.33-6.66-4.93c-2.27-1.58-4.47-3.26-6.78-4.76
				C525.45,649.93,520.89,646.8,516.03,644.16z"/>
			<path class="st8" d="M516.03,644.16l19.01-32.88c5.58,3.05,10.84,6.62,16.2,10.03c2.66,1.74,5.2,3.65,7.8,5.47
				c2.59,1.84,5.2,3.65,7.66,5.66l-23.13,30.12c-2.13-1.76-4.41-3.33-6.66-4.93c-2.27-1.58-4.47-3.26-6.78-4.76
				C525.45,649.93,520.89,646.8,516.03,644.16z"/>
		</g>
	</g>
	<g>
		<line class="st8" x1="97.61" y1="863.34" x2="73.86" y2="863.32"/>
		<line class="st8" x1="100.19" y1="825.29" x2="76.64" y2="822.19"/>
		<line class="st8" x1="107.6" y1="787.86" x2="84.65" y2="781.71"/>
		<line class="st8" x1="119.87" y1="751.73" x2="97.93" y2="742.61"/>
		<line class="st8" x1="136.83" y1="717.55" x2="116.28" y2="705.64"/>
		<line class="st8" x1="158.06" y1="685.86" x2="139.23" y2="671.37"/>
		<line class="st8" x1="183.19" y1="657.16" x2="166.4" y2="640.35"/>
		<line class="st8" x1="211.91" y1="632.05" x2="197.45" y2="613.21"/>
		<line class="st8" x1="243.63" y1="610.86" x2="231.74" y2="590.29"/>
		<line class="st8" x1="277.82" y1="593.93" x2="268.73" y2="571.99"/>
		<line class="st8" x1="313.96" y1="581.69" x2="307.83" y2="558.74"/>
		<line class="st8" x1="351.4" y1="574.32" x2="348.33" y2="550.77"/>
		<line class="st8" x1="389.46" y1="571.77" x2="389.46" y2="548.02"/>
		<line class="st8" x1="427.52" y1="574.32" x2="430.59" y2="550.77"/>
		<line class="st8" x1="464.95" y1="581.69" x2="471.08" y2="558.74"/>
		<line class="st8" x1="501.09" y1="593.93" x2="510.18" y2="571.99"/>
		<line class="st8" x1="535.29" y1="610.86" x2="547.17" y2="590.29"/>
		<line class="st8" x1="567" y1="632.05" x2="581.47" y2="613.21"/>
		<line class="st8" x1="595.73" y1="657.16" x2="612.51" y2="640.35"/>
		<line class="st8" x1="620.86" y1="685.86" x2="639.68" y2="671.37"/>
		<line class="st8" x1="642.08" y1="717.55" x2="662.64" y2="705.64"/>
		<line class="st8" x1="659.05" y1="751.73" x2="680.98" y2="742.61"/>
		<line class="st8" x1="671.32" y1="787.86" x2="694.26" y2="781.71"/>
		<line class="st8" x1="678.73" y1="825.28" x2="702.28" y2="822.19"/>
		<line class="st8" x1="681.31" y1="863.34" x2="705.06" y2="863.32"/>
	</g>
	<g>
		<line class="st8" x1="98.31" y1="844.28" x2="86.46" y2="843.5"/>
		<line class="st8" x1="103.24" y1="806.44" x2="91.59" y2="804.13"/>
		<line class="st8" x1="113.17" y1="769.6" x2="101.93" y2="765.78"/>
		<line class="st8" x1="127.79" y1="734.36" x2="117.14" y2="729.09"/>
		<line class="st8" x1="146.89" y1="701.33" x2="137.02" y2="694.72"/>
		<line class="st8" x1="170.19" y1="671.12" x2="161.26" y2="663.29"/>
		<line class="st8" x1="197.17" y1="644.17" x2="189.34" y2="635.24"/>
		<line class="st8" x1="227.4" y1="620.9" x2="220.8" y2="611.03"/>
		<line class="st8" x1="260.44" y1="601.83" x2="255.19" y2="591.18"/>
		<line class="st8" x1="295.7" y1="587.25" x2="291.89" y2="576"/>
		<line class="st8" x1="332.56" y1="577.36" x2="330.25" y2="565.71"/>
		<line class="st8" x1="370.39" y1="572.46" x2="369.63" y2="560.61"/>
		<line class="st8" x1="408.53" y1="572.46" x2="409.29" y2="560.61"/>
		<line class="st8" x1="446.36" y1="577.36" x2="448.66" y2="565.71"/>
		<line class="st8" x1="483.21" y1="587.25" x2="487.03" y2="576"/>
		<line class="st8" x1="518.47" y1="601.83" x2="523.73" y2="591.18"/>
		<line class="st8" x1="551.52" y1="620.9" x2="558.12" y2="611.03"/>
		<line class="st8" x1="581.75" y1="644.17" x2="589.58" y2="635.24"/>
		<line class="st8" x1="608.73" y1="671.12" x2="617.65" y2="663.29"/>
		<line class="st8" x1="632.03" y1="701.33" x2="641.9" y2="694.72"/>
		<line class="st8" x1="651.13" y1="734.36" x2="661.77" y2="729.09"/>
		<line class="st8" x1="665.74" y1="769.6" x2="676.99" y2="765.78"/>
		<line class="st8" x1="675.67" y1="806.44" x2="687.32" y2="804.13"/>
		<line class="st8" x1="680.6" y1="844.28" x2="692.46" y2="843.5"/>
	</g>
	<g>
		<g>
			<path class="st9" d="M144.75,797.82l-36.68-9.84l2.6-9.17c0.84-3.06,1.98-6.04,2.96-9.06l35.95,12.23
				c-0.84,2.63-1.86,5.2-2.58,7.87L144.75,797.82z"/>
			<path class="st8" d="M144.75,797.82l-36.68-9.84l2.6-9.17c0.84-3.06,1.98-6.04,2.96-9.06l35.95,12.23
				c-0.84,2.63-1.86,5.2-2.58,7.87L144.75,797.82z"/>
		</g>
		<g>
			<path class="st10" d="M155.39,766.49c-1.99,5.15-4.16,10.23-5.8,15.5l-35.95-12.23c1.91-6.06,4.37-11.93,6.68-17.84
				L155.39,766.49z"/>
			<path class="st8" d="M155.39,766.49c-1.99,5.15-4.16,10.23-5.8,15.5l-35.95-12.23c1.91-6.06,4.37-11.93,6.68-17.84L155.39,766.49
				z"/>
		</g>
	</g>
	<g>
		<g>
			<path class="st9" d="M210.38,684.37l-26.84-26.87l6.89-6.58c1.16-1.09,2.29-2.21,3.46-3.27l3.6-3.12l25.04,28.55l-3.14,2.71
				c-1.03,0.93-2,1.9-3.01,2.85L210.38,684.37z"/>
			<path class="st8" d="M210.38,684.37l-26.84-26.87l6.89-6.58c1.16-1.09,2.29-2.21,3.46-3.27l3.6-3.12l25.04,28.55l-3.14,2.71
				c-1.03,0.93-2,1.9-3.01,2.85L210.38,684.37z"/>
		</g>
		<g>
			<path class="st7" d="M235.34,662.57l-6.52,5.12c-2.13,1.76-4.18,3.61-6.28,5.41l-25.04-28.55c2.41-2.07,4.78-4.19,7.23-6.21
				l7.49-5.89L235.34,662.57z"/>
			<path class="st8" d="M235.34,662.57l-6.52,5.12c-2.13,1.76-4.18,3.61-6.28,5.41l-25.04-28.55c2.41-2.07,4.78-4.19,7.23-6.21
				l7.49-5.89L235.34,662.57z"/>
		</g>
	</g>
</g>
<g>
	<g>
		<circle class="st11" cx="23.96" cy="843.5" r="12.05"/>
		<g>
			<path class="st11" d="M22.15,860.84v7.77h3.62v-7.77c-0.6,0.06-1.19,0.18-1.81,0.18C23.34,861.02,22.75,860.9,22.15,860.84z"/>
			<path class="st11" d="M25.77,826.15v-7.77h-3.62v7.77c0.6-0.06,1.19-0.18,1.81-0.18C24.58,825.97,25.16,826.09,25.77,826.15z"/>
			<path class="st11" d="M17.07,819.28l-3.4,1.24l2.65,7.27c1.08-0.53,2.21-0.95,3.39-1.24L17.07,819.28z"/>
			<path class="st11" d="M30.85,867.71l3.4-1.24l-2.65-7.27c-1.08,0.53-2.21,0.95-3.39,1.24L30.85,867.71z"/>
			<path class="st11" d="M33.78,858.01l4.94,5.88l2.77-2.32l-4.95-5.9C35.69,856.54,34.78,857.33,33.78,858.01z"/>
			<path class="st11" d="M14.14,828.98L9.2,823.1l-2.77,2.32l4.95,5.9C12.22,830.46,13.14,829.66,14.14,828.98z"/>
			<path class="st11" d="M3.12,829.38l-1.81,3.13l6.67,3.85c0.5-1.11,1.12-2.15,1.82-3.12L3.12,829.38z"/>
			<path class="st11" d="M44.8,857.62l1.81-3.13l-6.67-3.85c-0.5,1.11-1.12,2.15-1.82,3.12L44.8,857.62z"/>
			<path class="st11" d="M-0.45,837.36l-0.63,3.56l7.64,1.35c0.09-1.23,0.3-2.41,0.62-3.56L-0.45,837.36z"/>
			<path class="st11" d="M40.74,848.29l7.64,1.35l0.63-3.56l-7.64-1.35C41.27,845.96,41.07,847.15,40.74,848.29z"/>
			<path class="st11" d="M-1.08,846.08l0.63,3.56l7.64-1.35c-0.33-1.15-0.54-2.33-0.62-3.56L-1.08,846.08z"/>
			<path class="st11" d="M49,840.92l-0.63-3.56l-7.64,1.35c0.33,1.15,0.54,2.33,0.62,3.56L49,840.92z"/>
			<path class="st11" d="M1.31,854.49l1.81,3.13l6.69-3.86c-0.71-0.97-1.33-2.01-1.82-3.12L1.31,854.49z"/>
			<path class="st11" d="M46.61,832.51l-1.81-3.13l-6.69,3.86c0.71,0.97,1.33,2.01,1.82,3.12L46.61,832.51z"/>
			<path class="st11" d="M11.39,855.67l-4.95,5.9l2.77,2.32l4.94-5.88C13.14,857.33,12.22,856.54,11.39,855.67z"/>
			<path class="st11" d="M36.53,831.32l4.95-5.9l-2.77-2.32l-4.94,5.88C34.78,829.66,35.69,830.46,36.53,831.32z"/>
			<path class="st11" d="M34.25,820.52l-3.4-1.24l-2.64,7.27c1.19,0.3,2.32,0.72,3.39,1.24L34.25,820.52z"/>
			<path class="st11" d="M13.67,866.48l3.4,1.24l2.64-7.27c-1.19-0.3-2.32-0.72-3.39-1.24L13.67,866.48z"/>
		</g>
	</g>
</g>
<g>
	<g>
		<circle class="st11" cx="759.04" cy="843.5" r="12.05"/>
		<g>
			<path class="st11" d="M757.23,860.84v7.77h3.62v-7.77c-0.6,0.06-1.19,0.18-1.81,0.18C758.42,861.02,757.83,860.9,757.23,860.84z"
				/>
			<path class="st11" d="M760.85,826.15v-7.77h-3.62v7.77c0.6-0.06,1.19-0.18,1.81-0.18C759.66,825.97,760.24,826.09,760.85,826.15z
				"/>
			<path class="st11" d="M752.15,819.28l-3.4,1.24l2.65,7.27c1.08-0.53,2.21-0.95,3.39-1.24L752.15,819.28z"/>
			<path class="st11" d="M765.93,867.71l3.4-1.24l-2.65-7.27c-1.08,0.53-2.21,0.95-3.39,1.24L765.93,867.71z"/>
			<path class="st11" d="M768.86,858.01l4.94,5.88l2.77-2.32l-4.95-5.9C770.78,856.54,769.86,857.33,768.86,858.01z"/>
			<path class="st11" d="M749.22,828.98l-4.94-5.88l-2.77,2.32l4.95,5.9C747.31,830.46,748.22,829.66,749.22,828.98z"/>
			<path class="st11" d="M738.2,829.38l-1.81,3.13l6.67,3.85c0.5-1.11,1.12-2.15,1.82-3.12L738.2,829.38z"/>
			<path class="st11" d="M779.88,857.62l1.81-3.13l-6.67-3.85c-0.5,1.11-1.12,2.15-1.82,3.12L779.88,857.62z"/>
			<path class="st11" d="M734.63,837.36l-0.63,3.56l7.64,1.35c0.09-1.23,0.3-2.41,0.62-3.56L734.63,837.36z"/>
			<path class="st11" d="M775.82,848.29l7.64,1.35l0.63-3.56l-7.64-1.35C776.36,845.96,776.15,847.15,775.82,848.29z"/>
			<path class="st11" d="M734,846.08l0.63,3.56l7.64-1.35c-0.33-1.15-0.54-2.33-0.62-3.56L734,846.08z"/>
			<path class="st11" d="M784.08,840.92l-0.63-3.56l-7.64,1.35c0.33,1.15,0.54,2.33,0.62,3.56L784.08,840.92z"/>
			<path class="st11" d="M736.39,854.49l1.81,3.13l6.69-3.86c-0.71-0.97-1.33-2.01-1.82-3.12L736.39,854.49z"/>
			<path class="st11" d="M781.69,832.51l-1.81-3.13l-6.69,3.86c0.71,0.97,1.33,2.01,1.82,3.12L781.69,832.51z"/>
			<path class="st11" d="M746.47,855.67l-4.95,5.9l2.77,2.32l4.94-5.88C748.22,857.33,747.31,856.54,746.47,855.67z"/>
			<path class="st11" d="M771.61,831.32l4.95-5.9l-2.77-2.32l-4.94,5.88C769.86,829.66,770.78,830.46,771.61,831.32z"/>
			<path class="st11" d="M769.33,820.52l-3.4-1.24l-2.64,7.27c1.19,0.3,2.32,0.72,3.39,1.24L769.33,820.52z"/>
			<path class="st11" d="M748.75,866.48l3.4,1.24l2.64-7.27c-1.19-0.3-2.32-0.72-3.39-1.24L748.75,866.48z"/>
		</g>
	</g>
</g>
<g>
	<g>
		<path class="st11" d="M390.17,482.22c1.11,2.35,1.75,4.97,1.75,7.74c0,10-8.11,18.11-18.11,18.11c-2.69,0-5.23-0.6-7.53-1.65
			c2.9,6.13,9.13,10.37,16.35,10.37c10,0,18.11-8.11,18.11-18.11C400.75,491.36,396.4,485.08,390.17,482.22z"/>
	</g>
</g>
<path class="st1" d="M65.3,863.44c0-179,145.11-324.1,324.1-324.1s324.1,145.11,324.1,324.1"/>
<path class="st8" d="M412.85,500.66c170.12,10.76,308.49,138.44,335.67,303.58"/>
<path class="st8" d="M30.57,804.13c27.2-164.99,165.4-292.55,335.35-303.44"/>
<g>
	<text transform="matrix(1 0 0 1 60.418 863.4424)" class="st12 st13 st14">8</text>
	<text transform="matrix(1 0 0 1 62.3198 823.2715)" class="st12 st13 st14">9</text>
	<text transform="matrix(1 0 0 1 65.3032 781.9932)" class="st12 st13 st14">10</text>
	<text transform="matrix(1 0 0 1 80.5933 742.6123)" class="st12 st13 st14">11</text>
	<text transform="matrix(1 0 0 1 98.0698 705.6436)" class="st12 st13 st14">12</text>
	<text transform="matrix(1 0 0 1 128.2104 671.123)" class="st12 st13 st14">1</text>
	<text transform="matrix(1 0 0 1 153.7202 639.7041)" class="st12 st13 st14">2</text>
	<text transform="matrix(1 0 0 1 186.4521 610.8545)" class="st12 st13 st14">3</text>
	<text transform="matrix(1 0 0 1 222.5952 585.292)" class="st12 st13 st14">4</text>
	<text transform="matrix(1 0 0 1 261.1523 565.709)" class="st12 st13 st14">5</text>
	<text transform="matrix(1 0 0 1 300.5366 550.7695)" class="st12 st13 st14">6</text>
	<text transform="matrix(1 0 0 1 343.8413 542.6924)" class="st12 st13 st14">7</text>
	<text transform="matrix(1 0 0 1 427.5068 542.6924)" class="st12 st13 st14">9</text>
	<text transform="matrix(1 0 0 1 465.248 550.998)" class="st12 st13 st14">10</text>
	<text transform="matrix(1 0 0 1 506.498 565.708)" class="st12 st13 st14">11</text>
	<text transform="matrix(1 0 0 1 541.2285 582.96)" class="st12 st13 st14">12</text>
	<text transform="matrix(1 0 0 1 580.9395 605.8203)" class="st12 st13 st14">1</text>
	<text transform="matrix(1 0 0 1 642.4346 667.2041)" class="st12 st13 st14">3</text>
	<text transform="matrix(1 0 0 1 685.8115 742.1445)" class="st12 st13 st14">5</text>
	<text transform="matrix(1 0 0 1 615.7344 635.2383)" class="st12 st13 st14">2</text>
	<text transform="matrix(1 0 0 1 665.208 701.3926)" class="st12 st13 st14">4</text>
	<text transform="matrix(1 0 0 1 697.3838 781.7031)" class="st12 st13 st14">6</text>
	<text transform="matrix(1 0 0 1 708.626 863.3154)" class="st12 st13 st14">8</text>
	<text transform="matrix(1 0 0 1 706.2861 823.7363)" class="st12 st13 st14">7</text>
	<text transform="matrix(1 0 0 1 384.5225 539.3398)" class="st12 st13 st14">8</text>
</g>
<text transform="matrix(1 0 0 1 626.8496 527.0625)"><tspan x="0" y="0" class="st2 st3 st15">6 hours</tspan><tspan x="0" y="26.05" class="st2 st3 st15">eating/foraging</tspan></text>
<text transform="matrix(1 0 0 1 342.3525 434.6133)"><tspan x="0" y="0" class="st2 st3 st15">10 hours</tspan><tspan x="1.47" y="26.05" class="st2 st3 st15">sleeping</tspan></text>
<text transform="matrix(1 0 0 1 40.8467 523.4395)"><tspan x="0" y="0" class="st2 st3 st15">6½ hours</tspan><tspan x="0" y="26.05" class="st2 st3 st15">eating/foraging</tspan></text>
<path class="st0" d="M164.83,516.78c0,0,93.47-18.53,149.26,65.38"/>
<path class="st0" d="M757.23,572.58c0,0,24.46,141.25-86.39,215.41"/>
<text transform="matrix(1 0 0 1 3 60.0884)"><tspan x="0" y="0" class="st16 st17 st18">EAT,</tspan><tspan x="77.38" y="0" class="st2 st17 st18"> </tspan><tspan x="86.53" y="0" class="st19 st17 st18">SLEEP,</tspan><tspan x="205.6" y="0" class="st2 st17 st18"> </tspan><tspan x="214.74" y="0" class="st5 st17 st18">PLAY</tspan></text>
<path class="st0" d="M448.66,460.67c0,0,109.46,21.55,75.07,130.51"/>
</svg>
